<svg viewBox="0 0 164 108" xmlns="http://www.w3.org/2000/svg"><g fill="none" fill-rule="nonzero"><path d="M68.817 99.131l1.222-.574 1.278.436a44.134 44.134 0 0 0 14.27 2.353c13.14 0 25.33-5.762 33.64-15.563l1.635-1.927 2.302 1.05a23.419 23.419 0 0 0 9.75 2.108c12.932 0 23.413-10.428 23.413-23.289 0-7.07-3.182-13.616-8.575-18.016l-1.784-1.456.734-2.179a26.71 26.71 0 0 0 1.395-8.548c0-14.84-12.094-26.872-27.015-26.872a26.99 26.99 0 0 0-19.393 8.164l-1.414 1.45-1.941-.584a44.202 44.202 0 0 0-12.747-1.864c-6.78 0-13.333 1.524-19.286 4.418l-1.758.854-1.607-1.112a23.374 23.374 0 0 0-13.36-4.16c-12.932 0-23.413 10.428-23.413 23.289 0 .475.014.949.043 1.42l.149 2.473-2.333.851c-9.145 3.338-15.35 12.023-15.35 21.872 0 12.86 10.482 23.29 23.414 23.29.864 0 1.722-.047 2.571-.14l2.28-.247 1.048 2.035a23.424 23.424 0 0 0 20.851 12.683c3.502 0 6.888-.763 9.98-2.215z" fill="#FFF"/><path d="M155.702 58.36a3.447 3.447 0 0 1-5.125-1.708 3.446 3.446 0 0 1 2.62-4.572 23.4 23.4 0 0 0-5.445-6.371l-1.784-1.456.182-.543a4.299 4.299 0 0 1-1.824-2.219 4.308 4.308 0 0 1 3.682-5.768c.059-.727.089-1.46.089-2.197 0-2.932-.473-5.754-1.345-8.396a5.145 5.145 0 0 1-2.968 2.794 5.17 5.17 0 0 1-6.622-3.096 5.17 5.17 0 0 1 3.083-6.628 5.133 5.133 0 0 1 2.9-.185 27.094 27.094 0 0 0-6.009-6.103 6.034 6.034 0 0 1-6.715-3.609 27.089 27.089 0 0 0-9.34-1.649c-1.503 0-2.986.123-4.438.361a6.038 6.038 0 0 1 5.59 3.976 6.03 6.03 0 0 1-3.597 7.733 6.03 6.03 0 0 1-7.726-3.612 6.032 6.032 0 0 1 3.106-7.53 26.976 26.976 0 0 0-12.327 7.236l-.659.676a6.017 6.017 0 0 1 1.792 2.562 6.03 6.03 0 0 1-3.597 7.733 6.03 6.03 0 0 1-7.727-3.612 6.033 6.033 0 0 1 2.973-7.465 44.427 44.427 0 0 0-8.884-.892c-6.78 0-13.333 1.524-19.286 4.418l-1.758.854-1.607-1.112a23.374 23.374 0 0 0-4.658-2.5 6.89 6.89 0 0 1-4.526 6.671c-3.574 1.3-7.527-.547-8.83-4.127a6.876 6.876 0 0 1-.29-3.684 23.35 23.35 0 0 0-7.969 3.34 6.88 6.88 0 0 1 1.788 2.699c1.303 3.58-.537 7.537-4.11 8.837a6.876 6.876 0 0 1-6.44-.93 23.114 23.114 0 0 0-1.738 8.823c0 .475.014.949.043 1.42l.149 2.473-2.333.851c-.762.278-1.503.593-2.222.943a6.026 6.026 0 0 1 3.376 3.52 6.03 6.03 0 0 1-3.597 7.733 6.03 6.03 0 0 1-7.995-4.6 23.178 23.178 0 0 0-4.911 14.276c0 1.567.155 3.098.452 4.578a5.157 5.157 0 0 1 1.863 2.449 5.157 5.157 0 0 1 .092 3.27 23.426 23.426 0 0 0 21.006 12.992c.864 0 1.722-.046 2.571-.138l2.28-.248 1.048 2.035a23.424 23.424 0 0 0 20.851 12.683c3.502 0 6.888-.763 9.98-2.215l1.223-.574 1.278.436a44.134 44.134 0 0 0 14.27 2.353c13.14 0 25.33-5.762 33.64-15.563l.035-.04a2.583 2.583 0 0 1-1.524-1.539 2.585 2.585 0 0 1 1.542-3.314 2.585 2.585 0 0 1 3.311 1.548c.266.73.183 1.502-.163 2.132l.736.336a23.419 23.419 0 0 0 9.75 2.108c12.932 0 23.413-10.428 23.413-23.289 0-1.833-.214-3.63-.625-5.365zM58.836 108a30.104 30.104 0 0 1-25.69-14.35c-.352.012-.706.018-1.06.018C15.472 93.668 2 80.264 2 63.725c0-11.847 6.977-22.38 17.496-27.203.314-16.268 13.663-29.356 30.08-29.356a30.07 30.07 0 0 1 15.528 4.29 50.708 50.708 0 0 1 20.483-4.29c4.35 0 8.63.547 12.765 1.615A33.666 33.666 0 0 1 121.082 0c18.603 0 33.687 15.008 33.687 33.526 0 2.906-.372 5.764-1.099 8.523 5.895 5.588 9.33 13.355 9.33 21.676 0 16.539-13.472 29.943-30.086 29.943-3.525 0-6.968-.605-10.21-1.769C113.208 102.072 99.879 108 85.587 108a50.871 50.871 0 0 1-15.17-2.3 30.128 30.128 0 0 1-11.58 2.3zm-35.06-47.41a5.17 5.17 0 0 1 6.623 3.096 5.17 5.17 0 0 1-3.083 6.629 5.17 5.17 0 0 1-6.622-3.096 5.17 5.17 0 0 1 3.083-6.628zm6.651 17.769a4.308 4.308 0 0 1 5.519 2.58 4.308 4.308 0 0 1-2.57 5.523 4.308 4.308 0 0 1-5.518-2.58 4.308 4.308 0 0 1 2.57-5.523zm6.434-42.72a6.03 6.03 0 0 1 7.727 3.612 6.03 6.03 0 0 1-3.597 7.733 6.03 6.03 0 0 1-7.727-3.611 6.03 6.03 0 0 1 3.597-7.733zm6.327 17.887a5.17 5.17 0 0 1 6.623 3.095 5.17 5.17 0 0 1-3.084 6.628 5.17 5.17 0 0 1-6.622-3.095 5.17 5.17 0 0 1 3.083-6.628zm6.65 17.768a4.308 4.308 0 0 1 5.52 2.58 4.308 4.308 0 0 1-2.57 5.523 4.308 4.308 0 0 1-5.519-2.58 4.308 4.308 0 0 1 2.57-5.523zm5.737 16.265a3.446 3.446 0 0 1 4.415 2.064 3.446 3.446 0 0 1-2.055 4.418 3.446 3.446 0 0 1-4.415-2.063 3.446 3.446 0 0 1 2.055-4.42zm.698-58.984a6.03 6.03 0 0 1 7.726 3.611 6.03 6.03 0 0 1-3.597 7.733 6.03 6.03 0 0 1-7.726-3.611 6.03 6.03 0 0 1 3.597-7.733zM62.6 46.46a5.17 5.17 0 0 1 6.622 3.095 5.17 5.17 0 0 1-3.083 6.628 5.17 5.17 0 0 1-6.623-3.095A5.17 5.17 0 0 1 62.6 46.46zm6.65 17.768a4.308 4.308 0 0 1 5.518 2.58 4.308 4.308 0 0 1-2.569 5.523 4.308 4.308 0 0 1-5.519-2.58 4.308 4.308 0 0 1 2.57-5.523zm5.737 16.265a3.446 3.446 0 0 1 4.415 2.063 3.446 3.446 0 0 1-2.056 4.42 3.446 3.446 0 0 1-4.415-2.064 3.446 3.446 0 0 1 2.056-4.42zm5.47 14.527a2.585 2.585 0 0 1 3.311 1.547 2.585 2.585 0 0 1-1.541 3.314 2.585 2.585 0 0 1-3.311-1.547 2.585 2.585 0 0 1 1.541-3.314zM75.684 21.51a6.03 6.03 0 0 1 7.726 3.611 6.03 6.03 0 0 1-3.597 7.733 6.03 6.03 0 0 1-7.726-3.612 6.03 6.03 0 0 1 3.597-7.732zm6.327 17.885a5.17 5.17 0 0 1 6.622 3.096 5.17 5.17 0 0 1-3.083 6.628 5.17 5.17 0 0 1-6.622-3.095 5.17 5.17 0 0 1 3.083-6.629zm6.65 17.768a4.308 4.308 0 0 1 5.519 2.58 4.308 4.308 0 0 1-2.57 5.524 4.308 4.308 0 0 1-5.518-2.58 4.308 4.308 0 0 1 2.57-5.524zm5.737 16.266a3.446 3.446 0 0 1 4.415 2.063 3.446 3.446 0 0 1-2.056 4.42 3.446 3.446 0 0 1-4.415-2.065 3.446 3.446 0 0 1 2.056-4.418zm5.47 14.526a2.585 2.585 0 0 1 3.312 1.548 2.585 2.585 0 0 1-1.542 3.314 2.585 2.585 0 0 1-3.311-1.548 2.585 2.585 0 0 1 1.542-3.314zm1.554-55.625a5.17 5.17 0 0 1 6.623 3.096 5.17 5.17 0 0 1-3.084 6.628 5.17 5.17 0 0 1-6.622-3.096 5.17 5.17 0 0 1 3.083-6.628zm6.65 17.768a4.308 4.308 0 0 1 5.52 2.58 4.308 4.308 0 0 1-2.57 5.523 4.308 4.308 0 0 1-5.519-2.58 4.308 4.308 0 0 1 2.57-5.523zm5.737 16.265a3.446 3.446 0 0 1 4.415 2.064 3.446 3.446 0 0 1-2.055 4.419 3.446 3.446 0 0 1-4.415-2.064 3.446 3.446 0 0 1 2.055-4.419zm7.025-41.098a5.17 5.17 0 0 1 6.622 3.096 5.17 5.17 0 0 1-3.083 6.628 5.17 5.17 0 0 1-6.623-3.096 5.17 5.17 0 0 1 3.084-6.628zm6.65 17.768a4.308 4.308 0 0 1 5.519 2.58 4.308 4.308 0 0 1-2.57 5.523 4.308 4.308 0 0 1-5.519-2.58 4.308 4.308 0 0 1 2.57-5.523zm5.737 16.265a3.446 3.446 0 0 1 4.415 2.064 3.446 3.446 0 0 1-2.056 4.419 3.446 3.446 0 0 1-4.415-2.064 3.446 3.446 0 0 1 2.056-4.419zm5.47 14.527a2.585 2.585 0 0 1 3.311 1.548 2.585 2.585 0 0 1-1.541 3.314 2.585 2.585 0 0 1-3.311-1.548 2.585 2.585 0 0 1 1.541-3.314z" fill="#131515"/></g></svg>
