<svg viewBox="0 0 164 108" xmlns="http://www.w3.org/2000/svg"><g fill="none" fill-rule="evenodd"><path d="M68.817 99.131l1.222-.574 1.278.436a44.134 44.134 0 0 0 14.27 2.353c13.14 0 25.33-5.762 33.64-15.563l1.635-1.927 2.302 1.05a23.419 23.419 0 0 0 9.75 2.108c12.932 0 23.413-10.428 23.413-23.289 0-7.07-3.182-13.616-8.575-18.016l-1.784-1.456.734-2.179a26.71 26.71 0 0 0 1.395-8.548c0-14.84-12.094-26.872-27.015-26.872a26.99 26.99 0 0 0-19.393 8.164l-1.414 1.45-1.941-.584a44.202 44.202 0 0 0-12.747-1.864c-6.78 0-13.333 1.524-19.286 4.418l-1.758.854-1.607-1.112a23.374 23.374 0 0 0-13.36-4.16c-12.932 0-23.413 10.428-23.413 23.289 0 .475.014.949.043 1.42l.149 2.473-2.333.851c-9.145 3.338-15.35 12.023-15.35 21.872 0 12.86 10.482 23.29 23.414 23.29.864 0 1.722-.047 2.571-.14l2.28-.247 1.048 2.035a23.424 23.424 0 0 0 20.851 12.683c3.502 0 6.888-.763 9.98-2.215z" fill="#FFF" fill-rule="nonzero"/><path d="M68.817 99.131l1.222-.574 1.278.436a44.134 44.134 0 0 0 14.27 2.353c13.14 0 25.33-5.762 33.64-15.563l1.635-1.927 2.302 1.05a23.419 23.419 0 0 0 9.75 2.108c12.932 0 23.413-10.428 23.413-23.289 0-7.07-3.182-13.616-8.575-18.016l-1.784-1.456.734-2.179a26.71 26.71 0 0 0 1.395-8.548c0-14.84-12.094-26.872-27.015-26.872a26.99 26.99 0 0 0-19.393 8.164l-1.414 1.45-1.941-.584a44.202 44.202 0 0 0-12.747-1.864c-6.78 0-13.333 1.524-19.286 4.418l-1.758.854-1.607-1.112a23.374 23.374 0 0 0-13.36-4.16c-12.932 0-23.413 10.428-23.413 23.289 0 .475.014.949.043 1.42l.149 2.473-2.333.851c-9.145 3.338-15.35 12.023-15.35 21.872 0 12.86 10.482 23.29 23.414 23.29.864 0 1.722-.047 2.571-.14l2.28-.247 1.048 2.035a23.424 23.424 0 0 0 20.851 12.683c3.502 0 6.888-.763 9.98-2.215zM58.837 108a30.104 30.104 0 0 1-25.69-14.35c-.353.012-.707.018-1.06.018C15.471 93.668 2 80.264 2 63.725c0-11.847 6.977-22.38 17.496-27.203.314-16.268 13.663-29.356 30.08-29.356a30.07 30.07 0 0 1 15.528 4.29 50.708 50.708 0 0 1 20.483-4.29c4.35 0 8.63.547 12.765 1.615A33.666 33.666 0 0 1 121.082 0c18.603 0 33.687 15.008 33.687 33.526 0 2.906-.372 5.764-1.099 8.523 5.895 5.588 9.33 13.355 9.33 21.676 0 16.539-13.472 29.943-30.086 29.943-3.525 0-6.968-.605-10.21-1.769C113.208 102.072 99.879 108 85.587 108a50.871 50.871 0 0 1-15.17-2.3 30.128 30.128 0 0 1-11.58 2.3z" fill="#131515" fill-rule="nonzero"/><path d="M37.344 11.135a5.17 5.17 0 0 1 3.083 6.628 5.17 5.17 0 0 1-6.623 3.095c-2.68-.975-2.612-2.176-1.635-4.861.977-2.686 2.494-5.838 5.175-4.862z" fill="#131515"/><ellipse fill="#131515" transform="scale(1 -1) rotate(-20 -158.019 0)" cx="29.542" cy="33.072" rx="4.304" ry="4.312"/><ellipse fill="#131515" transform="scale(1 -1) rotate(-20 -250.765 0)" cx="23.777" cy="48.409" rx="3.443" ry="3.449"/><ellipse fill="#131515" transform="scale(1 -1) rotate(-20 -334.075 0)" cx="18.925" cy="62.243" rx="2.582" ry="2.587"/><ellipse fill="#131515" transform="scale(1 -1) rotate(-20 -407.26 0)" cx="14.339" cy="74.339" rx="1.721" ry="1.725"/><ellipse fill="#131515" transform="scale(1 -1) rotate(-20 -75.804 0)" cx="54.985" cy="23.062" rx="5.164" ry="5.174"/><ellipse fill="#131515" transform="scale(1 -1) rotate(-20 -178.676 0)" cx="48.954" cy="40.137" rx="4.304" ry="4.312"/><ellipse fill="#131515" transform="scale(1 -1) rotate(-20 -271.422 0)" cx="43.188" cy="55.474" rx="3.443" ry="3.449"/><ellipse fill="#131515" transform="scale(1 -1) rotate(-20 -354.732 0)" cx="38.336" cy="69.309" rx="2.582" ry="2.587"/><ellipse fill="#131515" transform="scale(1 -1) rotate(-20 -427.917 0)" cx="33.75" cy="81.404" rx="1.721" ry="1.725"/><ellipse fill="#131515" transform="scale(1 -1) rotate(-20 -491.665 0)" cx="30.078" cy="91.997" rx="1" ry="1"/><path d="M82 10c3.127 1.138 5.554 2.097 4.414 5.23a6.03 6.03 0 0 1-7.726 3.611 6.03 6.03 0 0 1-3.598-7.732C76.23 7.976 78.873 8.862 82 10z" fill="#131515"/><ellipse fill="#131515" transform="scale(1 -1) rotate(-20 -96.461 0)" cx="74.397" cy="30.127" rx="5.164" ry="5.174"/><ellipse fill="#131515" transform="scale(1 -1) rotate(-20 -199.333 0)" cx="68.365" cy="47.202" rx="4.304" ry="4.312"/><ellipse fill="#131515" transform="scale(1 -1) rotate(-20 -292.08 0)" cx="62.6" cy="62.539" rx="3.443" ry="3.449"/><ellipse fill="#131515" transform="scale(1 -1) rotate(-20 -375.39 0)" cx="57.747" cy="76.374" rx="2.582" ry="2.587"/><ellipse fill="#131515" transform="scale(1 -1) rotate(-20 -448.574 0)" cx="53.162" cy="88.47" rx="1.721" ry="1.725"/><ellipse fill="#131515" transform="scale(1 -1) rotate(-20 -512.322 0)" cx="49.489" cy="99.063" rx="1" ry="1"/><ellipse fill="#131515" transform="scale(1 -1) rotate(-20 -14.591 0)" cx="100.163" cy="20.234" rx="6.025" ry="6.036"/><ellipse fill="#131515" transform="scale(1 -1) rotate(-20 -117.119 0)" cx="93.808" cy="37.192" rx="5.164" ry="5.174"/><ellipse fill="#131515" transform="scale(1 -1) rotate(-20 -219.99 0)" cx="87.776" cy="54.268" rx="4.304" ry="4.312"/><ellipse fill="#131515" transform="scale(1 -1) rotate(-20 -312.737 0)" cx="82.011" cy="69.605" rx="3.443" ry="3.449"/><ellipse fill="#131515" transform="scale(1 -1) rotate(-20 -396.047 0)" cx="77.159" cy="83.439" rx="2.582" ry="2.587"/><ellipse fill="#131515" transform="scale(1 -1) rotate(-20 -469.231 0)" cx="72.573" cy="95.535" rx="1.721" ry="1.725"/><ellipse fill="#131515" transform="scale(1 -1) rotate(-20 -35.248 0)" cx="119.575" cy="27.299" rx="6.025" ry="6.036"/><ellipse fill="#131515" transform="scale(1 -1) rotate(-20 -137.776 0)" cx="113.219" cy="44.257" rx="5.164" ry="5.174"/><ellipse fill="#131515" transform="scale(1 -1) rotate(-20 -240.647 0)" cx="107.188" cy="61.333" rx="4.304" ry="4.312"/><ellipse fill="#131515" transform="scale(1 -1) rotate(-20 -333.394 0)" cx="101.422" cy="76.67" rx="3.443" ry="3.449"/><ellipse fill="#131515" transform="scale(1 -1) rotate(-20 -416.704 0)" cx="96.57" cy="90.504" rx="2.582" ry="2.587"/><ellipse fill="#131515" transform="scale(1 -1) rotate(-20 -489.888 0)" cx="91.985" cy="102.6" rx="1.721" ry="1.725"/><ellipse fill="#131515" transform="scale(1 -1) rotate(-20 77.404 0)" cx="126.196" cy="8.603" rx="6.886" ry="6.899"/><ellipse fill="#131515" transform="scale(1 -1) rotate(-20 -55.905 0)" cx="138.986" cy="34.365" rx="6.025" ry="6.036"/><ellipse fill="#131515" transform="scale(1 -1) rotate(-20 -158.433 0)" cx="132.631" cy="51.322" rx="5.164" ry="5.174"/><ellipse fill="#131515" transform="scale(1 -1) rotate(-20 -261.305 0)" cx="126.599" cy="68.398" rx="4.304" ry="4.312"/><ellipse fill="#131515" transform="scale(1 -1) rotate(-20 -354.051 0)" cx="120.834" cy="83.735" rx="3.443" ry="3.449"/><path d="M145.608 13.313c3.573 1.301 5.092 5.107 3.789 8.687-1.303 3.58-2.575 1.452-6.149.151-3.573-1.3-5.414-5.257-4.11-8.838 1.302-3.58 2.896-1.3 6.47 0z" fill="#131515"/><ellipse fill="#131515" transform="scale(1 -1) rotate(-20 -179.09 0)" cx="152.042" cy="58.388" rx="5.164" ry="5.174"/><ellipse fill="#131515" transform="scale(1 -1) rotate(-20 -281.962 0)" cx="146.01" cy="75.463" rx="4.304" ry="4.312"/></g></svg>
