<svg viewBox="0 0 208 54" xmlns="http://www.w3.org/2000/svg">
  <path d="M27.614 42.68H17.83L8.452 28.3v14.38H0V7.056a4.226 4.226 0 0 1 8.452 0v19.453l9.262-13.11h9.726L17.251 27.433 27.614 42.68zm4.4 0V13.4h8.451V42.68h-8.452zM56.095 13.4v5.429c.54-1.694 1.437-3.052 2.692-4.072 1.254-1.02 2.71-1.53 4.37-1.53.927 0 1.66.077 2.2.23v7.97c-.926-.423-1.987-.635-3.184-.635-1.814 0-3.28.665-4.4 1.993-1.119 1.328-1.678 3.09-1.678 5.284V42.68h-8.452l.058-29.281h8.394zM69.41 42.68V13.4h8.452V42.68H69.41zM98.124 35c1.814 0 3.232-.683 4.255-2.05 1.023-1.367 1.534-3.013 1.534-4.938 0-5.237-1.91-7.855-5.731-7.855-1.698 0-3.03.655-3.994 1.964-.965 1.309-1.448 3.118-1.448 5.429 0 2.425.463 4.273 1.39 5.544.926 1.27 2.257 1.906 3.994 1.906zm5.79-21.6h8.393V39.85c0 4.698-1.408 8.23-4.226 10.598C105.264 52.816 101.733 54 97.487 54c-4.13 0-7.738-.732-10.825-2.195V43.2c2.701 2.156 6.02 3.234 9.957 3.234 2.547 0 4.4-.539 5.557-1.617 1.158-1.078 1.737-2.772 1.737-5.082V37.77c-1.698 2.618-4.4 3.927-8.104 3.927-3.242 0-6.03-1.193-8.366-3.58-2.335-2.388-3.502-5.93-3.502-10.627 0-4.158 1.129-7.595 3.387-10.31 2.257-2.714 5.22-4.07 8.886-4.07 3.473 0 6.04 1.385 7.7 4.157v-3.87zm29.581 17.268h-2.72c-1.429 0-2.529.308-3.3.924-.772.616-1.158 1.406-1.158 2.368 0 1.964 1.138 2.946 3.415 2.946 1.197 0 2.123-.366 2.779-1.098.656-.731.984-1.732.984-3.003v-2.137zm-13.72-8.258v-7.566c2.316-1.31 5.654-1.964 10.015-1.964 4.168 0 7.275.895 9.32 2.686 2.046 1.79 3.069 4.572 3.069 8.345v18.77H133.9V39.1c-1.235 2.502-3.666 3.753-7.294 3.753-2.856 0-5.085-.808-6.686-2.425-1.602-1.617-2.403-3.639-2.403-6.064 0-2.811 1.033-4.996 3.098-6.555 2.064-1.56 5.123-2.34 9.175-2.34h3.705v-2.02c0-2.465-1.64-3.697-4.92-3.697-3.165 0-6.098.885-8.8 2.657zm37.513-9.01v4.562c1.621-3.234 4.38-4.85 8.278-4.85 4.13 0 6.87 1.847 8.22 5.544.657-1.733 1.757-3.09 3.3-4.072 1.544-.982 3.358-1.473 5.442-1.473 2.895 0 5.181.915 6.86 2.743 1.68 1.83 2.518 4.515 2.518 8.057v18.77h-8.452V25.296c0-1.655-.328-2.964-.984-3.927-.656-.963-1.601-1.444-2.836-1.444-1.312 0-2.48.53-3.503 1.588-1.022 1.06-1.534 2.955-1.534 5.69V42.68h-8.452V25.296c0-1.655-.328-2.964-.984-3.927-.656-.963-1.601-1.444-2.836-1.444-1.313 0-2.48.53-3.503 1.588-1.023 1.06-1.534 2.955-1.534 5.69V42.68h-8.452V13.4h8.452zm41.565 29.281V13.4h8.452V42.68h-8.452zm-.694-37.77c0-1.349.482-2.504 1.447-3.466C200.57.48 201.729 0 203.079 0c1.351 0 2.509.481 3.474 1.444.965.962 1.447 2.117 1.447 3.465 0 1.348-.482 2.503-1.447 3.465-.965.963-2.123 1.444-3.474 1.444-1.35 0-2.508-.481-3.473-1.444-.965-.962-1.447-2.117-1.447-3.465z" fill="#FF6868" fill-rule="evenodd"/>
</svg>
