<svg viewBox="0 0 1366 310"><g fill="none" fill-rule="evenodd"><path d="M1362.75 65.843l-145.5 59.588V306.75h145.5V65.843z" stroke="#131515" stroke-width="6.5" fill="#0096D0"/><path stroke="#131515" stroke-width="6.5" fill="#EF3E36" d="M1044.25 163.25h145.5v143.5h-145.5z"/><path d="M906.603 142.25L797.25 226.103v80.647h216.5v-164.5H906.603z" stroke="#131515" stroke-width="6.5" fill="#E27"/><path stroke="#131515" stroke-width="6.5" fill="#FFC100" d="M942.25 223.25h145.5v83.5h-145.5z"/><path stroke="#131515" stroke-width="6.5" fill="#BDD80C" d="M885 77.691v227.736h79.904V77.69h-39.952V11h-5.826v26.788h-12.674v39.903z"/><path stroke="#131515" stroke-width="6.5" fill="#0096D0" d="M460.939 45h60.253v56.197h6.816v208.588H444v-122.22h7.78v-86.368h9.159z"/><path d="M562.51 5h24.204a1 1 0 0 1 1 1v11.724h37.478a6 6 0 0 1 6 6V309.785H554V169.103h7.78L562.51 5z" stroke="#131515" stroke-width="6.5" fill="#FFC100"/><path d="M246.25 177.25v129.5h311.5v-129.5h-73.598v41.08l-29.296.051-.869-.651c-16.772-12.577-32.85-18.794-48.263-18.767-15.405.027-31.28 6.292-47.664 18.915l-.874.674-29.324.051V177.25H246.25z" stroke="#131515" stroke-width="6.5" fill="#9013FE"/><path d="M617.034 166.035l-11.507 140.743h81.182l-27.296-150.822-42.379 10.08z" stroke="#131515" stroke-width="6.5" fill="#0096D0"/><path stroke="#131515" stroke-width="6.5" fill="#E27" d="M146.25 230.25h117.5v76.5h-117.5z"/><g fill-rule="nonzero"><path fill="#0096D0" d="M6.5 268.5v35h66v-35z"/><path d="M6.5 268.5v35h66v-35h-66zM0 262h79v48H0v-48z" fill="#131515"/><path d="M9.55 274.554a7.147 7.147 0 0 1-7.15-7.145c0-3.946 3.201-3.658 7.15-3.658 3.949 0 7.15-.288 7.15 3.658a7.147 7.147 0 0 1-7.15 7.145zm0-2.598a4.548 4.548 0 0 0 4.55-4.547c0-2.51-2.037-1.06-4.55-1.06S5 264.899 5 267.409a4.548 4.548 0 0 0 4.55 4.547zm28.6 2.598a7.147 7.147 0 0 1-7.15-7.145c0-3.946 3.201-3.658 7.15-3.658 3.949 0 7.15-.288 7.15 3.658a7.147 7.147 0 0 1-7.15 7.145zm0-2.598a4.548 4.548 0 0 0 4.55-4.547c0-2.51-2.037-1.06-4.55-1.06s-4.55-1.45-4.55 1.06a4.548 4.548 0 0 0 4.55 4.547zm-14.3 14.29a7.147 7.147 0 0 1-7.15-7.146 7.147 7.147 0 0 1 7.15-7.144A7.147 7.147 0 0 1 31 279.1a7.147 7.147 0 0 1-7.15 7.145zm0-2.599a4.548 4.548 0 0 0 4.55-4.547 4.548 4.548 0 0 0-4.55-4.546 4.548 4.548 0 0 0-4.55 4.546 4.548 4.548 0 0 0 4.55 4.547zm28.6 2.598a7.147 7.147 0 0 1-7.15-7.145 7.147 7.147 0 0 1 7.15-7.144c3.949 0 5.735 3.199 5.735 7.144 0 3.946-1.786 7.145-5.735 7.145zm0-2.598c2.513 0 3.135-2.036 3.135-4.547 0-2.51-.622-4.546-3.135-4.546a4.548 4.548 0 0 0-4.55 4.546 4.548 4.548 0 0 0 4.55 4.547zm-42.9 16.907a7.147 7.147 0 0 1-7.15-7.145 7.147 7.147 0 0 1 7.15-7.144 7.147 7.147 0 0 1 7.15 7.144 7.147 7.147 0 0 1-7.15 7.145zm0-2.598a4.548 4.548 0 0 0 4.55-4.547 4.548 4.548 0 0 0-4.55-4.546A4.548 4.548 0 0 0 5 293.409a4.548 4.548 0 0 0 4.55 4.547zm28.6 2.598a7.147 7.147 0 0 1-7.15-7.145 7.147 7.147 0 0 1 7.15-7.144 7.147 7.147 0 0 1 7.15 7.144 7.147 7.147 0 0 1-7.15 7.145zm0-2.598a4.548 4.548 0 0 0 4.55-4.547 4.548 4.548 0 0 0-4.55-4.546 4.548 4.548 0 0 0-4.55 4.546 4.548 4.548 0 0 0 4.55 4.547zm-14.3 10.759c-3.949 0-7.15.331-7.15-3.615a7.147 7.147 0 0 1 7.15-7.144A7.147 7.147 0 0 1 31 305.1c0 3.946-3.201 3.615-7.15 3.615zm0-2.598c2.513 0 4.55 1.494 4.55-1.017a4.548 4.548 0 0 0-4.55-4.546 4.548 4.548 0 0 0-4.55 4.546c0 2.511 2.037 1.017 4.55 1.017zm28.6 2.598c-3.949 0-7.15.331-7.15-3.615a7.147 7.147 0 0 1 7.15-7.144 7.147 7.147 0 0 1 7.15 7.144c0 3.946-3.201 3.615-7.15 3.615zm0-2.598c2.513 0 4.55 1.494 4.55-1.017a4.548 4.548 0 0 0-4.55-4.546 4.548 4.548 0 0 0-4.55 4.546c0 2.511 2.037 1.017 4.55 1.017z" fill="#131515"/></g><path stroke="#131515" stroke-width="6.5" fill="#9013FE" d="M56.25 201.25h105.5v105.5H56.25z"/></g></svg>
