<svg viewBox="0 0 1472 276"><g stroke="#131515" stroke-width="6.5" fill="none" fill-rule="evenodd"><path fill="#F99400" d="M449.25 30.25h118.5v242.5h-118.5z"/><path fill="#9013FE" d="M554.25 76.25h216.5v196.5h-216.5z"/><path fill="#FFC100" d="M841.25 47.25h84.5v225.5h-84.5z"/><path fill="#9013FE" d="M1022.25 3.25h190.5v269.5h-190.5z"/><path fill="#BDD80C" d="M1252.25 129.25h216.5v143.5h-216.5z"/><path d="M1176.25 78.603V272.75h145.473l-.931-111.469-144.542-82.678z" fill="#F99400"/><path fill="#0096D0" d="M742.25 159.25h216.5v113.5h-216.5z"/><path fill="#BDD80C" d="M162.25 108.25h279.5v164.5h-279.5z"/><path fill="#0096D0" d="M120.25 47.25h118.5v225.5h-118.5z"/><path fill="#EF3E36" d="M3.25 108.25h152.5v164.5H3.25z"/><path d="M386.25 139.973V272.75h118.5V78.353l-118.5 61.62z" fill="#FFC100"/></g></svg>
