<?xml version="1.0" encoding="UTF-8"?>
<svg width="54px" height="54px" viewBox="0 0 54 54" version="1.1" xmlns="http://www.w3.org/2000/svg" xmlns:xlink="http://www.w3.org/1999/xlink">
    <!-- Generator: Sketch 52.3 (67297) - http://www.bohemiancoding.com/sketch -->
    <title>icon/social/facebook</title>
    <desc>Created with Sketch.</desc>
    <defs>
        <path d="M5.83333333,11.6322567 C5.83317044,11.5731363 5.83317044,11.5731363 5.83262534,11.4924135 C5.82754421,10.7128506 5.85252407,10.107614 5.95816646,9.32580743 C6.11403764,8.17228252 6.41610591,7.05270126 6.90682192,5.99204165 C8.64203214,2.24146628 12.3280061,0 18.285127,0 L26.8333333,0 C27.4776655,0 28,0.525578772 28,1.17391304 L28,10.5652174 C28,11.2135517 27.4776655,11.7391304 26.8333333,11.7391304 L20.464062,11.7391304 C20.1788524,11.7391304 19.6734877,11.9487516 19.2333287,12.2814931 C18.8691482,12.5567982 18.6666667,12.8366833 18.6666667,12.8172946 L18.6666667,17.6086957 L26.5107046,17.6086957 C27.1883006,17.6086957 27.7233615,18.1875723 27.6743104,18.8675881 C27.567729,20.3451701 27.4198974,21.9107323 27.2412648,23.5191063 C27.1070842,24.7272425 26.9633574,25.8899654 26.8195875,26.9654332 C26.7692218,27.3421925 26.7224209,27.681318 26.6803723,27.97756 C26.6550241,28.1561444 26.636809,28.281303 26.6269149,28.3477796 C26.5413675,28.9225569 26.0507149,29.3478261 25.4731153,29.3478261 L18.6666667,29.3478261 L18.6666667,52.826087 C18.6666667,53.4744212 18.1443322,54 17.5,54 L7,54 C6.35566779,54 5.83333333,53.4744212 5.83333333,52.826087 L5.83333333,29.3478261 L1.16666667,29.3478261 C0.522334459,29.3478261 0,28.8222473 0,28.173913 L0,18.7826087 C0,18.1342744 0.522334459,17.6086957 1.16666667,17.6086957 L5.83333333,17.6086957 L5.83333333,11.6322567 Z" id="path-1"></path>
    </defs>
    <g id="icon/social/facebook" stroke="none" stroke-width="1" fill="none" fill-rule="evenodd">
        <g id="fill/licorice" transform="translate(13.000000, 0.000000)">
            <mask id="mask-2" fill="white">
                <use xlink:href="#path-1"></use>
            </mask>
            <use id="Mask" fill="#000000" fill-rule="nonzero" xlink:href="#path-1"></use>
            <g mask="url(#mask-2)" fill="#131515" id="Rectangle">
                <g transform="translate(-13.000000, 0.000000)">
                    <rect x="0" y="0" width="54" height="54"></rect>
                </g>
            </g>
        </g>
    </g>
</svg>