<svg viewBox="0 0 55 54" xmlns="http://www.w3.org/2000/svg" xmlns:xlink="http://www.w3.org/1999/xlink">
  <path d="M27.5 0C12.336 0 0 12.255 0 27.319c0 12.694 9.052 23.904 21.523 26.654.34.07.692-.01.965-.223.27-.217.429-.542.429-.888v-6.193c0-.628-.514-1.138-1.146-1.138h-2.292c-2.86 0-4.805-2.693-6.524-5.067-.177-.244-.35-.488-.527-.724.813.428 1.512.944 2.202 1.452 1.373 1.01 2.794 2.056 4.682 2.056h.023c.146.016 1.485.152 2.52-.751.486-.426 1.062-1.23 1.062-2.657v-.795c0-.51-.34-.956-.835-1.095-6.354-1.787-10.624-6.518-10.624-11.77 0-2.731 1.13-5.338 3.266-7.54.33-.339.415-.842.215-1.27-.852-1.826-.671-4.31.34-5.8 1.338.516 3.073 1.602 4.2 2.932.31.366.818.498 1.27.334 4.297-1.566 9.208-1.566 13.505 0 .456.164.962.03 1.27-.334 1.127-1.33 2.861-2.416 4.197-2.935 1.013 1.491 1.194 3.977.34 5.803-.2.428-.115.931.215 1.27 2.136 2.202 3.266 4.809 3.266 7.54 0 5.514-4.744 10.452-11.534 12.007-.346.08-.637.314-.784.635a1.13 1.13 0 0 0 .03 1.004c.566 1.07.83 2.52.83 4.567v8.469c0 .346.157.671.428.888a1.15 1.15 0 0 0 .965.223C45.947 51.223 55 40.013 55 27.319 55 12.255 42.664 0 27.5 0z" id="a"/>
</svg>
