<svg viewBox="0 0 54 54" xmlns="http://www.w3.org/2000/svg" xmlns:xlink="http://www.w3.org/1999/xlink">
  <path d="M0 28.265L4.347 11.25l7.933 2.005L7.84 30.269 0 28.265zm41.434 2.029c.281.646.42 1.346.349 2.048-.178 1.865-1.571 3.258-3.279 3.604a4.099 4.099 0 0 1-2.891 2.255 4.17 4.17 0 0 1-2.916 2.272c-.731 1.503-2.183 2.277-3.767 2.277-1.16 0-2.258-.412-3.05-1.21-2.088.909-4.28-.108-5.022-1.942a3.691 3.691 0 0 1-2.998-2.243 3.739 3.739 0 0 1-3.014-2.257 3.664 3.664 0 0 1-2.696-5.614c-.524-.13-1.111-.234-1.69-.342l.862-3.294c1.179.225 2.273.493 3.27.806 2.053-1.474 4.839-.664 5.734 1.527a3.687 3.687 0 0 1 3.002 2.25 3.686 3.686 0 0 1 3.004 2.246c1.66.184 3.06 1.469 3.26 3.226l.005.507 1.012.904c.567.655 1.53.729 2.16.239.644-.502.729-1.404.169-2.046l-3.279-2.877c-.353-.313.117-.856.48-.543l3.354 2.943c.579.662 1.557.747 2.18.257.642-.495.712-1.42.154-2.061l-4.266-3.663c-.365-.304.108-.855.468-.545l4.374 3.755c.558.635 1.525.754 2.175.257.637-.495.786-1.364-.004-2.239-2.79-2.502-6.01-5.411-9.322-8.54-.799 1.097-4.896 3.379-7.377 3.379-2.482 0-4.003-1.519-4.41-3.022-.354-1.31.114-2.563 1.197-3.195 1.203-.704 2.373-1.712 3.514-2.853-1.775-1.318-2.707-.895-4.65.03-1.133.535-2.476 1.172-4.172 1.455l.983-3.758c2.986-1.098 5.735-3.618 10.136-.186l1.105-1.242c.889-1.006 2.05-1.609 3.382-1.609.98 0 2.047.362 3.168.938 3.415 1.784 5.159 2.826 7.746 2.912l.887 3.393h-.018c-4.043.074-6.021-1.143-10.161-3.308-1.154-.591-1.933-.715-2.475-.099-2.214 2.52-4.57 5.196-7.182 6.892 1.29 1.03 4.543-1.03 5.832-2.07.563-.452 1.435-1.053 2.538-1.053 1.244 0 2.149.745 2.799 1.393 1.53 1.53 5.782 5.375 7.666 7.07a22.639 22.639 0 0 1 2.95-1.362l.861 3.3a22.16 22.16 0 0 0-2.137 1.038zM16.6 32.263l1.37-1.681c.562-.675.483-1.625-.18-2.124-.666-.502-1.659-.355-2.219.315L14.2 30.458c-.565.67-.482 1.623.18 2.12.661.497 1.658.357 2.22-.315zm2.988 2.263l1.388-1.699c.558-.668.479-1.624-.185-2.121-.661-.497-1.651-.358-2.214.32l-1.386 1.696c-.564.675-.472 1.602.194 2.106.668.5 1.64.375 2.203-.302zm3.021 2.232l1.368-1.68c.565-.673.484-1.623-.18-2.125-.666-.499-1.653-.353-2.218.32l-1.37 1.676c-.565.675-.48 1.63.184 2.127.66.497 1.652.36 2.216-.318zm4.197-1.555c-.662-.504-1.654-.357-2.221.313l-1.377 1.69c-.56.673-.48 1.624.184 2.122.664.497 1.654.36 2.219-.32l1.372-1.687c.57-.668.488-1.62-.178-2.117zm3.21 2.552l-.54-.477a3.692 3.692 0 0 1-.747 1.462l-.805.993c.299.238.648.396 1.008.396.335 0 .663-.104.933-.31.64-.503.714-1.423.151-2.064zm11.702-24.5l4.442 17.014L54 28.265 49.653 11.25l-7.934 2.005zM23.812 0l1.168 6.646-2.215.392L21.593.391 23.812 0zm8.595.392l-1.172 6.646-2.217-.392L30.19 0l2.217.392zM40.5 3.154L37.125 9l-1.95-1.125 3.374-5.845L40.5 3.155zM15.45 2.03l3.376 5.845L16.875 9 13.5 3.155l1.95-1.125zm9.532 45.323L23.812 54l-2.216-.392 1.172-6.646 2.214.391zm6.253-.391l1.172 6.646L30.19 54l-1.173-6.647 2.216-.391zM37.124 45l3.375 5.846-1.95 1.125-3.376-5.846L37.125 45zm-18.3 1.125l-3.374 5.846-1.951-1.125L16.875 45l1.95 1.125z" id="a"/>
</svg>
