<svg viewBox="0 0 54 54" xmlns="http://www.w3.org/2000/svg" xmlns:xlink="http://www.w3.org/1999/xlink">
  <path d="M18.002 27a9 9 0 1 1 18 0 9 9 0 0 1-18 0m-4.866 0c0 7.657 6.208 13.864 13.865 13.864 7.658 0 13.865-6.207 13.865-13.864 0-7.657-6.207-13.864-13.865-13.864-7.657 0-13.864 6.206-13.864 13.864m25.038-14.414a3.24 3.24 0 1 0 3.241-3.239h-.001a3.242 3.242 0 0 0-3.24 3.24m-22.082 36.39c-2.633-.12-4.064-.558-5.015-.928-1.26-.491-2.16-1.075-3.105-2.02-.946-.944-1.531-1.843-2.02-3.103-.37-.95-.81-2.382-.929-5.014-.13-2.846-.157-3.701-.157-10.912 0-7.21.028-8.062.157-10.91.12-2.633.562-4.062.929-5.015.49-1.26 1.075-2.16 2.02-3.105.944-.946 1.843-1.531 3.105-2.02.95-.37 2.382-.81 5.015-.929 2.846-.13 3.7-.157 10.908-.157 7.207 0 8.063.028 10.912.158 2.632.12 4.06.561 5.014.928 1.26.489 2.16 1.076 3.106 2.02.945.944 1.529 1.845 2.02 3.106.37.95.809 2.381.928 5.014.131 2.848.157 3.7.157 10.91 0 7.211-.026 8.064-.157 10.912-.12 2.632-.56 4.063-.929 5.014-.49 1.26-1.075 2.16-2.02 3.104-.944.943-1.844 1.528-3.105 2.02-.95.37-2.382.808-5.014.928-2.846.13-3.701.157-10.912.157-7.21 0-8.063-.026-10.908-.157M15.869.164c-2.874.13-4.839.586-6.554 1.254-1.775.689-3.28 1.614-4.783 3.114-1.503 1.5-2.425 3.005-3.114 4.783C.75 11.03.294 12.995.164 15.868.03 18.748 0 19.668 0 27s.03 8.253.164 11.132c.13 2.874.586 4.837 1.254 6.553.689 1.776 1.612 3.283 3.114 4.783 1.503 1.5 3.006 2.423 4.783 3.114 1.719.668 3.68 1.124 6.554 1.254 2.88.131 3.8.164 11.132.164 7.333 0 8.253-.03 11.132-.164 2.875-.13 4.838-.586 6.554-1.254 1.775-.69 3.28-1.614 4.783-3.114 1.503-1.5 2.423-3.007 3.114-4.783.668-1.716 1.126-3.68 1.255-6.553.13-2.881.161-3.8.161-11.132s-.03-8.253-.161-11.132c-.131-2.874-.587-4.838-1.255-6.553-.69-1.776-1.614-3.28-3.114-4.783-1.5-1.503-3.008-2.425-4.78-3.114C42.97.75 41.007.292 38.134.164 35.255.032 34.335 0 27.005 0 19.672 0 18.75.03 15.87.164"/>
</svg>
