<?xml version="1.0" encoding="UTF-8"?>
<svg width="54px" height="54px" viewBox="0 0 54 54" version="1.1" xmlns="http://www.w3.org/2000/svg" xmlns:xlink="http://www.w3.org/1999/xlink">
    <!-- Generator: Sketch 52.3 (67297) - http://www.bohemiancoding.com/sketch -->
    <title>icon/location-marker</title>
    <desc>Created with Sketch.</desc>
    <defs>
        <path d="M43,21.6 C43,28.7809093 39.0707079,36.3277302 32.5531174,43.8385622 C30.2968474,46.4386743 27.8825477,48.8499354 25.4679145,51.0141866 C24.6221869,51.7722178 23.8361356,52.4457917 23.1295057,53.027446 C22.7024543,53.3789685 22.3945521,53.6234033 22.2255654,53.7532294 C21.7981098,54.0816276 21.2048557,54.0823202 20.7766416,53.7549209 C20.6075505,53.625639 20.2995434,53.3822207 19.8723863,53.0320763 C19.1656336,52.4527449 18.3794597,51.7816347 17.5336094,51.0260971 C15.1186628,48.8689981 12.704061,46.4636781 10.4475065,43.8674057 C3.92962522,36.3682756 0,28.8135577 0,21.6 C0,9.67064946 9.62587793,-2.13162821e-14 21.5,-2.13162821e-14 C33.3741221,-2.13162821e-14 43,9.67064946 43,21.6 Z M21.5,30 C26.1177142,30 29.8611111,26.2391919 29.8611111,21.6 C29.8611111,16.9608081 26.1177142,13.2 21.5,13.2 C16.8822858,13.2 13.1388889,16.9608081 13.1388889,21.6 C13.1388889,26.2391919 16.8822858,30 21.5,30 Z" id="path-1"></path>
    </defs>
    <g id="icon/location-marker" stroke="none" stroke-width="1" fill="none" fill-rule="evenodd">
        <g id="fill/licorice" transform="translate(6.000000, 0.000000)">
            <mask id="mask-2" fill="white">
                <use xlink:href="#path-1"></use>
            </mask>
            <use id="Mask" fill="#000000" fill-rule="nonzero" xlink:href="#path-1"></use>
            <g mask="url(#mask-2)" fill="#131515" id="Rectangle">
                <g transform="translate(-6.000000, 0.000000)">
                    <rect x="0" y="0" width="54" height="54"></rect>
                </g>
            </g>
        </g>
    </g>
</svg>