<svg viewBox="0 0 54 44" xmlns="http://www.w3.org/2000/svg" xmlns:xlink="http://www.w3.org/1999/xlink">
  <path d="M5.974 29.664C4.095 31.66 2.504 32.256 0 31.589l5.956 10.264c.578-2.449 1.833-3.824 4.511-4.444L45 29.055 30.746 4.493 5.974 29.663zm25.47 6.06l-1.051 4.741a2.389 2.389 0 0 1-1.73 1.726l-6.642 1.733a2.387 2.387 0 0 1-2.29-.627l-3.542-3.833 3.611-.884 1.453 1.724c.396.396.973.555 1.517.416l3.596-.951a1.58 1.58 0 0 0 1.15-1.146l.364-2.028 3.564-.871zM51.062 10.5l-6.04 3.611-1.7-2.825 6.043-3.609 1.697 2.823zM41.17 7.902l-3.003-1.379L41.187 0l3.003 1.381-3.02 6.521zm12.643 13.783l-7.204-.39.182-3.288L54 18.4l-.187 3.286z" id="a"/>
</svg>
