<svg viewBox="0 0 54 44" xmlns="http://www.w3.org/2000/svg" xmlns:xlink="http://www.w3.org/1999/xlink">
  <path d="M53.693 5.36a1.18 1.18 0 0 0-1.404-.247c-.293.149-.845.344-1.5.538.827-1.09 1.491-2.31 1.784-3.408A1.16 1.16 0 0 0 52.111.99a1.184 1.184 0 0 0-1.345 0c-.637.44-3.708 1.763-5.65 2.192-4.387-3.813-9.494-4.209-14.802-1.135-4.315 2.5-5.254 7.582-5.071 10.68-9.877-.944-16.017-6.12-19.473-10.402a1.205 1.205 0 0 0-.998-.436c-.385.028-.732.24-.93.568C2.21 5.194 1.756 8.22 2.538 11.208a12.404 12.404 0 0 0 2.04 4.232 6.402 6.402 0 0 1-1.195-.76 1.187 1.187 0 0 0-1.244-.148c-.408.193-.669.603-.669 1.052 0 5.132 3.235 8.555 6.257 10.344a8.831 8.831 0 0 1-1.512-.321c-.442-.133-.92 0-1.226.344A1.154 1.154 0 0 0 4.8 27.2c1.698 3.724 4.914 6.286 8.894 7.216-3.475 2.024-8.126 3.016-12.385 2.529a1.164 1.164 0 0 0-.711 2.17C7.059 42.716 12.9 44 17.948 44c7.346 0 13.016-2.72 16.468-4.996C43.72 32.878 49.519 21.88 48.71 12.039c1.491-1.092 3.722-3.109 5.104-5.277a1.144 1.144 0 0 0-.122-1.403z" id="a"/>
</svg>
