<svg viewBox="0 0 54 54" xmlns="http://www.w3.org/2000/svg" xmlns:xlink="http://www.w3.org/1999/xlink">
  <path d="M40.493 48H13.504l-.004-1.394c0-2.818.225-4.445 3.573-5.215 3.789-.87 7.524-1.647 5.726-4.944-5.323-9.765-1.516-15.304 4.199-15.304 5.604 0 9.508 5.333 4.198 15.306-1.744 3.277 1.859 4.056 5.726 4.944 3.353.77 3.576 2.4 3.576 5.222L40.493 48zm10.825-4.955c2.516.577 2.682 1.802 2.682 3.919L53.995 48H43.868c.05-10.98-5.053-6.206-5.053-14.942 0-3.372 2.212-5.2 5.058-5.2 4.205 0 7.13 3.999 3.15 11.478-1.308 2.458 1.392 3.042 4.295 3.709zM.005 48L0 46.964c0-2.117.167-3.342 2.684-3.92 2.903-.666 5.603-1.248 4.295-3.708-3.982-7.48-1.057-11.479 3.148-11.479 2.846 0 5.058 1.829 5.058 5.201 0 8.738-5.1 3.962-5.053 14.942H.005zM23.28 5l1.363 8.264-2.583.487-1.368-8.264L23.28 5zm10.028.487L31.94 13.75l-2.585-.487L30.722 5l2.586.487zm9.442 3.435l-3.938 7.268-2.275-1.398 3.937-7.269 2.276 1.4zM13.526 7.523l3.937 7.269-2.276 1.398-3.937-7.268 2.276-1.399z" id="a"/>
</svg>
