<?xml version="1.0" standalone="no"?>
<!DOCTYPE svg PUBLIC "-//W3C//DTD SVG 20010904//EN"
 "http://www.w3.org/TR/2001/REC-SVG-20010904/DTD/svg10.dtd">
<svg version="1.0" xmlns="http://www.w3.org/2000/svg"
 width="500.000000pt" height="500.000000pt" viewBox="0 0 500.000000 500.000000"
 preserveAspectRatio="xMidYMid meet">
<metadata>
Created by potrace 1.11, written by Peter Selinger 2001-2013
</metadata>
<g transform="translate(0.000000,500.000000) scale(0.100000,-0.100000)"
fill="#000000" stroke="none">
<path d="M2328 4995 c-2 -1 -37 -5 -78 -9 -302 -26 -647 -131 -929 -282 -567
-304 -1012 -837 -1201 -1439 -80 -256 -110 -443 -114 -715 -5 -326 29 -556
124 -840 57 -169 58 -173 136 -327 79 -155 170 -301 273 -433 71 -91 300 -327
366 -375 22 -17 49 -38 60 -48 45 -42 278 -190 387 -246 135 -70 347 -157 428
-176 8 -2 58 -15 110 -28 101 -27 106 -28 270 -54 113 -17 442 -24 583 -11
231 22 420 69 722 181 59 22 228 108 328 168 179 108 391 279 530 428 135 144
287 356 372 516 20 39 40 75 44 80 12 16 100 230 127 309 24 68 77 269 89 331
13 74 25 155 32 220 12 109 9 449 -6 560 -14 105 -15 110 -31 190 -6 28 -12
59 -14 71 -12 62 -73 254 -113 354 -86 219 -227 462 -374 645 -62 78 -243 265
-324 335 -217 188 -543 373 -815 464 -194 64 -291 87 -495 117 -70 10 -478 22
-487 14z"/>
</g>
</svg>
