<?xml version="1.0" encoding="UTF-8"?>
<svg width="208px" height="54px" viewBox="0 0 208 54" version="1.1" xmlns="http://www.w3.org/2000/svg" xmlns:xlink="http://www.w3.org/1999/xlink">
    <!-- Generator: Sketch 52.3 (67297) - http://www.bohemiancoding.com/sketch -->
    <title>kirigami-logo</title>
    <desc>Created with Sketch.</desc>
    <g id="kirigami-logo" stroke="none" stroke-width="1" fill="none" fill-rule="evenodd">
        <path d="M27.6136933,42.6802139 L17.8302254,42.6802139 L8.45198998,28.2994652 L8.45198998,42.6802139 L5.68434189e-14,42.6802139 L5.68434189e-14,7.05594151 C5.65575921e-14,4.72198893 1.8920424,2.82994652 4.22599499,2.82994652 L4.22599499,2.82994652 C6.55994758,2.82994652 8.45198998,4.72198893 8.45198998,7.05594151 L8.45198998,26.5090909 L17.7144448,13.3989305 L27.4400223,13.3989305 L17.251322,27.4331551 L27.6136933,42.6802139 Z M32.0133593,42.6802139 L32.0133593,13.3989305 L40.4653493,13.3989305 L40.4653493,42.6802139 L32.0133593,42.6802139 Z M56.0957417,13.3989305 L56.0957417,18.8278075 C56.6360543,17.1336814 57.5333456,15.7764757 58.7876426,14.7561497 C60.0419397,13.7358238 61.498832,13.2256684 63.1583635,13.2256684 C64.0846136,13.2256684 64.8178839,13.302673 65.3581965,13.4566845 L65.3581965,21.426738 C64.4319464,21.0032064 63.3706341,20.7914439 62.1742277,20.7914439 C60.3603212,20.7914439 58.8937805,21.4556083 57.7745616,22.7839572 C56.6553428,24.1123061 56.0957417,25.8737858 56.0957417,28.0684492 L56.0957417,42.6802139 L47.6437517,42.6802139 L47.7016421,13.3989305 L56.0957417,13.3989305 Z M69.4105205,42.6802139 L69.4105205,13.3989305 L77.8625104,13.3989305 L77.8625104,42.6802139 L69.4105205,42.6802139 Z M98.1241303,34.9989305 C99.9380367,34.9989305 101.356336,34.3155149 102.37907,32.9486631 C103.401805,31.5818113 103.913164,29.9358385 103.913164,28.0106952 C103.913164,22.7743054 102.002802,20.1561497 98.1820206,20.1561497 C96.4838954,20.1561497 95.1524308,20.8106886 94.187587,22.1197861 C93.2227431,23.4288836 92.7403284,25.2384911 92.7403284,27.5486631 C92.7403284,29.9743437 93.2034465,31.8224535 94.1296966,33.0930481 C95.0559467,34.3636427 96.3874113,34.9989305 98.1241303,34.9989305 Z M103.913164,13.3989305 L112.307264,13.3989305 L112.307264,39.8502674 C112.307264,44.5476171 110.898613,48.0802021 108.081269,50.4481283 C105.263925,52.8160546 101.732649,54 97.4873365,54 C93.3578048,54 89.7493428,53.2684565 86.6618425,51.8053476 L86.6618425,43.2 C89.3634053,45.3561605 92.6824184,46.4342246 96.6189814,46.4342246 C99.1661692,46.4342246 101.018642,45.8951926 102.176454,44.8171123 C103.334267,43.739032 103.913164,42.0449313 103.913164,39.7347594 L103.913164,37.771123 C102.215039,40.3893179 99.513517,41.6983957 95.8085166,41.6983957 C92.5666412,41.6983957 89.7782842,40.5048248 87.4433621,38.1176471 C85.1084399,35.7304693 83.9409964,32.1882588 83.9409964,27.4909091 C83.9409964,23.3325995 85.0698468,19.8962703 87.3275814,17.1818182 C89.585316,14.4673661 92.5473423,13.1101604 96.213749,13.1101604 C99.6871869,13.1101604 102.253633,14.4962428 103.913164,17.2684492 L103.913164,13.3989305 Z M133.495129,30.6673797 L130.774283,30.6673797 C129.346314,30.6673797 128.246409,30.975398 127.474534,31.5914439 C126.702659,32.2074897 126.316727,32.9967866 126.316727,33.9593583 C126.316727,35.9230045 127.455226,36.9048128 129.732257,36.9048128 C130.928664,36.9048128 131.8549,36.5390411 132.510994,35.8074866 C133.167087,35.0759322 133.495129,34.0748727 133.495129,32.8042781 L133.495129,30.6673797 Z M119.775118,22.4085561 L119.775118,14.8427807 C122.090744,13.5336833 125.429053,12.8791444 129.790148,12.8791444 C133.958273,12.8791444 137.065024,13.7743226 139.110493,15.5647059 C141.155962,17.3550892 142.178681,20.1368795 142.178681,23.9101604 L142.178681,42.6802139 L133.900362,42.6802139 L133.900362,39.0994652 C132.665362,41.6021516 130.233992,42.8534759 126.606179,42.8534759 C123.750241,42.8534759 121.521485,42.0449279 119.919844,40.4278075 C118.318203,38.8106871 117.517395,36.7893169 117.517395,34.3636364 C117.517395,31.5529271 118.549762,29.3679222 120.614528,27.8085561 C122.679294,26.2491901 125.737803,25.4695187 129.790148,25.4695187 L133.495129,25.4695187 L133.495129,23.4481283 C133.495129,20.9839449 131.854919,19.7518717 128.57445,19.7518717 C125.409762,19.7518717 122.476681,20.6374243 119.775118,22.4085561 Z M157.28806,13.3989305 L157.28806,17.9614973 C158.908998,14.7272566 161.66841,13.1101604 165.566379,13.1101604 C169.695911,13.1101604 172.436026,14.9582703 173.786808,18.6545455 C174.442902,16.9219165 175.542807,15.5647108 177.086557,14.5828877 C178.630307,13.6010646 180.444187,13.1101604 182.528249,13.1101604 C185.422781,13.1101604 187.709427,14.0245898 189.388255,15.8534759 C191.067083,17.6823621 191.906485,20.3678967 191.906485,23.9101604 L191.906485,42.6802139 L183.454495,42.6802139 L183.454495,25.2962567 C183.454495,23.6406334 183.126453,22.3315556 182.470359,21.368984 C181.814265,20.4064123 180.868732,19.9251337 179.633732,19.9251337 C178.321545,19.9251337 177.154101,20.4545402 176.131367,21.513369 C175.108632,22.5721978 174.597272,24.4684355 174.597272,27.202139 L174.597272,42.6802139 L166.145282,42.6802139 L166.145282,25.2962567 C166.145282,23.6406334 165.817241,22.3315556 165.161147,21.368984 C164.505053,20.4064123 163.55952,19.9251337 162.32452,19.9251337 C161.012332,19.9251337 159.844889,20.4545402 158.822154,21.513369 C157.79942,22.5721978 157.28806,24.4684355 157.28806,27.202139 L157.28806,42.6802139 L148.83607,42.6802139 L148.83607,13.3989305 L157.28806,13.3989305 Z M198.853326,42.6802139 L198.853326,13.3989305 L207.305316,13.3989305 L207.305316,42.6802139 L198.853326,42.6802139 Z M198.158642,4.90909091 C198.158642,3.56149059 198.641056,2.40642193 199.6059,1.44385027 C200.570744,0.48127861 201.728539,1.42108547e-14 203.079321,1.42108547e-14 C204.430102,1.42108547e-14 205.587898,0.48127861 206.552741,1.44385027 C207.517585,2.40642193 208,3.56149059 208,4.90909091 C208,6.25669123 207.517585,7.41175989 206.552741,8.37433155 C205.587898,9.33690321 204.430102,9.81818182 203.079321,9.81818182 C201.728539,9.81818182 200.570744,9.33690321 199.6059,8.37433155 C198.641056,7.41175989 198.158642,6.25669123 198.158642,4.90909091 Z" id="logotype" fill="#FF6868"></path>
    </g>
</svg>