<?xml version="1.0" encoding="UTF-8"?>
<svg width="1036px" height="179px" viewBox="0 0 1036 179" version="1.1" xmlns="http://www.w3.org/2000/svg" xmlns:xlink="http://www.w3.org/1999/xlink">
    <!-- Generator: Sketch 52.6 (67491) - http://www.bohemiancoding.com/sketch -->
    <title>Combined Shape</title>
    <desc>Created with Sketch.</desc>
    <g id="Symbols" stroke="none" stroke-width="1" fill="none" fill-rule="evenodd">
        <g id="tile/arrow" transform="translate(3.000000, 3.000000)" fill="#EF3E36" fill-rule="nonzero" stroke="#EF3E36" stroke-width="6">
            <path d="M1.21008606,5.92106574 C-0.234008449,4.72004682 -0.41067995,2.59976125 0.815479217,1.18527537 C2.04163838,-0.229210516 4.20630669,-0.402259678 5.6504012,0.798759245 L31.9094055,22.6377461 C33.5227605,23.979535 33.5227605,26.4182638 31.9094055,27.7600526 L5.6504012,49.5990395 C4.20630669,50.8000584 2.04163838,50.6270093 0.815479217,49.2125234 C-0.41067995,47.7980375 -0.234008449,45.6777519 1.21008606,44.476733 L24.3895824,25.1988994 L1.21008606,5.92106574 Z M106.328251,5.92106574 C104.884156,4.72004682 104.707485,2.59976125 105.933644,1.18527537 C107.159803,-0.229210516 109.324471,-0.402259678 110.768566,0.798759245 L137.02757,22.6377461 C138.640925,23.979535 138.640925,26.4182638 137.02757,27.7600526 L110.768566,49.5990395 C109.324471,50.8000584 107.159803,50.6270093 105.933644,49.2125234 C104.707485,47.7980375 104.884156,45.6777519 106.328251,44.476733 L129.507747,25.1988994 L106.328251,5.92106574 Z M211.446415,5.92106574 C210.002321,4.72004682 209.825649,2.59976125 211.051809,1.18527537 C212.277968,-0.229210516 214.442636,-0.402259678 215.886731,0.798759245 L242.145735,22.6377461 C243.75909,23.979535 243.75909,26.4182638 242.145735,27.7600526 L215.886731,49.5990395 C214.442636,50.8000584 212.277968,50.6270093 211.051809,49.2125234 C209.825649,47.7980375 210.002321,45.6777519 211.446415,44.476733 L234.625912,25.1988994 L211.446415,5.92106574 Z M316.56458,5.92106574 C315.120486,4.72004682 314.943814,2.59976125 316.169973,1.18527537 C317.396132,-0.229210516 319.560801,-0.402259678 321.004895,0.798759245 L347.2639,22.6377461 C348.877255,23.979535 348.877255,26.4182638 347.2639,27.7600526 L321.004895,49.5990395 C319.560801,50.8000584 317.396132,50.6270093 316.169973,49.2125234 C314.943814,47.7980375 315.120486,45.6777519 316.56458,44.476733 L339.744076,25.1988994 L316.56458,5.92106574 Z M421.682745,5.92106574 C420.23865,4.72004682 420.061979,2.59976125 421.288138,1.18527537 C422.514297,-0.229210516 424.678965,-0.402259678 426.12306,0.798759245 L452.382064,22.6377461 C453.995419,23.979535 453.995419,26.4182638 452.382064,27.7600526 L426.12306,49.5990395 C424.678965,50.8000584 422.514297,50.6270093 421.288138,49.2125234 C420.061979,47.7980375 420.23865,45.6777519 421.682745,44.476733 L444.862241,25.1988994 L421.682745,5.92106574 Z M526.800909,5.92106574 C525.356815,4.72004682 525.180143,2.59976125 526.406303,1.18527537 C527.632462,-0.229210516 529.79713,-0.402259678 531.241225,0.798759245 L557.500229,22.6377461 C559.113584,23.979535 559.113584,26.4182638 557.500229,27.7600526 L531.241225,49.5990395 C529.79713,50.8000584 527.632462,50.6270093 526.406303,49.2125234 C525.180143,47.7980375 525.356815,45.6777519 526.800909,44.476733 L549.980406,25.1988994 L526.800909,5.92106574 Z M631.919074,5.92106574 C630.47498,4.72004682 630.298308,2.59976125 631.524467,1.18527537 C632.750626,-0.229210516 634.915295,-0.402259678 636.359389,0.798759245 L662.618394,22.6377461 C664.231749,23.979535 664.231749,26.4182638 662.618394,27.7600526 L636.359389,49.5990395 C634.915295,50.8000584 632.750626,50.6270093 631.524467,49.2125234 C630.298308,47.7980375 630.47498,45.6777519 631.919074,44.476733 L655.09857,25.1988994 L631.919074,5.92106574 Z M737.037239,5.92106574 C735.593144,4.72004682 735.416473,2.59976125 736.642632,1.18527537 C737.868791,-0.229210516 740.033459,-0.402259678 741.477554,0.798759245 L767.736558,22.6377461 C769.349913,23.979535 769.349913,26.4182638 767.736558,27.7600526 L741.477554,49.5990395 C740.033459,50.8000584 737.868791,50.6270093 736.642632,49.2125234 C735.416473,47.7980375 735.593144,45.6777519 737.037239,44.476733 L760.216735,25.1988994 L737.037239,5.92106574 Z M842.155403,5.92106574 C840.711309,4.72004682 840.534637,2.59976125 841.760797,1.18527537 C842.986956,-0.229210516 845.151624,-0.402259678 846.595719,0.798759245 L872.854723,22.6377461 C874.468078,23.979535 874.468078,26.4182638 872.854723,27.7600526 L846.595719,49.5990395 C845.151624,50.8000584 842.986956,50.6270093 841.760797,49.2125234 C840.534637,47.7980375 840.711309,45.6777519 842.155403,44.476733 L865.3349,25.1988994 L842.155403,5.92106574 Z M947.273568,5.92106574 C945.829474,4.72004682 945.652802,2.59976125 946.878961,1.18527537 C948.10512,-0.229210516 950.269789,-0.402259678 951.713883,0.798759245 L977.972888,22.6377461 C979.586243,23.979535 979.586243,26.4182638 977.972888,27.7600526 L951.713883,49.5990395 C950.269789,50.8000584 948.10512,50.6270093 946.878961,49.2125234 C945.652802,47.7980375 945.829474,45.6777519 947.273568,44.476733 L970.453064,25.1988994 L947.273568,5.92106574 Z M1028.37194,128.31572 L1005.19244,147.593553 L1028.37194,166.871387 C1029.81603,168.072406 1029.9927,170.192692 1028.76654,171.607177 C1027.54039,173.021663 1025.37572,173.194713 1023.93162,171.993694 L997.672618,150.154707 C996.059263,148.812918 996.059263,146.374189 997.672618,145.0324 L1023.93162,123.193413 C1025.37572,121.992394 1027.54039,122.165444 1028.76654,123.579929 C1029.9927,124.994415 1029.81603,127.114701 1028.37194,128.31572 Z M923.253773,128.31572 L900.074277,147.593553 L923.253773,166.871387 C924.697868,168.072406 924.874539,170.192692 923.64838,171.607177 C922.422221,173.021663 920.257553,173.194713 918.813458,171.993694 L892.554454,150.154707 C890.941099,148.812918 890.941099,146.374189 892.554454,145.0324 L918.813458,123.193413 C920.257553,121.992394 922.422221,122.165444 923.64838,123.579929 C924.874539,124.994415 924.697868,127.114701 923.253773,128.31572 Z M818.135608,128.31572 L794.956112,147.593553 L818.135608,166.871387 C819.579703,168.072406 819.756374,170.192692 818.530215,171.607177 C817.304056,173.021663 815.139388,173.194713 813.695293,171.993694 L787.436289,150.154707 C785.822934,148.812918 785.822934,146.374189 787.436289,145.0324 L813.695293,123.193413 C815.139388,121.992394 817.304056,122.165444 818.530215,123.579929 C819.756374,124.994415 819.579703,127.114701 818.135608,128.31572 Z M713.017444,128.31572 L689.837947,147.593553 L713.017444,166.871387 C714.461538,168.072406 714.63821,170.192692 713.412051,171.607177 C712.185891,173.021663 710.021223,173.194713 708.577129,171.993694 L682.318124,150.154707 C680.704769,148.812918 680.704769,146.374189 682.318124,145.0324 L708.577129,123.193413 C710.021223,121.992394 712.185891,122.165444 713.412051,123.579929 C714.63821,124.994415 714.461538,127.114701 713.017444,128.31572 Z M607.899279,128.31572 L584.719783,147.593553 L607.899279,166.871387 C609.343374,168.072406 609.520045,170.192692 608.293886,171.607177 C607.067727,173.021663 604.903058,173.194713 603.458964,171.993694 L577.19996,150.154707 C575.586605,148.812918 575.586605,146.374189 577.19996,145.0324 L603.458964,123.193413 C604.903058,121.992394 607.067727,122.165444 608.293886,123.579929 C609.520045,124.994415 609.343374,127.114701 607.899279,128.31572 Z M502.781114,128.31572 L479.601618,147.593553 L502.781114,166.871387 C504.225209,168.072406 504.40188,170.192692 503.175721,171.607177 C501.949562,173.021663 499.784894,173.194713 498.340799,171.993694 L472.081795,150.154707 C470.46844,148.812918 470.46844,146.374189 472.081795,145.0324 L498.340799,123.193413 C499.784894,121.992394 501.949562,122.165444 503.175721,123.579929 C504.40188,124.994415 504.225209,127.114701 502.781114,128.31572 Z M397.66295,128.31572 L374.483453,147.593553 L397.66295,166.871387 C399.107044,168.072406 399.283716,170.192692 398.057557,171.607177 C396.831397,173.021663 394.666729,173.194713 393.222635,171.993694 L366.96363,150.154707 C365.350275,148.812918 365.350275,146.374189 366.96363,145.0324 L393.222635,123.193413 C394.666729,121.992394 396.831397,122.165444 398.057557,123.579929 C399.283716,124.994415 399.107044,127.114701 397.66295,128.31572 Z M292.544785,128.31572 L269.365289,147.593553 L292.544785,166.871387 C293.98888,168.072406 294.165551,170.192692 292.939392,171.607177 C291.713233,173.021663 289.548564,173.194713 288.10447,171.993694 L261.845466,150.154707 C260.232111,148.812918 260.232111,146.374189 261.845466,145.0324 L288.10447,123.193413 C289.548564,121.992394 291.713233,122.165444 292.939392,123.579929 C294.165551,124.994415 293.98888,127.114701 292.544785,128.31572 Z M187.42662,128.31572 L164.247124,147.593553 L187.42662,166.871387 C188.870715,168.072406 189.047386,170.192692 187.821227,171.607177 C186.595068,173.021663 184.4304,173.194713 182.986305,171.993694 L156.727301,150.154707 C155.113946,148.812918 155.113946,146.374189 156.727301,145.0324 L182.986305,123.193413 C184.4304,121.992394 186.595068,122.165444 187.821227,123.579929 C189.047386,124.994415 188.870715,127.114701 187.42662,128.31572 Z M82.3084557,128.31572 L59.1289594,147.593553 L82.3084557,166.871387 C83.7525502,168.072406 83.9292217,170.192692 82.7030626,171.607177 C81.4769034,173.021663 79.3122351,173.194713 77.8681406,171.993694 L51.6091363,150.154707 C49.9957813,148.812918 49.9957813,146.374189 51.6091363,145.0324 L77.8681406,123.193413 C79.3122351,121.992394 81.4769034,122.165444 82.7030626,123.579929 C83.9292217,124.994415 83.7525502,127.114701 82.3084557,128.31572 Z" id="Combined-Shape"></path>
        </g>
    </g>
</svg>