<?xml version="1.0" encoding="UTF-8"?>
<svg width="626px" height="688px" viewBox="0 0 626 688" version="1.1" xmlns="http://www.w3.org/2000/svg" xmlns:xlink="http://www.w3.org/1999/xlink">
    <!-- Generator: Sketch 52.3 (67297) - http://www.bohemiancoding.com/sketch -->
    <title>Combined Shape</title>
    <desc>Created with Sketch.</desc>
    <g id="Style-Guide" stroke="none" stroke-width="1" fill="none" fill-rule="evenodd">
        <g id="Textures-Copy" transform="translate(-957.000000, -56.000000)" fill="#F5B900" fill-rule="nonzero">
            <path d="M1250.61973,234.36676 L1163.73209,64.8139774 L1180.91667,56 L1272.32105,234.36676 L1187.57952,399.731618 L1272.32105,565.096476 L1180.91667,743.463236 L1163.73209,734.649259 L1250.61973,565.096476 L1165.8782,399.731618 L1250.61973,234.36676 Z M1353.98577,234.36676 L1267.09813,64.8139774 L1284.28271,56 L1375.68709,234.36676 L1290.94556,399.731618 L1375.68709,565.096476 L1284.28271,743.463236 L1267.09813,734.649259 L1353.98577,565.096476 L1269.24424,399.731618 L1353.98577,234.36676 Z M1043.88764,234.36676 L957,64.8139774 L974.184581,56 L1065.58896,234.36676 L980.84743,399.731618 L1065.58896,565.096476 L974.184581,743.463236 L957,734.649259 L1043.88764,565.096476 L959.14611,399.731618 L1043.88764,234.36676 Z M1060.36604,64.8139774 L1077.55062,56 L1168.955,234.36676 L1084.21347,399.731618 L1168.955,565.096476 L1077.55062,743.463236 L1060.36604,734.649259 L1147.25368,565.096476 L1062.51215,399.731618 L1147.25368,234.36676 L1060.36604,64.8139774 Z M1457.35181,234.36676 L1370.46417,64.8139774 L1387.64875,56 L1479.05313,234.36676 L1394.3116,399.731618 L1479.05313,565.096476 L1387.64875,743.463236 L1370.46417,734.649259 L1457.35181,565.096476 L1372.61028,399.731618 L1457.35181,234.36676 Z M1560.71785,234.36676 L1473.83021,64.8139774 L1491.01479,56 L1582.41917,234.36676 L1497.67764,399.731618 L1582.41917,565.096476 L1491.01479,743.463236 L1473.83021,734.649259 L1560.71785,565.096476 L1475.97632,399.731618 L1560.71785,234.36676 Z" id="Combined-Shape"></path>
        </g>
    </g>
</svg>