<?xml version="1.0" encoding="UTF-8"?>
<svg width="360px" height="360px" viewBox="0 0 360 360" version="1.1" xmlns="http://www.w3.org/2000/svg" xmlns:xlink="http://www.w3.org/1999/xlink">
    <!-- Generator: Sketch 52.3 (67297) - http://www.bohemiancoding.com/sketch -->
    <title>dot-grid</title>
    <desc>Created with Sketch.</desc>
    <g id="Style-Guide" stroke="none" stroke-width="1" fill="none" fill-rule="evenodd">
        <g id="Textures-Copy" transform="translate(-22.000000, -418.000000)" fill="#0289BD">
            <g id="Oval-3" transform="translate(0.000000, 395.000000)">
                <g transform="translate(22.000000, 23.000000)" id="dot-grid">
                    <path d="M15,30 C6.71572875,30 0,23.2842712 0,15 C0,6.71572875 6.71572875,0 15,0 C23.2842712,0 30,6.71572875 30,15 C30,23.2842712 23.2842712,30 15,30 Z M15,85 C6.71572875,85 0,78.2842712 0,70 C0,61.7157288 6.71572875,55 15,55 C23.2842712,55 30,61.7157288 30,70 C30,78.2842712 23.2842712,85 15,85 Z M15,140 C6.71572875,140 0,133.284271 0,125 C0,116.715729 6.71572875,110 15,110 C23.2842712,110 30,116.715729 30,125 C30,133.284271 23.2842712,140 15,140 Z M15,195 C6.71572875,195 0,188.284271 0,180 C0,171.715729 6.71572875,165 15,165 C23.2842712,165 30,171.715729 30,180 C30,188.284271 23.2842712,195 15,195 Z M15,250 C6.71572875,250 0,243.284271 0,235 C0,226.715729 6.71572875,220 15,220 C23.2842712,220 30,226.715729 30,235 C30,243.284271 23.2842712,250 15,250 Z M15,305 C6.71572875,305 0,298.284271 0,290 C0,281.715729 6.71572875,275 15,275 C23.2842712,275 30,281.715729 30,290 C30,298.284271 23.2842712,305 15,305 Z M15,360 C6.71572875,360 0,353.284271 0,345 C0,336.715729 6.71572875,330 15,330 C23.2842712,330 30,336.715729 30,345 C30,353.284271 23.2842712,360 15,360 Z M70,30 C61.7157288,30 55,23.2842712 55,15 C55,6.71572875 61.7157288,0 70,0 C78.2842712,0 85,6.71572875 85,15 C85,23.2842712 78.2842712,30 70,30 Z M70,85 C61.7157288,85 55,78.2842712 55,70 C55,61.7157288 61.7157288,55 70,55 C78.2842712,55 85,61.7157288 85,70 C85,78.2842712 78.2842712,85 70,85 Z M70,195 C61.7157288,195 55,188.284271 55,180 C55,171.715729 61.7157288,165 70,165 C78.2842712,165 85,171.715729 85,180 C85,188.284271 78.2842712,195 70,195 Z M70,250 C61.7157288,250 55,243.284271 55,235 C55,226.715729 61.7157288,220 70,220 C78.2842712,220 85,226.715729 85,235 C85,243.284271 78.2842712,250 70,250 Z M70,305 C61.7157288,305 55,298.284271 55,290 C55,281.715729 61.7157288,275 70,275 C78.2842712,275 85,281.715729 85,290 C85,298.284271 78.2842712,305 70,305 Z M70,360 C61.7157288,360 55,353.284271 55,345 C55,336.715729 61.7157288,330 70,330 C78.2842712,330 85,336.715729 85,345 C85,353.284271 78.2842712,360 70,360 Z M125,30 C116.715729,30 110,23.2842712 110,15 C110,6.71572875 116.715729,0 125,0 C133.284271,0 140,6.71572875 140,15 C140,23.2842712 133.284271,30 125,30 Z M125,85 C116.715729,85 110,78.2842712 110,70 C110,61.7157288 116.715729,55 125,55 C133.284271,55 140,61.7157288 140,70 C140,78.2842712 133.284271,85 125,85 Z M125,195 C116.715729,195 110,188.284271 110,180 C110,171.715729 116.715729,165 125,165 C133.284271,165 140,171.715729 140,180 C140,188.284271 133.284271,195 125,195 Z M125,250 C116.715729,250 110,243.284271 110,235 C110,226.715729 116.715729,220 125,220 C133.284271,220 140,226.715729 140,235 C140,243.284271 133.284271,250 125,250 Z M125,305 C116.715729,305 110,298.284271 110,290 C110,281.715729 116.715729,275 125,275 C133.284271,275 140,281.715729 140,290 C140,298.284271 133.284271,305 125,305 Z M125,360 C116.715729,360 110,353.284271 110,345 C110,336.715729 116.715729,330 125,330 C133.284271,330 140,336.715729 140,345 C140,353.284271 133.284271,360 125,360 Z M180,30 C171.715729,30 165,23.2842712 165,15 C165,6.71572875 171.715729,0 180,0 C188.284271,0 195,6.71572875 195,15 C195,23.2842712 188.284271,30 180,30 Z M180,85 C171.715729,85 165,78.2842712 165,70 C165,61.7157288 171.715729,55 180,55 C188.284271,55 195,61.7157288 195,70 C195,78.2842712 188.284271,85 180,85 Z M180,195 C171.715729,195 165,188.284271 165,180 C165,171.715729 171.715729,165 180,165 C188.284271,165 195,171.715729 195,180 C195,188.284271 188.284271,195 180,195 Z M180,250 C171.715729,250 165,243.284271 165,235 C165,226.715729 171.715729,220 180,220 C188.284271,220 195,226.715729 195,235 C195,243.284271 188.284271,250 180,250 Z M180,305 C171.715729,305 165,298.284271 165,290 C165,281.715729 171.715729,275 180,275 C188.284271,275 195,281.715729 195,290 C195,298.284271 188.284271,305 180,305 Z M180,360 C171.715729,360 165,353.284271 165,345 C165,336.715729 171.715729,330 180,330 C188.284271,330 195,336.715729 195,345 C195,353.284271 188.284271,360 180,360 Z M235,30 C226.715729,30 220,23.2842712 220,15 C220,6.71572875 226.715729,0 235,0 C243.284271,0 250,6.71572875 250,15 C250,23.2842712 243.284271,30 235,30 Z M235,85 C226.715729,85 220,78.2842712 220,70 C220,61.7157288 226.715729,55 235,55 C243.284271,55 250,61.7157288 250,70 C250,78.2842712 243.284271,85 235,85 Z M235,195 C226.715729,195 220,188.284271 220,180 C220,171.715729 226.715729,165 235,165 C243.284271,165 250,171.715729 250,180 C250,188.284271 243.284271,195 235,195 Z M235,250 C226.715729,250 220,243.284271 220,235 C220,226.715729 226.715729,220 235,220 C243.284271,220 250,226.715729 250,235 C250,243.284271 243.284271,250 235,250 Z M235,305 C226.715729,305 220,298.284271 220,290 C220,281.715729 226.715729,275 235,275 C243.284271,275 250,281.715729 250,290 C250,298.284271 243.284271,305 235,305 Z M235,360 C226.715729,360 220,353.284271 220,345 C220,336.715729 226.715729,330 235,330 C243.284271,330 250,336.715729 250,345 C250,353.284271 243.284271,360 235,360 Z M290,30 C281.715729,30 275,23.2842712 275,15 C275,6.71572875 281.715729,0 290,0 C298.284271,0 305,6.71572875 305,15 C305,23.2842712 298.284271,30 290,30 Z M290,85 C281.715729,85 275,78.2842712 275,70 C275,61.7157288 281.715729,55 290,55 C298.284271,55 305,61.7157288 305,70 C305,78.2842712 298.284271,85 290,85 Z M290,195 C281.715729,195 275,188.284271 275,180 C275,171.715729 281.715729,165 290,165 C298.284271,165 305,171.715729 305,180 C305,188.284271 298.284271,195 290,195 Z M290,250 C281.715729,250 275,243.284271 275,235 C275,226.715729 281.715729,220 290,220 C298.284271,220 305,226.715729 305,235 C305,243.284271 298.284271,250 290,250 Z M290,305 C281.715729,305 275,298.284271 275,290 C275,281.715729 281.715729,275 290,275 C298.284271,275 305,281.715729 305,290 C305,298.284271 298.284271,305 290,305 Z M290,360 C281.715729,360 275,353.284271 275,345 C275,336.715729 281.715729,330 290,330 C298.284271,330 305,336.715729 305,345 C305,353.284271 298.284271,360 290,360 Z M345,30 C336.715729,30 330,23.2842712 330,15 C330,6.71572875 336.715729,0 345,0 C353.284271,0 360,6.71572875 360,15 C360,23.2842712 353.284271,30 345,30 Z M345,85 C336.715729,85 330,78.2842712 330,70 C330,61.7157288 336.715729,55 345,55 C353.284271,55 360,61.7157288 360,70 C360,78.2842712 353.284271,85 345,85 Z M345,195 C336.715729,195 330,188.284271 330,180 C330,171.715729 336.715729,165 345,165 C353.284271,165 360,171.715729 360,180 C360,188.284271 353.284271,195 345,195 Z M345,250 C336.715729,250 330,243.284271 330,235 C330,226.715729 336.715729,220 345,220 C353.284271,220 360,226.715729 360,235 C360,243.284271 353.284271,250 345,250 Z M345,305 C336.715729,305 330,298.284271 330,290 C330,281.715729 336.715729,275 345,275 C353.284271,275 360,281.715729 360,290 C360,298.284271 353.284271,305 345,305 Z M345,360 C336.715729,360 330,353.284271 330,345 C330,336.715729 336.715729,330 345,330 C353.284271,330 360,336.715729 360,345 C360,353.284271 353.284271,360 345,360 Z M70,140 C61.7157288,140 55,133.284271 55,125 C55,116.715729 61.7157288,110 70,110 C78.2842712,110 85,116.715729 85,125 C85,133.284271 78.2842712,140 70,140 Z M125,140 C116.715729,140 110,133.284271 110,125 C110,116.715729 116.715729,110 125,110 C133.284271,110 140,116.715729 140,125 C140,133.284271 133.284271,140 125,140 Z M180,140 C171.715729,140 165,133.284271 165,125 C165,116.715729 171.715729,110 180,110 C188.284271,110 195,116.715729 195,125 C195,133.284271 188.284271,140 180,140 Z M235,140 C226.715729,140 220,133.284271 220,125 C220,116.715729 226.715729,110 235,110 C243.284271,110 250,116.715729 250,125 C250,133.284271 243.284271,140 235,140 Z M290,140 C281.715729,140 275,133.284271 275,125 C275,116.715729 281.715729,110 290,110 C298.284271,110 305,116.715729 305,125 C305,133.284271 298.284271,140 290,140 Z M345,140 C336.715729,140 330,133.284271 330,125 C330,116.715729 336.715729,110 345,110 C353.284271,110 360,116.715729 360,125 C360,133.284271 353.284271,140 345,140 Z"></path>
                </g>
            </g>
        </g>
    </g>
</svg>