<?xml version="1.0" encoding="UTF-8"?>
<svg width="375px" height="392px" viewBox="0 0 375 392" version="1.1" xmlns="http://www.w3.org/2000/svg" xmlns:xlink="http://www.w3.org/1999/xlink">
    <!-- Generator: Sketch 52.3 (67297) - http://www.bohemiancoding.com/sketch -->
    <title>hollow-circle</title>
    <desc>Created with Sketch.</desc>
    <g id="Style-Guide" stroke="none" stroke-width="1" fill="none" fill-rule="evenodd">
        <g id="Textures-Copy" transform="translate(-410.000000, -7.000000)" fill="#A4BA0F" fill-rule="nonzero">
            <path d="M423.392857,56 C415.996186,56 410,49.967037 410,42.525 C410,35.082963 415.996186,29.05 423.392857,29.05 C430.789528,29.05 436.785714,35.082963 436.785714,42.525 C436.785714,49.967037 430.789528,56 423.392857,56 Z M423.392857,51.1 C428.099829,51.1 431.915584,47.2608417 431.915584,42.525 C431.915584,37.7891583 428.099829,33.95 423.392857,33.95 C418.685885,33.95 414.87013,37.7891583 414.87013,42.525 C414.87013,47.2608417 418.685885,51.1 423.392857,51.1 Z M450.178571,33.95 C442.781901,33.95 436.785714,27.917037 436.785714,20.475 C436.785714,13.032963 442.781901,7 450.178571,7 C457.575242,7 463.571429,13.032963 463.571429,20.475 C463.571429,27.917037 457.575242,33.95 450.178571,33.95 Z M450.178571,29.05 C454.885544,29.05 458.701299,25.2108417 458.701299,20.475 C458.701299,15.7391583 454.885544,11.9 450.178571,11.9 C445.471599,11.9 441.655844,15.7391583 441.655844,20.475 C441.655844,25.2108417 445.471599,29.05 450.178571,29.05 Z M503.75,33.95 C496.353329,33.95 490.357143,27.917037 490.357143,20.475 C490.357143,13.032963 496.353329,7 503.75,7 C511.146671,7 517.142857,13.032963 517.142857,20.475 C517.142857,27.917037 511.146671,33.95 503.75,33.95 Z M503.75,29.05 C508.456972,29.05 512.272727,25.2108417 512.272727,20.475 C512.272727,15.7391583 508.456972,11.9 503.75,11.9 C499.043028,11.9 495.227273,15.7391583 495.227273,20.475 C495.227273,25.2108417 499.043028,29.05 503.75,29.05 Z M476.964286,56 C469.567615,56 463.571429,49.967037 463.571429,42.525 C463.571429,35.082963 469.567615,29.05 476.964286,29.05 C484.360956,29.05 490.357143,35.082963 490.357143,42.525 C490.357143,49.967037 484.360956,56 476.964286,56 Z M476.964286,51.1 C481.671258,51.1 485.487013,47.2608417 485.487013,42.525 C485.487013,37.7891583 481.671258,33.95 476.964286,33.95 C472.257313,33.95 468.441558,37.7891583 468.441558,42.525 C468.441558,47.2608417 472.257313,51.1 476.964286,51.1 Z M530.535714,56 C523.139044,56 517.142857,49.967037 517.142857,42.525 C517.142857,35.082963 523.139044,29.05 530.535714,29.05 C537.932385,29.05 543.928571,35.082963 543.928571,42.525 C543.928571,49.967037 537.932385,56 530.535714,56 Z M530.535714,51.1 C535.242687,51.1 539.058442,47.2608417 539.058442,42.525 C539.058442,37.7891583 535.242687,33.95 530.535714,33.95 C525.828742,33.95 522.012987,37.7891583 522.012987,42.525 C522.012987,47.2608417 525.828742,51.1 530.535714,51.1 Z M557.321429,33.95 C549.924758,33.95 543.928571,27.917037 543.928571,20.475 C543.928571,13.032963 549.924758,7 557.321429,7 C564.718099,7 570.714286,13.032963 570.714286,20.475 C570.714286,27.917037 564.718099,33.95 557.321429,33.95 Z M557.321429,29.05 C562.028401,29.05 565.844156,25.2108417 565.844156,20.475 C565.844156,15.7391583 562.028401,11.9 557.321429,11.9 C552.614456,11.9 548.798701,15.7391583 548.798701,20.475 C548.798701,25.2108417 552.614456,29.05 557.321429,29.05 Z M610.892857,33.95 C603.496186,33.95 597.5,27.917037 597.5,20.475 C597.5,13.032963 603.496186,7 610.892857,7 C618.289528,7 624.285714,13.032963 624.285714,20.475 C624.285714,27.917037 618.289528,33.95 610.892857,33.95 Z M610.892857,29.05 C615.599829,29.05 619.415584,25.2108417 619.415584,20.475 C619.415584,15.7391583 615.599829,11.9 610.892857,11.9 C606.185885,11.9 602.37013,15.7391583 602.37013,20.475 C602.37013,25.2108417 606.185885,29.05 610.892857,29.05 Z M584.107143,56 C576.710472,56 570.714286,49.967037 570.714286,42.525 C570.714286,35.082963 576.710472,29.05 584.107143,29.05 C591.503814,29.05 597.5,35.082963 597.5,42.525 C597.5,49.967037 591.503814,56 584.107143,56 Z M584.107143,51.1 C588.814115,51.1 592.62987,47.2608417 592.62987,42.525 C592.62987,37.7891583 588.814115,33.95 584.107143,33.95 C579.400171,33.95 575.584416,37.7891583 575.584416,42.525 C575.584416,47.2608417 579.400171,51.1 584.107143,51.1 Z M637.678571,56 C630.281901,56 624.285714,49.967037 624.285714,42.525 C624.285714,35.082963 630.281901,29.05 637.678571,29.05 C645.075242,29.05 651.071429,35.082963 651.071429,42.525 C651.071429,49.967037 645.075242,56 637.678571,56 Z M637.678571,51.1 C642.385544,51.1 646.201299,47.2608417 646.201299,42.525 C646.201299,37.7891583 642.385544,33.95 637.678571,33.95 C632.971599,33.95 629.155844,37.7891583 629.155844,42.525 C629.155844,47.2608417 632.971599,51.1 637.678571,51.1 Z M664.464286,33.95 C657.067615,33.95 651.071429,27.917037 651.071429,20.475 C651.071429,13.032963 657.067615,7 664.464286,7 C671.860956,7 677.857143,13.032963 677.857143,20.475 C677.857143,27.917037 671.860956,33.95 664.464286,33.95 Z M664.464286,29.05 C669.171258,29.05 672.987013,25.2108417 672.987013,20.475 C672.987013,15.7391583 669.171258,11.9 664.464286,11.9 C659.757313,11.9 655.941558,15.7391583 655.941558,20.475 C655.941558,25.2108417 659.757313,29.05 664.464286,29.05 Z M718.035714,33.95 C710.639044,33.95 704.642857,27.917037 704.642857,20.475 C704.642857,13.032963 710.639044,7 718.035714,7 C725.432385,7 731.428571,13.032963 731.428571,20.475 C731.428571,27.917037 725.432385,33.95 718.035714,33.95 Z M718.035714,29.05 C722.742687,29.05 726.558442,25.2108417 726.558442,20.475 C726.558442,15.7391583 722.742687,11.9 718.035714,11.9 C713.328742,11.9 709.512987,15.7391583 709.512987,20.475 C709.512987,25.2108417 713.328742,29.05 718.035714,29.05 Z M691.25,56 C683.853329,56 677.857143,49.967037 677.857143,42.525 C677.857143,35.082963 683.853329,29.05 691.25,29.05 C698.646671,29.05 704.642857,35.082963 704.642857,42.525 C704.642857,49.967037 698.646671,56 691.25,56 Z M691.25,51.1 C695.956972,51.1 699.772727,47.2608417 699.772727,42.525 C699.772727,37.7891583 695.956972,33.95 691.25,33.95 C686.543028,33.95 682.727273,37.7891583 682.727273,42.525 C682.727273,47.2608417 686.543028,51.1 691.25,51.1 Z M771.607143,33.95 C764.210472,33.95 758.214286,27.917037 758.214286,20.475 C758.214286,13.032963 764.210472,7 771.607143,7 C779.003814,7 785,13.032963 785,20.475 C785,27.917037 779.003814,33.95 771.607143,33.95 Z M771.607143,29.05 C776.314115,29.05 780.12987,25.2108417 780.12987,20.475 C780.12987,15.7391583 776.314115,11.9 771.607143,11.9 C766.900171,11.9 763.084416,15.7391583 763.084416,20.475 C763.084416,25.2108417 766.900171,29.05 771.607143,29.05 Z M744.821429,56 C737.424758,56 731.428571,49.967037 731.428571,42.525 C731.428571,35.082963 737.424758,29.05 744.821429,29.05 C752.218099,29.05 758.214286,35.082963 758.214286,42.525 C758.214286,49.967037 752.218099,56 744.821429,56 Z M744.821429,51.1 C749.528401,51.1 753.344156,47.2608417 753.344156,42.525 C753.344156,37.7891583 749.528401,33.95 744.821429,33.95 C740.114456,33.95 736.298701,37.7891583 736.298701,42.525 C736.298701,47.2608417 740.114456,51.1 744.821429,51.1 Z M423.392857,105 C415.996186,105 410,98.967037 410,91.525 C410,84.082963 415.996186,78.05 423.392857,78.05 C430.789528,78.05 436.785714,84.082963 436.785714,91.525 C436.785714,98.967037 430.789528,105 423.392857,105 Z M423.392857,100.1 C428.099829,100.1 431.915584,96.2608417 431.915584,91.525 C431.915584,86.7891583 428.099829,82.95 423.392857,82.95 C418.685885,82.95 414.87013,86.7891583 414.87013,91.525 C414.87013,96.2608417 418.685885,100.1 423.392857,100.1 Z M450.178571,82.95 C442.781901,82.95 436.785714,76.917037 436.785714,69.475 C436.785714,62.032963 442.781901,56 450.178571,56 C457.575242,56 463.571429,62.032963 463.571429,69.475 C463.571429,76.917037 457.575242,82.95 450.178571,82.95 Z M450.178571,78.05 C454.885544,78.05 458.701299,74.2108417 458.701299,69.475 C458.701299,64.7391583 454.885544,60.9 450.178571,60.9 C445.471599,60.9 441.655844,64.7391583 441.655844,69.475 C441.655844,74.2108417 445.471599,78.05 450.178571,78.05 Z M503.75,82.95 C496.353329,82.95 490.357143,76.917037 490.357143,69.475 C490.357143,62.032963 496.353329,56 503.75,56 C511.146671,56 517.142857,62.032963 517.142857,69.475 C517.142857,76.917037 511.146671,82.95 503.75,82.95 Z M503.75,78.05 C508.456972,78.05 512.272727,74.2108417 512.272727,69.475 C512.272727,64.7391583 508.456972,60.9 503.75,60.9 C499.043028,60.9 495.227273,64.7391583 495.227273,69.475 C495.227273,74.2108417 499.043028,78.05 503.75,78.05 Z M476.964286,105 C469.567615,105 463.571429,98.967037 463.571429,91.525 C463.571429,84.082963 469.567615,78.05 476.964286,78.05 C484.360956,78.05 490.357143,84.082963 490.357143,91.525 C490.357143,98.967037 484.360956,105 476.964286,105 Z M476.964286,100.1 C481.671258,100.1 485.487013,96.2608417 485.487013,91.525 C485.487013,86.7891583 481.671258,82.95 476.964286,82.95 C472.257313,82.95 468.441558,86.7891583 468.441558,91.525 C468.441558,96.2608417 472.257313,100.1 476.964286,100.1 Z M530.535714,105 C523.139044,105 517.142857,98.967037 517.142857,91.525 C517.142857,84.082963 523.139044,78.05 530.535714,78.05 C537.932385,78.05 543.928571,84.082963 543.928571,91.525 C543.928571,98.967037 537.932385,105 530.535714,105 Z M530.535714,100.1 C535.242687,100.1 539.058442,96.2608417 539.058442,91.525 C539.058442,86.7891583 535.242687,82.95 530.535714,82.95 C525.828742,82.95 522.012987,86.7891583 522.012987,91.525 C522.012987,96.2608417 525.828742,100.1 530.535714,100.1 Z M557.321429,82.95 C549.924758,82.95 543.928571,76.917037 543.928571,69.475 C543.928571,62.032963 549.924758,56 557.321429,56 C564.718099,56 570.714286,62.032963 570.714286,69.475 C570.714286,76.917037 564.718099,82.95 557.321429,82.95 Z M557.321429,78.05 C562.028401,78.05 565.844156,74.2108417 565.844156,69.475 C565.844156,64.7391583 562.028401,60.9 557.321429,60.9 C552.614456,60.9 548.798701,64.7391583 548.798701,69.475 C548.798701,74.2108417 552.614456,78.05 557.321429,78.05 Z M610.892857,82.95 C603.496186,82.95 597.5,76.917037 597.5,69.475 C597.5,62.032963 603.496186,56 610.892857,56 C618.289528,56 624.285714,62.032963 624.285714,69.475 C624.285714,76.917037 618.289528,82.95 610.892857,82.95 Z M610.892857,78.05 C615.599829,78.05 619.415584,74.2108417 619.415584,69.475 C619.415584,64.7391583 615.599829,60.9 610.892857,60.9 C606.185885,60.9 602.37013,64.7391583 602.37013,69.475 C602.37013,74.2108417 606.185885,78.05 610.892857,78.05 Z M584.107143,105 C576.710472,105 570.714286,98.967037 570.714286,91.525 C570.714286,84.082963 576.710472,78.05 584.107143,78.05 C591.503814,78.05 597.5,84.082963 597.5,91.525 C597.5,98.967037 591.503814,105 584.107143,105 Z M584.107143,100.1 C588.814115,100.1 592.62987,96.2608417 592.62987,91.525 C592.62987,86.7891583 588.814115,82.95 584.107143,82.95 C579.400171,82.95 575.584416,86.7891583 575.584416,91.525 C575.584416,96.2608417 579.400171,100.1 584.107143,100.1 Z M637.678571,105 C630.281901,105 624.285714,98.967037 624.285714,91.525 C624.285714,84.082963 630.281901,78.05 637.678571,78.05 C645.075242,78.05 651.071429,84.082963 651.071429,91.525 C651.071429,98.967037 645.075242,105 637.678571,105 Z M637.678571,100.1 C642.385544,100.1 646.201299,96.2608417 646.201299,91.525 C646.201299,86.7891583 642.385544,82.95 637.678571,82.95 C632.971599,82.95 629.155844,86.7891583 629.155844,91.525 C629.155844,96.2608417 632.971599,100.1 637.678571,100.1 Z M664.464286,82.95 C657.067615,82.95 651.071429,76.917037 651.071429,69.475 C651.071429,62.032963 657.067615,56 664.464286,56 C671.860956,56 677.857143,62.032963 677.857143,69.475 C677.857143,76.917037 671.860956,82.95 664.464286,82.95 Z M664.464286,78.05 C669.171258,78.05 672.987013,74.2108417 672.987013,69.475 C672.987013,64.7391583 669.171258,60.9 664.464286,60.9 C659.757313,60.9 655.941558,64.7391583 655.941558,69.475 C655.941558,74.2108417 659.757313,78.05 664.464286,78.05 Z M718.035714,82.95 C710.639044,82.95 704.642857,76.917037 704.642857,69.475 C704.642857,62.032963 710.639044,56 718.035714,56 C725.432385,56 731.428571,62.032963 731.428571,69.475 C731.428571,76.917037 725.432385,82.95 718.035714,82.95 Z M718.035714,78.05 C722.742687,78.05 726.558442,74.2108417 726.558442,69.475 C726.558442,64.7391583 722.742687,60.9 718.035714,60.9 C713.328742,60.9 709.512987,64.7391583 709.512987,69.475 C709.512987,74.2108417 713.328742,78.05 718.035714,78.05 Z M691.25,105 C683.853329,105 677.857143,98.967037 677.857143,91.525 C677.857143,84.082963 683.853329,78.05 691.25,78.05 C698.646671,78.05 704.642857,84.082963 704.642857,91.525 C704.642857,98.967037 698.646671,105 691.25,105 Z M691.25,100.1 C695.956972,100.1 699.772727,96.2608417 699.772727,91.525 C699.772727,86.7891583 695.956972,82.95 691.25,82.95 C686.543028,82.95 682.727273,86.7891583 682.727273,91.525 C682.727273,96.2608417 686.543028,100.1 691.25,100.1 Z M771.607143,82.95 C764.210472,82.95 758.214286,76.917037 758.214286,69.475 C758.214286,62.032963 764.210472,56 771.607143,56 C779.003814,56 785,62.032963 785,69.475 C785,76.917037 779.003814,82.95 771.607143,82.95 Z M771.607143,78.05 C776.314115,78.05 780.12987,74.2108417 780.12987,69.475 C780.12987,64.7391583 776.314115,60.9 771.607143,60.9 C766.900171,60.9 763.084416,64.7391583 763.084416,69.475 C763.084416,74.2108417 766.900171,78.05 771.607143,78.05 Z M744.821429,105 C737.424758,105 731.428571,98.967037 731.428571,91.525 C731.428571,84.082963 737.424758,78.05 744.821429,78.05 C752.218099,78.05 758.214286,84.082963 758.214286,91.525 C758.214286,98.967037 752.218099,105 744.821429,105 Z M744.821429,100.1 C749.528401,100.1 753.344156,96.2608417 753.344156,91.525 C753.344156,86.7891583 749.528401,82.95 744.821429,82.95 C740.114456,82.95 736.298701,86.7891583 736.298701,91.525 C736.298701,96.2608417 740.114456,100.1 744.821429,100.1 Z M423.392857,154 C415.996186,154 410,147.967037 410,140.525 C410,133.082963 415.996186,127.05 423.392857,127.05 C430.789528,127.05 436.785714,133.082963 436.785714,140.525 C436.785714,147.967037 430.789528,154 423.392857,154 Z M423.392857,149.1 C428.099829,149.1 431.915584,145.260842 431.915584,140.525 C431.915584,135.789158 428.099829,131.95 423.392857,131.95 C418.685885,131.95 414.87013,135.789158 414.87013,140.525 C414.87013,145.260842 418.685885,149.1 423.392857,149.1 Z M450.178571,131.95 C442.781901,131.95 436.785714,125.917037 436.785714,118.475 C436.785714,111.032963 442.781901,105 450.178571,105 C457.575242,105 463.571429,111.032963 463.571429,118.475 C463.571429,125.917037 457.575242,131.95 450.178571,131.95 Z M450.178571,127.05 C454.885544,127.05 458.701299,123.210842 458.701299,118.475 C458.701299,113.739158 454.885544,109.9 450.178571,109.9 C445.471599,109.9 441.655844,113.739158 441.655844,118.475 C441.655844,123.210842 445.471599,127.05 450.178571,127.05 Z M503.75,131.95 C496.353329,131.95 490.357143,125.917037 490.357143,118.475 C490.357143,111.032963 496.353329,105 503.75,105 C511.146671,105 517.142857,111.032963 517.142857,118.475 C517.142857,125.917037 511.146671,131.95 503.75,131.95 Z M503.75,127.05 C508.456972,127.05 512.272727,123.210842 512.272727,118.475 C512.272727,113.739158 508.456972,109.9 503.75,109.9 C499.043028,109.9 495.227273,113.739158 495.227273,118.475 C495.227273,123.210842 499.043028,127.05 503.75,127.05 Z M476.964286,154 C469.567615,154 463.571429,147.967037 463.571429,140.525 C463.571429,133.082963 469.567615,127.05 476.964286,127.05 C484.360956,127.05 490.357143,133.082963 490.357143,140.525 C490.357143,147.967037 484.360956,154 476.964286,154 Z M476.964286,149.1 C481.671258,149.1 485.487013,145.260842 485.487013,140.525 C485.487013,135.789158 481.671258,131.95 476.964286,131.95 C472.257313,131.95 468.441558,135.789158 468.441558,140.525 C468.441558,145.260842 472.257313,149.1 476.964286,149.1 Z M530.535714,154 C523.139044,154 517.142857,147.967037 517.142857,140.525 C517.142857,133.082963 523.139044,127.05 530.535714,127.05 C537.932385,127.05 543.928571,133.082963 543.928571,140.525 C543.928571,147.967037 537.932385,154 530.535714,154 Z M530.535714,149.1 C535.242687,149.1 539.058442,145.260842 539.058442,140.525 C539.058442,135.789158 535.242687,131.95 530.535714,131.95 C525.828742,131.95 522.012987,135.789158 522.012987,140.525 C522.012987,145.260842 525.828742,149.1 530.535714,149.1 Z M557.321429,131.95 C549.924758,131.95 543.928571,125.917037 543.928571,118.475 C543.928571,111.032963 549.924758,105 557.321429,105 C564.718099,105 570.714286,111.032963 570.714286,118.475 C570.714286,125.917037 564.718099,131.95 557.321429,131.95 Z M557.321429,127.05 C562.028401,127.05 565.844156,123.210842 565.844156,118.475 C565.844156,113.739158 562.028401,109.9 557.321429,109.9 C552.614456,109.9 548.798701,113.739158 548.798701,118.475 C548.798701,123.210842 552.614456,127.05 557.321429,127.05 Z M610.892857,131.95 C603.496186,131.95 597.5,125.917037 597.5,118.475 C597.5,111.032963 603.496186,105 610.892857,105 C618.289528,105 624.285714,111.032963 624.285714,118.475 C624.285714,125.917037 618.289528,131.95 610.892857,131.95 Z M610.892857,127.05 C615.599829,127.05 619.415584,123.210842 619.415584,118.475 C619.415584,113.739158 615.599829,109.9 610.892857,109.9 C606.185885,109.9 602.37013,113.739158 602.37013,118.475 C602.37013,123.210842 606.185885,127.05 610.892857,127.05 Z M584.107143,154 C576.710472,154 570.714286,147.967037 570.714286,140.525 C570.714286,133.082963 576.710472,127.05 584.107143,127.05 C591.503814,127.05 597.5,133.082963 597.5,140.525 C597.5,147.967037 591.503814,154 584.107143,154 Z M584.107143,149.1 C588.814115,149.1 592.62987,145.260842 592.62987,140.525 C592.62987,135.789158 588.814115,131.95 584.107143,131.95 C579.400171,131.95 575.584416,135.789158 575.584416,140.525 C575.584416,145.260842 579.400171,149.1 584.107143,149.1 Z M637.678571,154 C630.281901,154 624.285714,147.967037 624.285714,140.525 C624.285714,133.082963 630.281901,127.05 637.678571,127.05 C645.075242,127.05 651.071429,133.082963 651.071429,140.525 C651.071429,147.967037 645.075242,154 637.678571,154 Z M637.678571,149.1 C642.385544,149.1 646.201299,145.260842 646.201299,140.525 C646.201299,135.789158 642.385544,131.95 637.678571,131.95 C632.971599,131.95 629.155844,135.789158 629.155844,140.525 C629.155844,145.260842 632.971599,149.1 637.678571,149.1 Z M664.464286,131.95 C657.067615,131.95 651.071429,125.917037 651.071429,118.475 C651.071429,111.032963 657.067615,105 664.464286,105 C671.860956,105 677.857143,111.032963 677.857143,118.475 C677.857143,125.917037 671.860956,131.95 664.464286,131.95 Z M664.464286,127.05 C669.171258,127.05 672.987013,123.210842 672.987013,118.475 C672.987013,113.739158 669.171258,109.9 664.464286,109.9 C659.757313,109.9 655.941558,113.739158 655.941558,118.475 C655.941558,123.210842 659.757313,127.05 664.464286,127.05 Z M718.035714,131.95 C710.639044,131.95 704.642857,125.917037 704.642857,118.475 C704.642857,111.032963 710.639044,105 718.035714,105 C725.432385,105 731.428571,111.032963 731.428571,118.475 C731.428571,125.917037 725.432385,131.95 718.035714,131.95 Z M718.035714,127.05 C722.742687,127.05 726.558442,123.210842 726.558442,118.475 C726.558442,113.739158 722.742687,109.9 718.035714,109.9 C713.328742,109.9 709.512987,113.739158 709.512987,118.475 C709.512987,123.210842 713.328742,127.05 718.035714,127.05 Z M691.25,154 C683.853329,154 677.857143,147.967037 677.857143,140.525 C677.857143,133.082963 683.853329,127.05 691.25,127.05 C698.646671,127.05 704.642857,133.082963 704.642857,140.525 C704.642857,147.967037 698.646671,154 691.25,154 Z M691.25,149.1 C695.956972,149.1 699.772727,145.260842 699.772727,140.525 C699.772727,135.789158 695.956972,131.95 691.25,131.95 C686.543028,131.95 682.727273,135.789158 682.727273,140.525 C682.727273,145.260842 686.543028,149.1 691.25,149.1 Z M771.607143,131.95 C764.210472,131.95 758.214286,125.917037 758.214286,118.475 C758.214286,111.032963 764.210472,105 771.607143,105 C779.003814,105 785,111.032963 785,118.475 C785,125.917037 779.003814,131.95 771.607143,131.95 Z M771.607143,127.05 C776.314115,127.05 780.12987,123.210842 780.12987,118.475 C780.12987,113.739158 776.314115,109.9 771.607143,109.9 C766.900171,109.9 763.084416,113.739158 763.084416,118.475 C763.084416,123.210842 766.900171,127.05 771.607143,127.05 Z M744.821429,154 C737.424758,154 731.428571,147.967037 731.428571,140.525 C731.428571,133.082963 737.424758,127.05 744.821429,127.05 C752.218099,127.05 758.214286,133.082963 758.214286,140.525 C758.214286,147.967037 752.218099,154 744.821429,154 Z M744.821429,149.1 C749.528401,149.1 753.344156,145.260842 753.344156,140.525 C753.344156,135.789158 749.528401,131.95 744.821429,131.95 C740.114456,131.95 736.298701,135.789158 736.298701,140.525 C736.298701,145.260842 740.114456,149.1 744.821429,149.1 Z M423.392857,203 C415.996186,203 410,196.967037 410,189.525 C410,182.082963 415.996186,176.05 423.392857,176.05 C430.789528,176.05 436.785714,182.082963 436.785714,189.525 C436.785714,196.967037 430.789528,203 423.392857,203 Z M423.392857,198.1 C428.099829,198.1 431.915584,194.260842 431.915584,189.525 C431.915584,184.789158 428.099829,180.95 423.392857,180.95 C418.685885,180.95 414.87013,184.789158 414.87013,189.525 C414.87013,194.260842 418.685885,198.1 423.392857,198.1 Z M450.178571,180.95 C442.781901,180.95 436.785714,174.917037 436.785714,167.475 C436.785714,160.032963 442.781901,154 450.178571,154 C457.575242,154 463.571429,160.032963 463.571429,167.475 C463.571429,174.917037 457.575242,180.95 450.178571,180.95 Z M450.178571,176.05 C454.885544,176.05 458.701299,172.210842 458.701299,167.475 C458.701299,162.739158 454.885544,158.9 450.178571,158.9 C445.471599,158.9 441.655844,162.739158 441.655844,167.475 C441.655844,172.210842 445.471599,176.05 450.178571,176.05 Z M503.75,180.95 C496.353329,180.95 490.357143,174.917037 490.357143,167.475 C490.357143,160.032963 496.353329,154 503.75,154 C511.146671,154 517.142857,160.032963 517.142857,167.475 C517.142857,174.917037 511.146671,180.95 503.75,180.95 Z M503.75,176.05 C508.456972,176.05 512.272727,172.210842 512.272727,167.475 C512.272727,162.739158 508.456972,158.9 503.75,158.9 C499.043028,158.9 495.227273,162.739158 495.227273,167.475 C495.227273,172.210842 499.043028,176.05 503.75,176.05 Z M476.964286,203 C469.567615,203 463.571429,196.967037 463.571429,189.525 C463.571429,182.082963 469.567615,176.05 476.964286,176.05 C484.360956,176.05 490.357143,182.082963 490.357143,189.525 C490.357143,196.967037 484.360956,203 476.964286,203 Z M476.964286,198.1 C481.671258,198.1 485.487013,194.260842 485.487013,189.525 C485.487013,184.789158 481.671258,180.95 476.964286,180.95 C472.257313,180.95 468.441558,184.789158 468.441558,189.525 C468.441558,194.260842 472.257313,198.1 476.964286,198.1 Z M530.535714,203 C523.139044,203 517.142857,196.967037 517.142857,189.525 C517.142857,182.082963 523.139044,176.05 530.535714,176.05 C537.932385,176.05 543.928571,182.082963 543.928571,189.525 C543.928571,196.967037 537.932385,203 530.535714,203 Z M530.535714,198.1 C535.242687,198.1 539.058442,194.260842 539.058442,189.525 C539.058442,184.789158 535.242687,180.95 530.535714,180.95 C525.828742,180.95 522.012987,184.789158 522.012987,189.525 C522.012987,194.260842 525.828742,198.1 530.535714,198.1 Z M557.321429,180.95 C549.924758,180.95 543.928571,174.917037 543.928571,167.475 C543.928571,160.032963 549.924758,154 557.321429,154 C564.718099,154 570.714286,160.032963 570.714286,167.475 C570.714286,174.917037 564.718099,180.95 557.321429,180.95 Z M557.321429,176.05 C562.028401,176.05 565.844156,172.210842 565.844156,167.475 C565.844156,162.739158 562.028401,158.9 557.321429,158.9 C552.614456,158.9 548.798701,162.739158 548.798701,167.475 C548.798701,172.210842 552.614456,176.05 557.321429,176.05 Z M610.892857,180.95 C603.496186,180.95 597.5,174.917037 597.5,167.475 C597.5,160.032963 603.496186,154 610.892857,154 C618.289528,154 624.285714,160.032963 624.285714,167.475 C624.285714,174.917037 618.289528,180.95 610.892857,180.95 Z M610.892857,176.05 C615.599829,176.05 619.415584,172.210842 619.415584,167.475 C619.415584,162.739158 615.599829,158.9 610.892857,158.9 C606.185885,158.9 602.37013,162.739158 602.37013,167.475 C602.37013,172.210842 606.185885,176.05 610.892857,176.05 Z M584.107143,203 C576.710472,203 570.714286,196.967037 570.714286,189.525 C570.714286,182.082963 576.710472,176.05 584.107143,176.05 C591.503814,176.05 597.5,182.082963 597.5,189.525 C597.5,196.967037 591.503814,203 584.107143,203 Z M584.107143,198.1 C588.814115,198.1 592.62987,194.260842 592.62987,189.525 C592.62987,184.789158 588.814115,180.95 584.107143,180.95 C579.400171,180.95 575.584416,184.789158 575.584416,189.525 C575.584416,194.260842 579.400171,198.1 584.107143,198.1 Z M637.678571,203 C630.281901,203 624.285714,196.967037 624.285714,189.525 C624.285714,182.082963 630.281901,176.05 637.678571,176.05 C645.075242,176.05 651.071429,182.082963 651.071429,189.525 C651.071429,196.967037 645.075242,203 637.678571,203 Z M637.678571,198.1 C642.385544,198.1 646.201299,194.260842 646.201299,189.525 C646.201299,184.789158 642.385544,180.95 637.678571,180.95 C632.971599,180.95 629.155844,184.789158 629.155844,189.525 C629.155844,194.260842 632.971599,198.1 637.678571,198.1 Z M664.464286,180.95 C657.067615,180.95 651.071429,174.917037 651.071429,167.475 C651.071429,160.032963 657.067615,154 664.464286,154 C671.860956,154 677.857143,160.032963 677.857143,167.475 C677.857143,174.917037 671.860956,180.95 664.464286,180.95 Z M664.464286,176.05 C669.171258,176.05 672.987013,172.210842 672.987013,167.475 C672.987013,162.739158 669.171258,158.9 664.464286,158.9 C659.757313,158.9 655.941558,162.739158 655.941558,167.475 C655.941558,172.210842 659.757313,176.05 664.464286,176.05 Z M718.035714,180.95 C710.639044,180.95 704.642857,174.917037 704.642857,167.475 C704.642857,160.032963 710.639044,154 718.035714,154 C725.432385,154 731.428571,160.032963 731.428571,167.475 C731.428571,174.917037 725.432385,180.95 718.035714,180.95 Z M718.035714,176.05 C722.742687,176.05 726.558442,172.210842 726.558442,167.475 C726.558442,162.739158 722.742687,158.9 718.035714,158.9 C713.328742,158.9 709.512987,162.739158 709.512987,167.475 C709.512987,172.210842 713.328742,176.05 718.035714,176.05 Z M691.25,203 C683.853329,203 677.857143,196.967037 677.857143,189.525 C677.857143,182.082963 683.853329,176.05 691.25,176.05 C698.646671,176.05 704.642857,182.082963 704.642857,189.525 C704.642857,196.967037 698.646671,203 691.25,203 Z M691.25,198.1 C695.956972,198.1 699.772727,194.260842 699.772727,189.525 C699.772727,184.789158 695.956972,180.95 691.25,180.95 C686.543028,180.95 682.727273,184.789158 682.727273,189.525 C682.727273,194.260842 686.543028,198.1 691.25,198.1 Z M771.607143,180.95 C764.210472,180.95 758.214286,174.917037 758.214286,167.475 C758.214286,160.032963 764.210472,154 771.607143,154 C779.003814,154 785,160.032963 785,167.475 C785,174.917037 779.003814,180.95 771.607143,180.95 Z M771.607143,176.05 C776.314115,176.05 780.12987,172.210842 780.12987,167.475 C780.12987,162.739158 776.314115,158.9 771.607143,158.9 C766.900171,158.9 763.084416,162.739158 763.084416,167.475 C763.084416,172.210842 766.900171,176.05 771.607143,176.05 Z M744.821429,203 C737.424758,203 731.428571,196.967037 731.428571,189.525 C731.428571,182.082963 737.424758,176.05 744.821429,176.05 C752.218099,176.05 758.214286,182.082963 758.214286,189.525 C758.214286,196.967037 752.218099,203 744.821429,203 Z M744.821429,198.1 C749.528401,198.1 753.344156,194.260842 753.344156,189.525 C753.344156,184.789158 749.528401,180.95 744.821429,180.95 C740.114456,180.95 736.298701,184.789158 736.298701,189.525 C736.298701,194.260842 740.114456,198.1 744.821429,198.1 Z M423.392857,252 C415.996186,252 410,245.967037 410,238.525 C410,231.082963 415.996186,225.05 423.392857,225.05 C430.789528,225.05 436.785714,231.082963 436.785714,238.525 C436.785714,245.967037 430.789528,252 423.392857,252 Z M423.392857,247.1 C428.099829,247.1 431.915584,243.260842 431.915584,238.525 C431.915584,233.789158 428.099829,229.95 423.392857,229.95 C418.685885,229.95 414.87013,233.789158 414.87013,238.525 C414.87013,243.260842 418.685885,247.1 423.392857,247.1 Z M450.178571,229.95 C442.781901,229.95 436.785714,223.917037 436.785714,216.475 C436.785714,209.032963 442.781901,203 450.178571,203 C457.575242,203 463.571429,209.032963 463.571429,216.475 C463.571429,223.917037 457.575242,229.95 450.178571,229.95 Z M450.178571,225.05 C454.885544,225.05 458.701299,221.210842 458.701299,216.475 C458.701299,211.739158 454.885544,207.9 450.178571,207.9 C445.471599,207.9 441.655844,211.739158 441.655844,216.475 C441.655844,221.210842 445.471599,225.05 450.178571,225.05 Z M503.75,229.95 C496.353329,229.95 490.357143,223.917037 490.357143,216.475 C490.357143,209.032963 496.353329,203 503.75,203 C511.146671,203 517.142857,209.032963 517.142857,216.475 C517.142857,223.917037 511.146671,229.95 503.75,229.95 Z M503.75,225.05 C508.456972,225.05 512.272727,221.210842 512.272727,216.475 C512.272727,211.739158 508.456972,207.9 503.75,207.9 C499.043028,207.9 495.227273,211.739158 495.227273,216.475 C495.227273,221.210842 499.043028,225.05 503.75,225.05 Z M476.964286,252 C469.567615,252 463.571429,245.967037 463.571429,238.525 C463.571429,231.082963 469.567615,225.05 476.964286,225.05 C484.360956,225.05 490.357143,231.082963 490.357143,238.525 C490.357143,245.967037 484.360956,252 476.964286,252 Z M476.964286,247.1 C481.671258,247.1 485.487013,243.260842 485.487013,238.525 C485.487013,233.789158 481.671258,229.95 476.964286,229.95 C472.257313,229.95 468.441558,233.789158 468.441558,238.525 C468.441558,243.260842 472.257313,247.1 476.964286,247.1 Z M530.535714,252 C523.139044,252 517.142857,245.967037 517.142857,238.525 C517.142857,231.082963 523.139044,225.05 530.535714,225.05 C537.932385,225.05 543.928571,231.082963 543.928571,238.525 C543.928571,245.967037 537.932385,252 530.535714,252 Z M530.535714,247.1 C535.242687,247.1 539.058442,243.260842 539.058442,238.525 C539.058442,233.789158 535.242687,229.95 530.535714,229.95 C525.828742,229.95 522.012987,233.789158 522.012987,238.525 C522.012987,243.260842 525.828742,247.1 530.535714,247.1 Z M557.321429,229.95 C549.924758,229.95 543.928571,223.917037 543.928571,216.475 C543.928571,209.032963 549.924758,203 557.321429,203 C564.718099,203 570.714286,209.032963 570.714286,216.475 C570.714286,223.917037 564.718099,229.95 557.321429,229.95 Z M557.321429,225.05 C562.028401,225.05 565.844156,221.210842 565.844156,216.475 C565.844156,211.739158 562.028401,207.9 557.321429,207.9 C552.614456,207.9 548.798701,211.739158 548.798701,216.475 C548.798701,221.210842 552.614456,225.05 557.321429,225.05 Z M610.892857,229.95 C603.496186,229.95 597.5,223.917037 597.5,216.475 C597.5,209.032963 603.496186,203 610.892857,203 C618.289528,203 624.285714,209.032963 624.285714,216.475 C624.285714,223.917037 618.289528,229.95 610.892857,229.95 Z M610.892857,225.05 C615.599829,225.05 619.415584,221.210842 619.415584,216.475 C619.415584,211.739158 615.599829,207.9 610.892857,207.9 C606.185885,207.9 602.37013,211.739158 602.37013,216.475 C602.37013,221.210842 606.185885,225.05 610.892857,225.05 Z M584.107143,252 C576.710472,252 570.714286,245.967037 570.714286,238.525 C570.714286,231.082963 576.710472,225.05 584.107143,225.05 C591.503814,225.05 597.5,231.082963 597.5,238.525 C597.5,245.967037 591.503814,252 584.107143,252 Z M584.107143,247.1 C588.814115,247.1 592.62987,243.260842 592.62987,238.525 C592.62987,233.789158 588.814115,229.95 584.107143,229.95 C579.400171,229.95 575.584416,233.789158 575.584416,238.525 C575.584416,243.260842 579.400171,247.1 584.107143,247.1 Z M637.678571,252 C630.281901,252 624.285714,245.967037 624.285714,238.525 C624.285714,231.082963 630.281901,225.05 637.678571,225.05 C645.075242,225.05 651.071429,231.082963 651.071429,238.525 C651.071429,245.967037 645.075242,252 637.678571,252 Z M637.678571,247.1 C642.385544,247.1 646.201299,243.260842 646.201299,238.525 C646.201299,233.789158 642.385544,229.95 637.678571,229.95 C632.971599,229.95 629.155844,233.789158 629.155844,238.525 C629.155844,243.260842 632.971599,247.1 637.678571,247.1 Z M664.464286,229.95 C657.067615,229.95 651.071429,223.917037 651.071429,216.475 C651.071429,209.032963 657.067615,203 664.464286,203 C671.860956,203 677.857143,209.032963 677.857143,216.475 C677.857143,223.917037 671.860956,229.95 664.464286,229.95 Z M664.464286,225.05 C669.171258,225.05 672.987013,221.210842 672.987013,216.475 C672.987013,211.739158 669.171258,207.9 664.464286,207.9 C659.757313,207.9 655.941558,211.739158 655.941558,216.475 C655.941558,221.210842 659.757313,225.05 664.464286,225.05 Z M718.035714,229.95 C710.639044,229.95 704.642857,223.917037 704.642857,216.475 C704.642857,209.032963 710.639044,203 718.035714,203 C725.432385,203 731.428571,209.032963 731.428571,216.475 C731.428571,223.917037 725.432385,229.95 718.035714,229.95 Z M718.035714,225.05 C722.742687,225.05 726.558442,221.210842 726.558442,216.475 C726.558442,211.739158 722.742687,207.9 718.035714,207.9 C713.328742,207.9 709.512987,211.739158 709.512987,216.475 C709.512987,221.210842 713.328742,225.05 718.035714,225.05 Z M691.25,252 C683.853329,252 677.857143,245.967037 677.857143,238.525 C677.857143,231.082963 683.853329,225.05 691.25,225.05 C698.646671,225.05 704.642857,231.082963 704.642857,238.525 C704.642857,245.967037 698.646671,252 691.25,252 Z M691.25,247.1 C695.956972,247.1 699.772727,243.260842 699.772727,238.525 C699.772727,233.789158 695.956972,229.95 691.25,229.95 C686.543028,229.95 682.727273,233.789158 682.727273,238.525 C682.727273,243.260842 686.543028,247.1 691.25,247.1 Z M771.607143,229.95 C764.210472,229.95 758.214286,223.917037 758.214286,216.475 C758.214286,209.032963 764.210472,203 771.607143,203 C779.003814,203 785,209.032963 785,216.475 C785,223.917037 779.003814,229.95 771.607143,229.95 Z M771.607143,225.05 C776.314115,225.05 780.12987,221.210842 780.12987,216.475 C780.12987,211.739158 776.314115,207.9 771.607143,207.9 C766.900171,207.9 763.084416,211.739158 763.084416,216.475 C763.084416,221.210842 766.900171,225.05 771.607143,225.05 Z M744.821429,252 C737.424758,252 731.428571,245.967037 731.428571,238.525 C731.428571,231.082963 737.424758,225.05 744.821429,225.05 C752.218099,225.05 758.214286,231.082963 758.214286,238.525 C758.214286,245.967037 752.218099,252 744.821429,252 Z M744.821429,247.1 C749.528401,247.1 753.344156,243.260842 753.344156,238.525 C753.344156,233.789158 749.528401,229.95 744.821429,229.95 C740.114456,229.95 736.298701,233.789158 736.298701,238.525 C736.298701,243.260842 740.114456,247.1 744.821429,247.1 Z M423.392857,301 C415.996186,301 410,294.967037 410,287.525 C410,280.082963 415.996186,274.05 423.392857,274.05 C430.789528,274.05 436.785714,280.082963 436.785714,287.525 C436.785714,294.967037 430.789528,301 423.392857,301 Z M423.392857,296.1 C428.099829,296.1 431.915584,292.260842 431.915584,287.525 C431.915584,282.789158 428.099829,278.95 423.392857,278.95 C418.685885,278.95 414.87013,282.789158 414.87013,287.525 C414.87013,292.260842 418.685885,296.1 423.392857,296.1 Z M450.178571,278.95 C442.781901,278.95 436.785714,272.917037 436.785714,265.475 C436.785714,258.032963 442.781901,252 450.178571,252 C457.575242,252 463.571429,258.032963 463.571429,265.475 C463.571429,272.917037 457.575242,278.95 450.178571,278.95 Z M450.178571,274.05 C454.885544,274.05 458.701299,270.210842 458.701299,265.475 C458.701299,260.739158 454.885544,256.9 450.178571,256.9 C445.471599,256.9 441.655844,260.739158 441.655844,265.475 C441.655844,270.210842 445.471599,274.05 450.178571,274.05 Z M503.75,278.95 C496.353329,278.95 490.357143,272.917037 490.357143,265.475 C490.357143,258.032963 496.353329,252 503.75,252 C511.146671,252 517.142857,258.032963 517.142857,265.475 C517.142857,272.917037 511.146671,278.95 503.75,278.95 Z M503.75,274.05 C508.456972,274.05 512.272727,270.210842 512.272727,265.475 C512.272727,260.739158 508.456972,256.9 503.75,256.9 C499.043028,256.9 495.227273,260.739158 495.227273,265.475 C495.227273,270.210842 499.043028,274.05 503.75,274.05 Z M476.964286,301 C469.567615,301 463.571429,294.967037 463.571429,287.525 C463.571429,280.082963 469.567615,274.05 476.964286,274.05 C484.360956,274.05 490.357143,280.082963 490.357143,287.525 C490.357143,294.967037 484.360956,301 476.964286,301 Z M476.964286,296.1 C481.671258,296.1 485.487013,292.260842 485.487013,287.525 C485.487013,282.789158 481.671258,278.95 476.964286,278.95 C472.257313,278.95 468.441558,282.789158 468.441558,287.525 C468.441558,292.260842 472.257313,296.1 476.964286,296.1 Z M530.535714,301 C523.139044,301 517.142857,294.967037 517.142857,287.525 C517.142857,280.082963 523.139044,274.05 530.535714,274.05 C537.932385,274.05 543.928571,280.082963 543.928571,287.525 C543.928571,294.967037 537.932385,301 530.535714,301 Z M530.535714,296.1 C535.242687,296.1 539.058442,292.260842 539.058442,287.525 C539.058442,282.789158 535.242687,278.95 530.535714,278.95 C525.828742,278.95 522.012987,282.789158 522.012987,287.525 C522.012987,292.260842 525.828742,296.1 530.535714,296.1 Z M557.321429,278.95 C549.924758,278.95 543.928571,272.917037 543.928571,265.475 C543.928571,258.032963 549.924758,252 557.321429,252 C564.718099,252 570.714286,258.032963 570.714286,265.475 C570.714286,272.917037 564.718099,278.95 557.321429,278.95 Z M557.321429,274.05 C562.028401,274.05 565.844156,270.210842 565.844156,265.475 C565.844156,260.739158 562.028401,256.9 557.321429,256.9 C552.614456,256.9 548.798701,260.739158 548.798701,265.475 C548.798701,270.210842 552.614456,274.05 557.321429,274.05 Z M610.892857,278.95 C603.496186,278.95 597.5,272.917037 597.5,265.475 C597.5,258.032963 603.496186,252 610.892857,252 C618.289528,252 624.285714,258.032963 624.285714,265.475 C624.285714,272.917037 618.289528,278.95 610.892857,278.95 Z M610.892857,274.05 C615.599829,274.05 619.415584,270.210842 619.415584,265.475 C619.415584,260.739158 615.599829,256.9 610.892857,256.9 C606.185885,256.9 602.37013,260.739158 602.37013,265.475 C602.37013,270.210842 606.185885,274.05 610.892857,274.05 Z M584.107143,301 C576.710472,301 570.714286,294.967037 570.714286,287.525 C570.714286,280.082963 576.710472,274.05 584.107143,274.05 C591.503814,274.05 597.5,280.082963 597.5,287.525 C597.5,294.967037 591.503814,301 584.107143,301 Z M584.107143,296.1 C588.814115,296.1 592.62987,292.260842 592.62987,287.525 C592.62987,282.789158 588.814115,278.95 584.107143,278.95 C579.400171,278.95 575.584416,282.789158 575.584416,287.525 C575.584416,292.260842 579.400171,296.1 584.107143,296.1 Z M637.678571,301 C630.281901,301 624.285714,294.967037 624.285714,287.525 C624.285714,280.082963 630.281901,274.05 637.678571,274.05 C645.075242,274.05 651.071429,280.082963 651.071429,287.525 C651.071429,294.967037 645.075242,301 637.678571,301 Z M637.678571,296.1 C642.385544,296.1 646.201299,292.260842 646.201299,287.525 C646.201299,282.789158 642.385544,278.95 637.678571,278.95 C632.971599,278.95 629.155844,282.789158 629.155844,287.525 C629.155844,292.260842 632.971599,296.1 637.678571,296.1 Z M664.464286,278.95 C657.067615,278.95 651.071429,272.917037 651.071429,265.475 C651.071429,258.032963 657.067615,252 664.464286,252 C671.860956,252 677.857143,258.032963 677.857143,265.475 C677.857143,272.917037 671.860956,278.95 664.464286,278.95 Z M664.464286,274.05 C669.171258,274.05 672.987013,270.210842 672.987013,265.475 C672.987013,260.739158 669.171258,256.9 664.464286,256.9 C659.757313,256.9 655.941558,260.739158 655.941558,265.475 C655.941558,270.210842 659.757313,274.05 664.464286,274.05 Z M718.035714,278.95 C710.639044,278.95 704.642857,272.917037 704.642857,265.475 C704.642857,258.032963 710.639044,252 718.035714,252 C725.432385,252 731.428571,258.032963 731.428571,265.475 C731.428571,272.917037 725.432385,278.95 718.035714,278.95 Z M718.035714,274.05 C722.742687,274.05 726.558442,270.210842 726.558442,265.475 C726.558442,260.739158 722.742687,256.9 718.035714,256.9 C713.328742,256.9 709.512987,260.739158 709.512987,265.475 C709.512987,270.210842 713.328742,274.05 718.035714,274.05 Z M691.25,301 C683.853329,301 677.857143,294.967037 677.857143,287.525 C677.857143,280.082963 683.853329,274.05 691.25,274.05 C698.646671,274.05 704.642857,280.082963 704.642857,287.525 C704.642857,294.967037 698.646671,301 691.25,301 Z M691.25,296.1 C695.956972,296.1 699.772727,292.260842 699.772727,287.525 C699.772727,282.789158 695.956972,278.95 691.25,278.95 C686.543028,278.95 682.727273,282.789158 682.727273,287.525 C682.727273,292.260842 686.543028,296.1 691.25,296.1 Z M771.607143,278.95 C764.210472,278.95 758.214286,272.917037 758.214286,265.475 C758.214286,258.032963 764.210472,252 771.607143,252 C779.003814,252 785,258.032963 785,265.475 C785,272.917037 779.003814,278.95 771.607143,278.95 Z M771.607143,274.05 C776.314115,274.05 780.12987,270.210842 780.12987,265.475 C780.12987,260.739158 776.314115,256.9 771.607143,256.9 C766.900171,256.9 763.084416,260.739158 763.084416,265.475 C763.084416,270.210842 766.900171,274.05 771.607143,274.05 Z M744.821429,301 C737.424758,301 731.428571,294.967037 731.428571,287.525 C731.428571,280.082963 737.424758,274.05 744.821429,274.05 C752.218099,274.05 758.214286,280.082963 758.214286,287.525 C758.214286,294.967037 752.218099,301 744.821429,301 Z M744.821429,296.1 C749.528401,296.1 753.344156,292.260842 753.344156,287.525 C753.344156,282.789158 749.528401,278.95 744.821429,278.95 C740.114456,278.95 736.298701,282.789158 736.298701,287.525 C736.298701,292.260842 740.114456,296.1 744.821429,296.1 Z M423.392857,350 C415.996186,350 410,343.967037 410,336.525 C410,329.082963 415.996186,323.05 423.392857,323.05 C430.789528,323.05 436.785714,329.082963 436.785714,336.525 C436.785714,343.967037 430.789528,350 423.392857,350 Z M423.392857,345.1 C428.099829,345.1 431.915584,341.260842 431.915584,336.525 C431.915584,331.789158 428.099829,327.95 423.392857,327.95 C418.685885,327.95 414.87013,331.789158 414.87013,336.525 C414.87013,341.260842 418.685885,345.1 423.392857,345.1 Z M450.178571,327.95 C442.781901,327.95 436.785714,321.917037 436.785714,314.475 C436.785714,307.032963 442.781901,301 450.178571,301 C457.575242,301 463.571429,307.032963 463.571429,314.475 C463.571429,321.917037 457.575242,327.95 450.178571,327.95 Z M450.178571,323.05 C454.885544,323.05 458.701299,319.210842 458.701299,314.475 C458.701299,309.739158 454.885544,305.9 450.178571,305.9 C445.471599,305.9 441.655844,309.739158 441.655844,314.475 C441.655844,319.210842 445.471599,323.05 450.178571,323.05 Z M503.75,327.95 C496.353329,327.95 490.357143,321.917037 490.357143,314.475 C490.357143,307.032963 496.353329,301 503.75,301 C511.146671,301 517.142857,307.032963 517.142857,314.475 C517.142857,321.917037 511.146671,327.95 503.75,327.95 Z M503.75,323.05 C508.456972,323.05 512.272727,319.210842 512.272727,314.475 C512.272727,309.739158 508.456972,305.9 503.75,305.9 C499.043028,305.9 495.227273,309.739158 495.227273,314.475 C495.227273,319.210842 499.043028,323.05 503.75,323.05 Z M476.964286,350 C469.567615,350 463.571429,343.967037 463.571429,336.525 C463.571429,329.082963 469.567615,323.05 476.964286,323.05 C484.360956,323.05 490.357143,329.082963 490.357143,336.525 C490.357143,343.967037 484.360956,350 476.964286,350 Z M476.964286,345.1 C481.671258,345.1 485.487013,341.260842 485.487013,336.525 C485.487013,331.789158 481.671258,327.95 476.964286,327.95 C472.257313,327.95 468.441558,331.789158 468.441558,336.525 C468.441558,341.260842 472.257313,345.1 476.964286,345.1 Z M530.535714,350 C523.139044,350 517.142857,343.967037 517.142857,336.525 C517.142857,329.082963 523.139044,323.05 530.535714,323.05 C537.932385,323.05 543.928571,329.082963 543.928571,336.525 C543.928571,343.967037 537.932385,350 530.535714,350 Z M530.535714,345.1 C535.242687,345.1 539.058442,341.260842 539.058442,336.525 C539.058442,331.789158 535.242687,327.95 530.535714,327.95 C525.828742,327.95 522.012987,331.789158 522.012987,336.525 C522.012987,341.260842 525.828742,345.1 530.535714,345.1 Z M557.321429,327.95 C549.924758,327.95 543.928571,321.917037 543.928571,314.475 C543.928571,307.032963 549.924758,301 557.321429,301 C564.718099,301 570.714286,307.032963 570.714286,314.475 C570.714286,321.917037 564.718099,327.95 557.321429,327.95 Z M557.321429,323.05 C562.028401,323.05 565.844156,319.210842 565.844156,314.475 C565.844156,309.739158 562.028401,305.9 557.321429,305.9 C552.614456,305.9 548.798701,309.739158 548.798701,314.475 C548.798701,319.210842 552.614456,323.05 557.321429,323.05 Z M610.892857,327.95 C603.496186,327.95 597.5,321.917037 597.5,314.475 C597.5,307.032963 603.496186,301 610.892857,301 C618.289528,301 624.285714,307.032963 624.285714,314.475 C624.285714,321.917037 618.289528,327.95 610.892857,327.95 Z M610.892857,323.05 C615.599829,323.05 619.415584,319.210842 619.415584,314.475 C619.415584,309.739158 615.599829,305.9 610.892857,305.9 C606.185885,305.9 602.37013,309.739158 602.37013,314.475 C602.37013,319.210842 606.185885,323.05 610.892857,323.05 Z M584.107143,350 C576.710472,350 570.714286,343.967037 570.714286,336.525 C570.714286,329.082963 576.710472,323.05 584.107143,323.05 C591.503814,323.05 597.5,329.082963 597.5,336.525 C597.5,343.967037 591.503814,350 584.107143,350 Z M584.107143,345.1 C588.814115,345.1 592.62987,341.260842 592.62987,336.525 C592.62987,331.789158 588.814115,327.95 584.107143,327.95 C579.400171,327.95 575.584416,331.789158 575.584416,336.525 C575.584416,341.260842 579.400171,345.1 584.107143,345.1 Z M637.678571,350 C630.281901,350 624.285714,343.967037 624.285714,336.525 C624.285714,329.082963 630.281901,323.05 637.678571,323.05 C645.075242,323.05 651.071429,329.082963 651.071429,336.525 C651.071429,343.967037 645.075242,350 637.678571,350 Z M637.678571,345.1 C642.385544,345.1 646.201299,341.260842 646.201299,336.525 C646.201299,331.789158 642.385544,327.95 637.678571,327.95 C632.971599,327.95 629.155844,331.789158 629.155844,336.525 C629.155844,341.260842 632.971599,345.1 637.678571,345.1 Z M664.464286,327.95 C657.067615,327.95 651.071429,321.917037 651.071429,314.475 C651.071429,307.032963 657.067615,301 664.464286,301 C671.860956,301 677.857143,307.032963 677.857143,314.475 C677.857143,321.917037 671.860956,327.95 664.464286,327.95 Z M664.464286,323.05 C669.171258,323.05 672.987013,319.210842 672.987013,314.475 C672.987013,309.739158 669.171258,305.9 664.464286,305.9 C659.757313,305.9 655.941558,309.739158 655.941558,314.475 C655.941558,319.210842 659.757313,323.05 664.464286,323.05 Z M718.035714,327.95 C710.639044,327.95 704.642857,321.917037 704.642857,314.475 C704.642857,307.032963 710.639044,301 718.035714,301 C725.432385,301 731.428571,307.032963 731.428571,314.475 C731.428571,321.917037 725.432385,327.95 718.035714,327.95 Z M718.035714,323.05 C722.742687,323.05 726.558442,319.210842 726.558442,314.475 C726.558442,309.739158 722.742687,305.9 718.035714,305.9 C713.328742,305.9 709.512987,309.739158 709.512987,314.475 C709.512987,319.210842 713.328742,323.05 718.035714,323.05 Z M691.25,350 C683.853329,350 677.857143,343.967037 677.857143,336.525 C677.857143,329.082963 683.853329,323.05 691.25,323.05 C698.646671,323.05 704.642857,329.082963 704.642857,336.525 C704.642857,343.967037 698.646671,350 691.25,350 Z M691.25,345.1 C695.956972,345.1 699.772727,341.260842 699.772727,336.525 C699.772727,331.789158 695.956972,327.95 691.25,327.95 C686.543028,327.95 682.727273,331.789158 682.727273,336.525 C682.727273,341.260842 686.543028,345.1 691.25,345.1 Z M771.607143,327.95 C764.210472,327.95 758.214286,321.917037 758.214286,314.475 C758.214286,307.032963 764.210472,301 771.607143,301 C779.003814,301 785,307.032963 785,314.475 C785,321.917037 779.003814,327.95 771.607143,327.95 Z M771.607143,323.05 C776.314115,323.05 780.12987,319.210842 780.12987,314.475 C780.12987,309.739158 776.314115,305.9 771.607143,305.9 C766.900171,305.9 763.084416,309.739158 763.084416,314.475 C763.084416,319.210842 766.900171,323.05 771.607143,323.05 Z M744.821429,350 C737.424758,350 731.428571,343.967037 731.428571,336.525 C731.428571,329.082963 737.424758,323.05 744.821429,323.05 C752.218099,323.05 758.214286,329.082963 758.214286,336.525 C758.214286,343.967037 752.218099,350 744.821429,350 Z M744.821429,345.1 C749.528401,345.1 753.344156,341.260842 753.344156,336.525 C753.344156,331.789158 749.528401,327.95 744.821429,327.95 C740.114456,327.95 736.298701,331.789158 736.298701,336.525 C736.298701,341.260842 740.114456,345.1 744.821429,345.1 Z M423.392857,399 C415.996186,399 410,392.967037 410,385.525 C410,378.082963 415.996186,372.05 423.392857,372.05 C430.789528,372.05 436.785714,378.082963 436.785714,385.525 C436.785714,392.967037 430.789528,399 423.392857,399 Z M423.392857,394.1 C428.099829,394.1 431.915584,390.260842 431.915584,385.525 C431.915584,380.789158 428.099829,376.95 423.392857,376.95 C418.685885,376.95 414.87013,380.789158 414.87013,385.525 C414.87013,390.260842 418.685885,394.1 423.392857,394.1 Z M450.178571,376.95 C442.781901,376.95 436.785714,370.917037 436.785714,363.475 C436.785714,356.032963 442.781901,350 450.178571,350 C457.575242,350 463.571429,356.032963 463.571429,363.475 C463.571429,370.917037 457.575242,376.95 450.178571,376.95 Z M450.178571,372.05 C454.885544,372.05 458.701299,368.210842 458.701299,363.475 C458.701299,358.739158 454.885544,354.9 450.178571,354.9 C445.471599,354.9 441.655844,358.739158 441.655844,363.475 C441.655844,368.210842 445.471599,372.05 450.178571,372.05 Z M503.75,376.95 C496.353329,376.95 490.357143,370.917037 490.357143,363.475 C490.357143,356.032963 496.353329,350 503.75,350 C511.146671,350 517.142857,356.032963 517.142857,363.475 C517.142857,370.917037 511.146671,376.95 503.75,376.95 Z M503.75,372.05 C508.456972,372.05 512.272727,368.210842 512.272727,363.475 C512.272727,358.739158 508.456972,354.9 503.75,354.9 C499.043028,354.9 495.227273,358.739158 495.227273,363.475 C495.227273,368.210842 499.043028,372.05 503.75,372.05 Z M476.964286,399 C469.567615,399 463.571429,392.967037 463.571429,385.525 C463.571429,378.082963 469.567615,372.05 476.964286,372.05 C484.360956,372.05 490.357143,378.082963 490.357143,385.525 C490.357143,392.967037 484.360956,399 476.964286,399 Z M476.964286,394.1 C481.671258,394.1 485.487013,390.260842 485.487013,385.525 C485.487013,380.789158 481.671258,376.95 476.964286,376.95 C472.257313,376.95 468.441558,380.789158 468.441558,385.525 C468.441558,390.260842 472.257313,394.1 476.964286,394.1 Z M530.535714,399 C523.139044,399 517.142857,392.967037 517.142857,385.525 C517.142857,378.082963 523.139044,372.05 530.535714,372.05 C537.932385,372.05 543.928571,378.082963 543.928571,385.525 C543.928571,392.967037 537.932385,399 530.535714,399 Z M530.535714,394.1 C535.242687,394.1 539.058442,390.260842 539.058442,385.525 C539.058442,380.789158 535.242687,376.95 530.535714,376.95 C525.828742,376.95 522.012987,380.789158 522.012987,385.525 C522.012987,390.260842 525.828742,394.1 530.535714,394.1 Z M557.321429,376.95 C549.924758,376.95 543.928571,370.917037 543.928571,363.475 C543.928571,356.032963 549.924758,350 557.321429,350 C564.718099,350 570.714286,356.032963 570.714286,363.475 C570.714286,370.917037 564.718099,376.95 557.321429,376.95 Z M557.321429,372.05 C562.028401,372.05 565.844156,368.210842 565.844156,363.475 C565.844156,358.739158 562.028401,354.9 557.321429,354.9 C552.614456,354.9 548.798701,358.739158 548.798701,363.475 C548.798701,368.210842 552.614456,372.05 557.321429,372.05 Z M610.892857,376.95 C603.496186,376.95 597.5,370.917037 597.5,363.475 C597.5,356.032963 603.496186,350 610.892857,350 C618.289528,350 624.285714,356.032963 624.285714,363.475 C624.285714,370.917037 618.289528,376.95 610.892857,376.95 Z M610.892857,372.05 C615.599829,372.05 619.415584,368.210842 619.415584,363.475 C619.415584,358.739158 615.599829,354.9 610.892857,354.9 C606.185885,354.9 602.37013,358.739158 602.37013,363.475 C602.37013,368.210842 606.185885,372.05 610.892857,372.05 Z M584.107143,399 C576.710472,399 570.714286,392.967037 570.714286,385.525 C570.714286,378.082963 576.710472,372.05 584.107143,372.05 C591.503814,372.05 597.5,378.082963 597.5,385.525 C597.5,392.967037 591.503814,399 584.107143,399 Z M584.107143,394.1 C588.814115,394.1 592.62987,390.260842 592.62987,385.525 C592.62987,380.789158 588.814115,376.95 584.107143,376.95 C579.400171,376.95 575.584416,380.789158 575.584416,385.525 C575.584416,390.260842 579.400171,394.1 584.107143,394.1 Z M637.678571,399 C630.281901,399 624.285714,392.967037 624.285714,385.525 C624.285714,378.082963 630.281901,372.05 637.678571,372.05 C645.075242,372.05 651.071429,378.082963 651.071429,385.525 C651.071429,392.967037 645.075242,399 637.678571,399 Z M637.678571,394.1 C642.385544,394.1 646.201299,390.260842 646.201299,385.525 C646.201299,380.789158 642.385544,376.95 637.678571,376.95 C632.971599,376.95 629.155844,380.789158 629.155844,385.525 C629.155844,390.260842 632.971599,394.1 637.678571,394.1 Z M664.464286,376.95 C657.067615,376.95 651.071429,370.917037 651.071429,363.475 C651.071429,356.032963 657.067615,350 664.464286,350 C671.860956,350 677.857143,356.032963 677.857143,363.475 C677.857143,370.917037 671.860956,376.95 664.464286,376.95 Z M664.464286,372.05 C669.171258,372.05 672.987013,368.210842 672.987013,363.475 C672.987013,358.739158 669.171258,354.9 664.464286,354.9 C659.757313,354.9 655.941558,358.739158 655.941558,363.475 C655.941558,368.210842 659.757313,372.05 664.464286,372.05 Z M718.035714,376.95 C710.639044,376.95 704.642857,370.917037 704.642857,363.475 C704.642857,356.032963 710.639044,350 718.035714,350 C725.432385,350 731.428571,356.032963 731.428571,363.475 C731.428571,370.917037 725.432385,376.95 718.035714,376.95 Z M718.035714,372.05 C722.742687,372.05 726.558442,368.210842 726.558442,363.475 C726.558442,358.739158 722.742687,354.9 718.035714,354.9 C713.328742,354.9 709.512987,358.739158 709.512987,363.475 C709.512987,368.210842 713.328742,372.05 718.035714,372.05 Z M691.25,399 C683.853329,399 677.857143,392.967037 677.857143,385.525 C677.857143,378.082963 683.853329,372.05 691.25,372.05 C698.646671,372.05 704.642857,378.082963 704.642857,385.525 C704.642857,392.967037 698.646671,399 691.25,399 Z M691.25,394.1 C695.956972,394.1 699.772727,390.260842 699.772727,385.525 C699.772727,380.789158 695.956972,376.95 691.25,376.95 C686.543028,376.95 682.727273,380.789158 682.727273,385.525 C682.727273,390.260842 686.543028,394.1 691.25,394.1 Z M771.607143,376.95 C764.210472,376.95 758.214286,370.917037 758.214286,363.475 C758.214286,356.032963 764.210472,350 771.607143,350 C779.003814,350 785,356.032963 785,363.475 C785,370.917037 779.003814,376.95 771.607143,376.95 Z M771.607143,372.05 C776.314115,372.05 780.12987,368.210842 780.12987,363.475 C780.12987,358.739158 776.314115,354.9 771.607143,354.9 C766.900171,354.9 763.084416,358.739158 763.084416,363.475 C763.084416,368.210842 766.900171,372.05 771.607143,372.05 Z M744.821429,399 C737.424758,399 731.428571,392.967037 731.428571,385.525 C731.428571,378.082963 737.424758,372.05 744.821429,372.05 C752.218099,372.05 758.214286,378.082963 758.214286,385.525 C758.214286,392.967037 752.218099,399 744.821429,399 Z M744.821429,394.1 C749.528401,394.1 753.344156,390.260842 753.344156,385.525 C753.344156,380.789158 749.528401,376.95 744.821429,376.95 C740.114456,376.95 736.298701,380.789158 736.298701,385.525 C736.298701,390.260842 740.114456,394.1 744.821429,394.1 Z" id="hollow-circle"></path>
        </g>
    </g>
</svg>