<?xml version="1.0" encoding="UTF-8"?>
<svg width="376px" height="405px" viewBox="0 0 376 405" version="1.1" xmlns="http://www.w3.org/2000/svg" xmlns:xlink="http://www.w3.org/1999/xlink">
    <!-- Generator: Sketch 52.3 (67297) - http://www.bohemiancoding.com/sketch -->
    <title>lines</title>
    <desc>Created with Sketch.</desc>
    <g id="Style-Guide" stroke="none" stroke-width="1" fill="none" fill-rule="evenodd">
        <g id="Textures-Copy" fill="#F98D00">
            <g id="Combined-Shape">
                <path d="M-146.370844,-81.5578755 L-130.370844,-81.5578755 L-130.370844,670.442125 L-146.370844,670.442125 L-146.370844,-81.5578755 Z M-192.370844,-81.5578755 L-176.370844,-81.5578755 L-176.370844,670.442125 L-192.370844,670.442125 L-192.370844,-81.5578755 Z M-100.370844,-81.5578755 L-84.3708438,-81.5578755 L-84.3708438,670.442125 L-100.370844,670.442125 L-100.370844,-81.5578755 Z M-8.37084381,-81.5578755 L7.62915619,-81.5578755 L7.62915619,670.442125 L-8.37084381,670.442125 L-8.37084381,-81.5578755 Z M-54.3708438,-81.5578755 L-38.3708438,-81.5578755 L-38.3708438,670.442125 L-54.3708438,670.442125 L-54.3708438,-81.5578755 Z M37.6291562,-81.5578755 L53.6291562,-81.5578755 L53.6291562,670.442125 L37.6291562,670.442125 L37.6291562,-81.5578755 Z M129.629156,-81.5578755 L145.629156,-81.5578755 L145.629156,670.442125 L129.629156,670.442125 L129.629156,-81.5578755 Z M83.6291562,-81.5578755 L99.6291562,-81.5578755 L99.6291562,670.442125 L83.6291562,670.442125 L83.6291562,-81.5578755 Z M175.629156,-81.5578755 L191.629156,-81.5578755 L191.629156,670.442125 L175.629156,670.442125 L175.629156,-81.5578755 Z M267.629156,-81.5578755 L283.629156,-81.5578755 L283.629156,670.442125 L267.629156,670.442125 L267.629156,-81.5578755 Z M221.629156,-81.5578755 L237.629156,-81.5578755 L237.629156,670.442125 L221.629156,670.442125 L221.629156,-81.5578755 Z M313.629156,-81.5578755 L329.629156,-81.5578755 L329.629156,670.442125 L313.629156,670.442125 L313.629156,-81.5578755 Z M405.629156,-81.5578755 L421.629156,-81.5578755 L421.629156,670.442125 L405.629156,670.442125 L405.629156,-81.5578755 Z M359.629156,-81.5578755 L375.629156,-81.5578755 L375.629156,670.442125 L359.629156,670.442125 L359.629156,-81.5578755 Z M451.629156,-81.5578755 L467.629156,-81.5578755 L467.629156,670.442125 L451.629156,670.442125 L451.629156,-81.5578755 Z M497.629156,-81.5578755 L513.629156,-81.5578755 L513.629156,670.442125 L497.629156,670.442125 L497.629156,-81.5578755 Z M543.629156,-81.5578755 L559.629156,-81.5578755 L559.629156,670.442125 L543.629156,670.442125 L543.629156,-81.5578755 Z" id="lines"></path>
            </g>
        </g>
    </g>
</svg>