<?xml version="1.0" encoding="UTF-8"?>
<svg width="1582px" height="110px" viewBox="0 0 1582 110" version="1.1" xmlns="http://www.w3.org/2000/svg" xmlns:xlink="http://www.w3.org/1999/xlink">
    <!-- Generator: Sketch 52.6 (67491) - http://www.bohemiancoding.com/sketch -->
    <title>Combined Shape Copy 3</title>
    <desc>Created with Sketch.</desc>
    <g id="Style-Guide" stroke="none" stroke-width="1" fill="none" fill-rule="evenodd">
        <g id="Textures-Copy" transform="translate(-166.000000, -460.000000)" fill="#F2F2F2" fill-rule="nonzero">
            <path d="M947.159924,520 L947,520 L947.040769,512.459443 C947.197637,483.445232 970.755698,460 999.762,460 C1028.7683,460 1052.32636,483.445232 1052.48323,512.459443 L1052.524,520 L1033.78249,520 L1033.73854,512.544224 C1033.62833,493.850692 1018.44742,478.75 999.762,478.75 C981.932182,478.75 967.293284,492.499434 965.894288,510 L966.054212,510 L966.013443,517.540557 C965.856575,546.554768 942.298514,570 913.292212,570 C884.28591,570 860.727849,546.554768 860.570981,517.540557 L860.530212,510 L879.271719,510 L879.315674,517.455776 C879.425881,536.149308 894.606789,551.25 913.292212,551.25 C931.12203,551.25 945.760928,537.500566 947.159924,520 Z M556.667153,512.459443 C556.824021,483.445232 580.382082,460 609.388384,460 C638.394686,460 661.952748,483.445232 662.109615,512.459443 L662.150384,520 L643.408878,520 L643.364922,512.544224 C643.254715,493.850692 628.073807,478.75 609.388384,478.75 C590.828566,478.75 575.726306,493.648358 575.416108,512.167736 L575.387059,517.540557 C575.230191,546.554768 551.67213,570 522.665828,570 C493.659526,570 470.101464,546.554768 469.944597,517.540557 L469.903828,510 L488.645335,510 L488.68929,517.455776 C488.799497,536.149308 503.980405,551.25 522.665828,551.25 C541.225646,551.25 556.327906,536.351642 556.638104,517.832264 L556.667153,512.459443 Z M426.458358,512.459443 C426.615226,483.445232 450.173287,460 479.179589,460 C508.185892,460 531.743953,483.445232 531.900821,512.459443 L531.941589,520 L513.200083,520 L513.156128,512.544224 C513.04592,493.850692 497.865012,478.75 479.179589,478.75 C460.619772,478.75 445.517512,493.648358 445.207313,512.167736 L445.178265,517.540557 C445.021397,546.554768 421.463336,570 392.457033,570 C363.450731,570 339.89267,546.554768 339.735802,517.540557 L339.695033,510 L358.43654,510 L358.480495,517.455776 C358.590702,536.149308 373.77161,551.25 392.457033,551.25 C411.016851,551.25 426.119111,536.351642 426.429309,517.832264 L426.458358,512.459443 Z M314.96947,517.540557 C314.812602,546.554768 291.254541,570 262.248239,570 C233.241936,570 209.683875,546.554768 209.527007,517.540557 L209.486239,510 L228.227745,510 L228.2717,517.455776 C228.381908,536.149308 243.562816,551.25 262.248239,551.25 C280.808056,551.25 295.910316,536.351642 296.220515,517.832264 L296.249563,512.459443 C296.406431,483.445232 319.964492,460 348.970795,460 C377.977097,460 401.535158,483.445232 401.692026,512.459443 L401.732795,520 L382.991288,520 L382.947333,512.544224 C382.837126,493.850692 367.656218,478.75 348.970795,478.75 C330.410977,478.75 315.308717,493.648358 314.998519,512.167736 L314.96947,517.540557 Z M166.040769,512.459443 C166.197637,483.445232 189.755698,460 218.762,460 C247.768302,460 271.326364,483.445232 271.483231,512.459443 L271.524,520 L252.782493,520 L252.738538,512.544224 C252.628331,493.850692 237.447423,478.75 218.762,478.75 C200.076577,478.75 184.895669,493.850692 184.785462,512.544224 L184.741507,520 L166,520 L166.040769,512.459443 Z M817.084742,512.459443 C817.24161,483.445232 840.799671,460 869.805973,460 C898.812276,460 922.370337,483.445232 922.527205,512.459443 L922.567973,520 L903.826467,520 L903.782512,512.544224 C903.672304,493.850692 888.491396,478.75 869.805973,478.75 C851.246156,478.75 836.143896,493.648358 835.833697,512.167736 L835.804649,517.540557 C835.647781,546.554768 812.08972,570 783.083417,570 C754.077115,570 730.519054,546.554768 730.362186,517.540557 L730.321417,510 L749.062924,510 L749.106879,517.455776 C749.217086,536.149308 764.397994,551.25 783.083417,551.25 C801.643235,551.25 816.745495,536.351642 817.055693,517.832264 L817.084742,512.459443 Z M705.624903,512.167736 L705.595854,517.540557 C705.438986,546.554768 681.880925,570 652.874623,570 C623.86832,570 600.310259,546.554768 600.153391,517.540557 L600.112623,510 L618.854129,510 L618.898085,517.455776 C619.008292,536.149308 634.1892,551.25 652.874623,551.25 C671.434441,551.25 686.5367,536.351642 686.846899,517.832264 L686.875947,512.459443 C687.032815,483.445232 710.590876,460 739.597179,460 C768.603481,460 792.161542,483.445232 792.31841,512.459443 L792.359179,520 L773.617672,520 L773.573717,512.544224 C773.46351,493.850692 758.282602,478.75 739.597179,478.75 C721.037361,478.75 705.935101,493.648358 705.624903,512.167736 Z M1337.66715,512.459443 C1337.82402,483.445232 1361.38208,460 1390.38838,460 C1419.39469,460 1442.95275,483.445232 1443.10962,512.459443 L1443.15038,520 L1424.40888,520 L1424.36492,512.544224 C1424.25471,493.850692 1409.07381,478.75 1390.38838,478.75 C1371.82857,478.75 1356.72631,493.648358 1356.41611,512.167736 L1356.38706,517.540557 C1356.23019,546.554768 1332.67213,570 1303.66583,570 C1274.65953,570 1251.10146,546.554768 1250.9446,517.540557 L1250.90383,510 L1269.64533,510 L1269.68929,517.455776 C1269.7995,536.149308 1284.9804,551.25 1303.66583,551.25 C1322.22565,551.25 1337.32791,536.351642 1337.6381,517.832264 L1337.66715,512.459443 Z M1207.45836,512.459443 C1207.61523,483.445232 1231.17329,460 1260.17959,460 C1289.18589,460 1312.74395,483.445232 1312.90082,512.459443 L1312.94159,520 L1294.20008,520 L1294.15613,512.544224 C1294.04592,493.850692 1278.86501,478.75 1260.17959,478.75 C1241.61977,478.75 1226.51751,493.648358 1226.20731,512.167736 L1226.17826,517.540557 C1226.0214,546.554768 1202.46334,570 1173.45703,570 C1144.45073,570 1120.89267,546.554768 1120.7358,517.540557 L1120.69503,510 L1139.43654,510 L1139.4805,517.455776 C1139.5907,536.149308 1154.77161,551.25 1173.45703,551.25 C1192.01685,551.25 1207.11911,536.351642 1207.42931,517.832264 L1207.45836,512.459443 Z M1095.96947,517.540557 C1095.8126,546.554768 1072.25454,570 1043.24824,570 C1014.24194,570 990.683875,546.554768 990.527007,517.540557 L990.486239,510 L1009.22775,510 L1009.2717,517.455776 C1009.38191,536.149308 1024.56282,551.25 1043.24824,551.25 C1061.80806,551.25 1076.91032,536.351642 1077.22051,517.832264 L1077.24956,512.459443 C1077.40643,483.445232 1100.96449,460 1129.97079,460 C1158.9771,460 1182.53516,483.445232 1182.69203,512.459443 L1182.73279,520 L1163.99129,520 L1163.94733,512.544224 C1163.83713,493.850692 1148.65622,478.75 1129.97079,478.75 C1111.41098,478.75 1096.30872,493.648358 1095.99852,512.167736 L1095.96947,517.540557 Z M1598.08474,512.459443 C1598.24161,483.445232 1621.79967,460 1650.80597,460 C1679.81228,460 1703.37034,483.445232 1703.5272,512.459443 L1703.56797,520 L1684.82647,520 L1684.78251,512.544224 C1684.6723,493.850692 1669.4914,478.75 1650.80597,478.75 C1632.24616,478.75 1617.1439,493.648358 1616.8337,512.167736 L1616.80465,517.540557 C1616.64778,546.554768 1593.08972,570 1564.08342,570 C1535.07711,570 1511.51905,546.554768 1511.36219,517.540557 L1511.32142,510 L1530.06292,510 L1530.10688,517.455776 C1530.21709,536.149308 1545.39799,551.25 1564.08342,551.25 C1582.64324,551.25 1597.74549,536.351642 1598.05569,517.832264 L1598.08474,512.459443 Z M1486.6249,512.167736 L1486.59585,517.540557 C1486.43899,546.554768 1462.88093,570 1433.87462,570 C1404.86832,570 1381.31026,546.554768 1381.15339,517.540557 L1381.11262,510 L1399.85413,510 L1399.89808,517.455776 C1400.00829,536.149308 1415.1892,551.25 1433.87462,551.25 C1452.43444,551.25 1467.5367,536.351642 1467.8469,517.832264 L1467.87595,512.459443 C1468.03282,483.445232 1491.59088,460 1520.59718,460 C1549.60348,460 1573.16154,483.445232 1573.31841,512.459443 L1573.35918,520 L1554.61767,520 L1554.57372,512.544224 C1554.46351,493.850692 1539.2826,478.75 1520.59718,478.75 C1502.03736,478.75 1486.9351,493.648358 1486.6249,512.167736 Z M1641.57098,517.540557 L1641.53021,510 L1660.27172,510 L1660.31567,517.455776 C1660.42588,536.149308 1675.60679,551.25 1694.29221,551.25 C1712.97764,551.25 1728.15854,536.149308 1728.26875,517.455776 L1728.31271,510 L1747.05421,510 L1747.01344,517.540557 C1746.85658,546.554768 1723.29851,570 1694.29221,570 C1665.28591,570 1641.72785,546.554768 1641.57098,517.540557 Z" id="Combined-Shape-Copy-3"></path>
        </g>
    </g>
</svg>