<?xml version="1.0" encoding="UTF-8"?>
<svg width="744px" height="310px" viewBox="0 0 744 310" version="1.1" xmlns="http://www.w3.org/2000/svg" xmlns:xlink="http://www.w3.org/1999/xlink">
    <!-- Generator: Sketch 52.6 (67491) - http://www.bohemiancoding.com/sketch -->
    <title>Combined Shape</title>
    <desc>Created with Sketch.</desc>
    <g id="Symbols" stroke="none" stroke-width="1" fill="none" fill-rule="evenodd">
        <g id="tile-5" fill="#131515">
            <path d="M33.868505,1.14499985 L33.9016156,1.17234677 C35.9834065,2.89175383 36.2771767,5.97323367 34.5577697,8.05502464 C34.5415991,8.07460338 34.5252762,8.09405584 34.5088024,8.11338024 L8.79790905,38.2734049 C7.02615764,40.3517484 3.91453521,40.6239465 1.80883736,38.8847941 L1.77572677,38.8574472 C-0.306064195,37.1380401 -0.599834395,34.0565603 1.11957266,31.9747693 C1.13574327,31.9551906 1.15206618,31.9357381 1.16853989,31.9164137 L26.8794333,1.75638901 C28.6511847,-0.321954418 31.7628071,-0.594152547 33.868505,1.14499985 Z M118.832823,1.14499985 L118.865934,1.17234677 C120.947725,2.89175383 121.241495,5.97323367 119.522088,8.05502464 C119.505917,8.07460338 119.489594,8.09405584 119.473121,8.11338024 L93.7622271,38.2734049 C91.9904757,40.3517484 88.8788533,40.6239465 86.7731554,38.8847941 L86.7400449,38.8574472 C84.6582539,37.1380401 84.3644837,34.0565603 86.0838907,31.9747693 C86.1000614,31.9551906 86.1163843,31.9357381 86.132858,31.9164137 L111.843751,1.75638901 C113.615503,-0.321954418 116.727125,-0.594152547 118.832823,1.14499985 Z M203.797141,1.14499985 L203.830252,1.17234677 C205.912043,2.89175383 206.205813,5.97323367 204.486406,8.05502464 C204.470235,8.07460338 204.453912,8.09405584 204.437439,8.11338024 L178.726545,38.2734049 C176.954794,40.3517484 173.843171,40.6239465 171.737474,38.8847941 L171.704363,38.8574472 C169.622572,37.1380401 169.328802,34.0565603 171.048209,31.9747693 C171.064379,31.9551906 171.080702,31.9357381 171.097176,31.9164137 L196.808069,1.75638901 C198.579821,-0.321954418 201.691443,-0.594152547 203.797141,1.14499985 Z M288.761459,1.14499985 L288.79457,1.17234677 C290.876361,2.89175383 291.170131,5.97323367 289.450724,8.05502464 C289.434553,8.07460338 289.41823,8.09405584 289.401757,8.11338024 L263.690863,38.2734049 C261.919112,40.3517484 258.807489,40.6239465 256.701792,38.8847941 L256.668681,38.8574472 C254.58689,37.1380401 254.29312,34.0565603 256.012527,31.9747693 C256.028698,31.9551906 256.04502,31.9357381 256.061494,31.9164137 L281.772388,1.75638901 C283.544139,-0.321954418 286.655761,-0.594152547 288.761459,1.14499985 Z M373.725777,1.14499985 L373.758888,1.17234677 C375.840679,2.89175383 376.134449,5.97323367 374.415042,8.05502464 C374.398871,8.07460338 374.382548,8.09405584 374.366075,8.11338024 L348.655181,38.2734049 C346.88343,40.3517484 343.771808,40.6239465 341.66611,38.8847941 L341.632999,38.8574472 C339.551208,37.1380401 339.257438,34.0565603 340.976845,31.9747693 C340.993016,31.9551906 341.009339,31.9357381 341.025812,31.9164137 L366.736706,1.75638901 C368.508457,-0.321954418 371.620079,-0.594152547 373.725777,1.14499985 Z M458.690095,1.14499985 L458.723206,1.17234677 C460.804997,2.89175383 461.098767,5.97323367 459.37936,8.05502464 C459.363189,8.07460338 459.346867,8.09405584 459.330393,8.11338024 L433.619499,38.2734049 C431.847748,40.3517484 428.736126,40.6239465 426.630428,38.8847941 L426.597317,38.8574472 C424.515526,37.1380401 424.221756,34.0565603 425.941163,31.9747693 C425.957334,31.9551906 425.973657,31.9357381 425.99013,31.9164137 L451.701024,1.75638901 C453.472775,-0.321954418 456.584398,-0.594152547 458.690095,1.14499985 Z M543.654413,1.14499985 L543.687524,1.17234677 C545.769315,2.89175383 546.063085,5.97323367 544.343678,8.05502464 C544.327508,8.07460338 544.311185,8.09405584 544.294711,8.11338024 L518.583818,38.2734049 C516.812066,40.3517484 513.700444,40.6239465 511.594746,38.8847941 L511.561635,38.8574472 C509.479844,37.1380401 509.186074,34.0565603 510.905481,31.9747693 C510.921652,31.9551906 510.937975,31.9357381 510.954448,31.9164137 L536.665342,1.75638901 C538.437093,-0.321954418 541.548716,-0.594152547 543.654413,1.14499985 Z M628.618732,1.14499985 L628.651842,1.17234677 C630.733633,2.89175383 631.027403,5.97323367 629.307996,8.05502464 C629.291826,8.07460338 629.275503,8.09405584 629.259029,8.11338024 L603.548136,38.2734049 C601.776384,40.3517484 598.664762,40.6239465 596.559064,38.8847941 L596.525953,38.8574472 C594.444162,37.1380401 594.150392,34.0565603 595.869799,31.9747693 C595.88597,31.9551906 595.902293,31.9357381 595.918766,31.9164137 L621.62966,1.75638901 C623.401411,-0.321954418 626.513034,-0.594152547 628.618732,1.14499985 Z M713.58305,1.14499985 L713.61616,1.17234677 C715.697951,2.89175383 715.991721,5.97323367 714.272314,8.05502464 C714.256144,8.07460338 714.239821,8.09405584 714.223347,8.11338024 L688.512454,38.2734049 C686.740702,40.3517484 683.62908,40.6239465 681.523382,38.8847941 L681.490271,38.8574472 C679.40848,37.1380401 679.11471,34.0565603 680.834117,31.9747693 C680.850288,31.9551906 680.866611,31.9357381 680.883085,31.9164137 L706.593978,1.75638901 C708.365729,-0.321954418 711.477352,-0.594152547 713.58305,1.14499985 Z M33.868505,181.145 L33.9016156,181.172347 C35.9834065,182.891754 36.2771767,185.973234 34.5577697,188.055025 C34.5415991,188.074603 34.5252762,188.094056 34.5088024,188.11338 L8.79790905,218.273405 C7.02615764,220.351748 3.91453521,220.623947 1.80883736,218.884794 L1.77572677,218.857447 C-0.306064195,217.13804 -0.599834395,214.05656 1.11957266,211.974769 C1.13574327,211.955191 1.15206618,211.935738 1.16853989,211.916414 L26.8794333,181.756389 C28.6511847,179.678046 31.7628071,179.405847 33.868505,181.145 Z M118.832823,181.145 L118.865934,181.172347 C120.947725,182.891754 121.241495,185.973234 119.522088,188.055025 C119.505917,188.074603 119.489594,188.094056 119.473121,188.11338 L93.7622271,218.273405 C91.9904757,220.351748 88.8788533,220.623947 86.7731554,218.884794 L86.7400449,218.857447 C84.6582539,217.13804 84.3644837,214.05656 86.0838907,211.974769 C86.1000614,211.955191 86.1163843,211.935738 86.132858,211.916414 L111.843751,181.756389 C113.615503,179.678046 116.727125,179.405847 118.832823,181.145 Z M203.797141,181.145 L203.830252,181.172347 C205.912043,182.891754 206.205813,185.973234 204.486406,188.055025 C204.470235,188.074603 204.453912,188.094056 204.437439,188.11338 L178.726545,218.273405 C176.954794,220.351748 173.843171,220.623947 171.737474,218.884794 L171.704363,218.857447 C169.622572,217.13804 169.328802,214.05656 171.048209,211.974769 C171.064379,211.955191 171.080702,211.935738 171.097176,211.916414 L196.808069,181.756389 C198.579821,179.678046 201.691443,179.405847 203.797141,181.145 Z M288.761459,181.145 L288.79457,181.172347 C290.876361,182.891754 291.170131,185.973234 289.450724,188.055025 C289.434553,188.074603 289.41823,188.094056 289.401757,188.11338 L263.690863,218.273405 C261.919112,220.351748 258.807489,220.623947 256.701792,218.884794 L256.668681,218.857447 C254.58689,217.13804 254.29312,214.05656 256.012527,211.974769 C256.028698,211.955191 256.04502,211.935738 256.061494,211.916414 L281.772388,181.756389 C283.544139,179.678046 286.655761,179.405847 288.761459,181.145 Z M373.725777,181.145 L373.758888,181.172347 C375.840679,182.891754 376.134449,185.973234 374.415042,188.055025 C374.398871,188.074603 374.382548,188.094056 374.366075,188.11338 L348.655181,218.273405 C346.88343,220.351748 343.771808,220.623947 341.66611,218.884794 L341.632999,218.857447 C339.551208,217.13804 339.257438,214.05656 340.976845,211.974769 C340.993016,211.955191 341.009339,211.935738 341.025812,211.916414 L366.736706,181.756389 C368.508457,179.678046 371.620079,179.405847 373.725777,181.145 Z M458.690095,181.145 L458.723206,181.172347 C460.804997,182.891754 461.098767,185.973234 459.37936,188.055025 C459.363189,188.074603 459.346867,188.094056 459.330393,188.11338 L433.619499,218.273405 C431.847748,220.351748 428.736126,220.623947 426.630428,218.884794 L426.597317,218.857447 C424.515526,217.13804 424.221756,214.05656 425.941163,211.974769 C425.957334,211.955191 425.973657,211.935738 425.99013,211.916414 L451.701024,181.756389 C453.472775,179.678046 456.584398,179.405847 458.690095,181.145 Z M543.654413,181.145 L543.687524,181.172347 C545.769315,182.891754 546.063085,185.973234 544.343678,188.055025 C544.327508,188.074603 544.311185,188.094056 544.294711,188.11338 L518.583818,218.273405 C516.812066,220.351748 513.700444,220.623947 511.594746,218.884794 L511.561635,218.857447 C509.479844,217.13804 509.186074,214.05656 510.905481,211.974769 C510.921652,211.955191 510.937975,211.935738 510.954448,211.916414 L536.665342,181.756389 C538.437093,179.678046 541.548716,179.405847 543.654413,181.145 Z M628.618732,181.145 L628.651842,181.172347 C630.733633,182.891754 631.027403,185.973234 629.307996,188.055025 C629.291826,188.074603 629.275503,188.094056 629.259029,188.11338 L603.548136,218.273405 C601.776384,220.351748 598.664762,220.623947 596.559064,218.884794 L596.525953,218.857447 C594.444162,217.13804 594.150392,214.05656 595.869799,211.974769 C595.88597,211.955191 595.902293,211.935738 595.918766,211.916414 L621.62966,181.756389 C623.401411,179.678046 626.513034,179.405847 628.618732,181.145 Z M713.58305,181.145 L713.61616,181.172347 C715.697951,182.891754 715.991721,185.973234 714.272314,188.055025 C714.256144,188.074603 714.239821,188.094056 714.223347,188.11338 L688.512454,218.273405 C686.740702,220.351748 683.62908,220.623947 681.523382,218.884794 L681.490271,218.857447 C679.40848,217.13804 679.11471,214.05656 680.834117,211.974769 C680.850288,211.955191 680.866611,211.935738 680.883085,211.916414 L706.593978,181.756389 C708.365729,179.678046 711.477352,179.405847 713.58305,181.145 Z M61.8780022,91.1236981 L61.9111128,91.151045 C63.9929038,92.870452 64.286674,95.9519319 62.5672669,98.0337228 C62.5510963,98.0533016 62.5347734,98.072754 62.5182997,98.0920784 L36.8074063,128.252103 C35.0356549,130.330447 31.9240324,130.602645 29.8183346,128.863492 L29.785224,128.836145 C27.703433,127.116738 27.4096628,124.035258 29.1290699,121.953468 C29.1452405,121.933889 29.1615634,121.914436 29.1780371,121.895112 L54.8889305,91.7350872 C56.6606819,89.6567438 59.7723044,89.3845457 61.8780022,91.1236981 Z M146.84232,91.1236981 L146.875431,91.151045 C148.957222,92.870452 149.250992,95.9519319 147.531585,98.0337228 C147.515414,98.0533016 147.499091,98.072754 147.482618,98.0920784 L121.771724,128.252103 C119.999973,130.330447 116.888351,130.602645 114.782653,128.863492 L114.749542,128.836145 C112.667751,127.116738 112.373981,124.035258 114.093388,121.953468 C114.109559,121.933889 114.125881,121.914436 114.142355,121.895112 L139.853249,91.7350872 C141.625,89.6567438 144.736622,89.3845457 146.84232,91.1236981 Z M231.806638,91.1236981 L231.839749,91.151045 C233.92154,92.870452 234.21531,95.9519319 232.495903,98.0337228 C232.479732,98.0533016 232.46341,98.072754 232.446936,98.0920784 L206.736042,128.252103 C204.964291,130.330447 201.852669,130.602645 199.746971,128.863492 L199.71386,128.836145 C197.632069,127.116738 197.338299,124.035258 199.057706,121.953468 C199.073877,121.933889 199.0902,121.914436 199.106673,121.895112 L224.817567,91.7350872 C226.589318,89.6567438 229.700941,89.3845457 231.806638,91.1236981 Z M316.770956,91.1236981 L316.804067,91.151045 C318.885858,92.870452 319.179628,95.9519319 317.460221,98.0337228 C317.444051,98.0533016 317.427728,98.072754 317.411254,98.0920784 L291.700361,128.252103 C289.928609,130.330447 286.816987,130.602645 284.711289,128.863492 L284.678178,128.836145 C282.596387,127.116738 282.302617,124.035258 284.022024,121.953468 C284.038195,121.933889 284.054518,121.914436 284.070991,121.895112 L309.781885,91.7350872 C311.553636,89.6567438 314.665259,89.3845457 316.770956,91.1236981 Z M401.735275,91.1236981 L401.768385,91.151045 C403.850176,92.870452 404.143946,95.9519319 402.424539,98.0337228 C402.408369,98.0533016 402.392046,98.072754 402.375572,98.0920784 L376.664679,128.252103 C374.892927,130.330447 371.781305,130.602645 369.675607,128.863492 L369.642496,128.836145 C367.560705,127.116738 367.266935,124.035258 368.986342,121.953468 C369.002513,121.933889 369.018836,121.914436 369.035309,121.895112 L394.746203,91.7350872 C396.517954,89.6567438 399.629577,89.3845457 401.735275,91.1236981 Z M486.699593,91.1236981 L486.732703,91.151045 C488.814494,92.870452 489.108264,95.9519319 487.388857,98.0337228 C487.372687,98.0533016 487.356364,98.072754 487.33989,98.0920784 L461.628997,128.252103 C459.857245,130.330447 456.745623,130.602645 454.639925,128.863492 L454.606814,128.836145 C452.525023,127.116738 452.231253,124.035258 453.95066,121.953468 C453.966831,121.933889 453.983154,121.914436 453.999628,121.895112 L479.710521,91.7350872 C481.482272,89.6567438 484.593895,89.3845457 486.699593,91.1236981 Z M571.663911,91.1236981 L571.697021,91.151045 C573.778812,92.870452 574.072582,95.9519319 572.353175,98.0337228 C572.337005,98.0533016 572.320682,98.072754 572.304208,98.0920784 L546.593315,128.252103 C544.821563,130.330447 541.709941,130.602645 539.604243,128.863492 L539.571133,128.836145 C537.489342,127.116738 537.195571,124.035258 538.914978,121.953468 C538.931149,121.933889 538.947472,121.914436 538.963946,121.895112 L564.674839,91.7350872 C566.44659,89.6567438 569.558213,89.3845457 571.663911,91.1236981 Z M656.628229,91.1236981 L656.661339,91.151045 C658.74313,92.870452 659.036901,95.9519319 657.317493,98.0337228 C657.301323,98.0533016 657.285,98.072754 657.268526,98.0920784 L631.557633,128.252103 C629.785881,130.330447 626.674259,130.602645 624.568561,128.863492 L624.535451,128.836145 C622.45366,127.116738 622.159889,124.035258 623.879296,121.953468 C623.895467,121.933889 623.91179,121.914436 623.928264,121.895112 L649.639157,91.7350872 C651.410909,89.6567438 654.522531,89.3845457 656.628229,91.1236981 Z M741.592547,91.1236981 L741.625657,91.151045 C743.707448,92.870452 744.001219,95.9519319 742.281812,98.0337228 C742.265641,98.0533016 742.249318,98.072754 742.232844,98.0920784 L716.521951,128.252103 C714.7502,130.330447 711.638577,130.602645 709.532879,128.863492 L709.499769,128.836145 C707.417978,127.116738 707.124208,124.035258 708.843615,121.953468 C708.859785,121.933889 708.876108,121.914436 708.892582,121.895112 L734.603475,91.7350872 C736.375227,89.6567438 739.486849,89.3845457 741.592547,91.1236981 Z M61.8780022,271.123698 L61.9111128,271.151045 C63.9929038,272.870452 64.286674,275.951932 62.5672669,278.033723 C62.5510963,278.053302 62.5347734,278.072754 62.5182997,278.092078 L36.8074063,308.252103 C35.0356549,310.330447 31.9240324,310.602645 29.8183346,308.863492 L29.785224,308.836145 C27.703433,307.116738 27.4096628,304.035258 29.1290699,301.953468 C29.1452405,301.933889 29.1615634,301.914436 29.1780371,301.895112 L54.8889305,271.735087 C56.6606819,269.656744 59.7723044,269.384546 61.8780022,271.123698 Z M146.84232,271.123698 L146.875431,271.151045 C148.957222,272.870452 149.250992,275.951932 147.531585,278.033723 C147.515414,278.053302 147.499091,278.072754 147.482618,278.092078 L121.771724,308.252103 C119.999973,310.330447 116.888351,310.602645 114.782653,308.863492 L114.749542,308.836145 C112.667751,307.116738 112.373981,304.035258 114.093388,301.953468 C114.109559,301.933889 114.125881,301.914436 114.142355,301.895112 L139.853249,271.735087 C141.625,269.656744 144.736622,269.384546 146.84232,271.123698 Z M231.806638,271.123698 L231.839749,271.151045 C233.92154,272.870452 234.21531,275.951932 232.495903,278.033723 C232.479732,278.053302 232.46341,278.072754 232.446936,278.092078 L206.736042,308.252103 C204.964291,310.330447 201.852669,310.602645 199.746971,308.863492 L199.71386,308.836145 C197.632069,307.116738 197.338299,304.035258 199.057706,301.953468 C199.073877,301.933889 199.0902,301.914436 199.106673,301.895112 L224.817567,271.735087 C226.589318,269.656744 229.700941,269.384546 231.806638,271.123698 Z M316.770956,271.123698 L316.804067,271.151045 C318.885858,272.870452 319.179628,275.951932 317.460221,278.033723 C317.444051,278.053302 317.427728,278.072754 317.411254,278.092078 L291.700361,308.252103 C289.928609,310.330447 286.816987,310.602645 284.711289,308.863492 L284.678178,308.836145 C282.596387,307.116738 282.302617,304.035258 284.022024,301.953468 C284.038195,301.933889 284.054518,301.914436 284.070991,301.895112 L309.781885,271.735087 C311.553636,269.656744 314.665259,269.384546 316.770956,271.123698 Z M401.735275,271.123698 L401.768385,271.151045 C403.850176,272.870452 404.143946,275.951932 402.424539,278.033723 C402.408369,278.053302 402.392046,278.072754 402.375572,278.092078 L376.664679,308.252103 C374.892927,310.330447 371.781305,310.602645 369.675607,308.863492 L369.642496,308.836145 C367.560705,307.116738 367.266935,304.035258 368.986342,301.953468 C369.002513,301.933889 369.018836,301.914436 369.035309,301.895112 L394.746203,271.735087 C396.517954,269.656744 399.629577,269.384546 401.735275,271.123698 Z M486.699593,271.123698 L486.732703,271.151045 C488.814494,272.870452 489.108264,275.951932 487.388857,278.033723 C487.372687,278.053302 487.356364,278.072754 487.33989,278.092078 L461.628997,308.252103 C459.857245,310.330447 456.745623,310.602645 454.639925,308.863492 L454.606814,308.836145 C452.525023,307.116738 452.231253,304.035258 453.95066,301.953468 C453.966831,301.933889 453.983154,301.914436 453.999628,301.895112 L479.710521,271.735087 C481.482272,269.656744 484.593895,269.384546 486.699593,271.123698 Z M571.663911,271.123698 L571.697021,271.151045 C573.778812,272.870452 574.072582,275.951932 572.353175,278.033723 C572.337005,278.053302 572.320682,278.072754 572.304208,278.092078 L546.593315,308.252103 C544.821563,310.330447 541.709941,310.602645 539.604243,308.863492 L539.571133,308.836145 C537.489342,307.116738 537.195571,304.035258 538.914978,301.953468 C538.931149,301.933889 538.947472,301.914436 538.963946,301.895112 L564.674839,271.735087 C566.44659,269.656744 569.558213,269.384546 571.663911,271.123698 Z M656.628229,271.123698 L656.661339,271.151045 C658.74313,272.870452 659.036901,275.951932 657.317493,278.033723 C657.301323,278.053302 657.285,278.072754 657.268526,278.092078 L631.557633,308.252103 C629.785881,310.330447 626.674259,310.602645 624.568561,308.863492 L624.535451,308.836145 C622.45366,307.116738 622.159889,304.035258 623.879296,301.953468 C623.895467,301.933889 623.91179,301.914436 623.928264,301.895112 L649.639157,271.735087 C651.410909,269.656744 654.522531,269.384546 656.628229,271.123698 Z M741.592547,271.123698 L741.625657,271.151045 C743.707448,272.870452 744.001219,275.951932 742.281812,278.033723 C742.265641,278.053302 742.249318,278.072754 742.232844,278.092078 L716.521951,308.252103 C714.7502,310.330447 711.638577,310.602645 709.532879,308.863492 L709.499769,308.836145 C707.417978,307.116738 707.124208,304.035258 708.843615,301.953468 C708.859785,301.933889 708.876108,301.914436 708.892582,301.895112 L734.603475,271.735087 C736.375227,269.656744 739.486849,269.384546 741.592547,271.123698 Z" id="Combined-Shape"></path>
        </g>
    </g>
</svg>