<?xml version="1.0" encoding="UTF-8"?>
<svg width="500px" height="403px" viewBox="0 0 500 403" version="1.1" xmlns="http://www.w3.org/2000/svg" xmlns:xlink="http://www.w3.org/1999/xlink">
    <!-- Generator: Sketch 52.3 (67297) - http://www.bohemiancoding.com/sketch -->
    <title>Combined Shape</title>
    <desc>Created with Sketch.</desc>
    <g id="Style-Guide" stroke="none" stroke-width="1" fill="none" fill-rule="evenodd">
        <g id="Textures-Copy" transform="translate(-300.000000, -397.000000)" fill="#7913D5" fill-rule="nonzero">
            <g id="Oval-3" transform="translate(0.000000, 395.000000)">
                <path d="M305.787416,366.817633 L304.045119,368.37037 L300,365.695217 L301.742297,364.14248 C322.724096,345.443469 343.916765,336 365.323642,336 C373.024117,336 379.394202,337.589568 385.124649,340.653758 C389.378397,342.928326 392.208057,345.153441 398.125595,350.427159 C403.75033,355.439931 406.371187,357.500854 410.132906,359.512323 C414.982876,362.105703 420.29247,363.430641 426.882428,363.430641 C433.472386,363.430641 438.781981,362.105703 443.63195,359.512323 C447.393669,357.500854 450.014527,355.439931 455.639261,350.427159 C461.556799,345.153441 464.386459,342.928326 468.640207,340.653758 C474.370654,337.589568 480.740739,336 488.441214,336 C496.141689,336 502.511774,337.589568 508.242221,340.653758 C512.495969,342.928326 515.325629,345.153441 521.243167,350.427159 C526.867901,355.439931 529.488759,357.500854 533.250478,359.512323 C538.100448,362.105703 543.410042,363.430641 550,363.430641 C556.589958,363.430641 561.899552,362.105703 566.749522,359.512323 C570.511241,357.500854 573.132099,355.439931 578.756833,350.427159 C584.674371,345.153441 587.504031,342.928326 591.757779,340.653758 C597.488226,337.589568 603.858311,336 611.558786,336 C619.259261,336 625.629346,337.589568 631.359793,340.653758 C635.613541,342.928326 638.443201,345.153441 644.360739,350.427159 C649.985473,355.439931 652.606331,357.500854 656.36805,359.512323 C661.218019,362.105703 666.527614,363.430641 673.117572,363.430641 C679.70753,363.430641 685.017124,362.105703 689.867094,359.512323 C693.628813,357.500854 696.24967,355.439931 701.874405,350.427159 C707.791943,345.153441 710.621603,342.928326 714.875351,340.653758 C720.605798,337.589568 726.975883,336 734.676358,336 C756.083235,336 777.275904,345.443469 798.257703,364.14248 L800,365.695217 L795.954881,368.37037 L794.212584,366.817633 C774.155193,348.942456 754.308671,340.098831 734.676358,340.098831 C728.0864,340.098831 722.776805,341.423769 717.926836,344.017149 C714.165117,346.028618 711.544259,348.089541 705.919525,353.102313 C700.001987,358.376031 697.172327,360.601146 692.918579,362.875714 C687.188132,365.939904 680.818047,367.529472 673.117572,367.529472 C665.417097,367.529472 659.047012,365.939904 653.316565,362.875714 C649.062817,360.601146 646.233157,358.376031 640.315619,353.102313 C634.690884,348.089541 632.070027,346.028618 628.308308,344.017149 C623.458338,341.423769 618.148744,340.098831 611.558786,340.098831 C604.968828,340.098831 599.659234,341.423769 594.809264,344.017149 C591.047545,346.028618 588.426687,348.089541 582.801953,353.102313 C576.884415,358.376031 574.054755,360.601146 569.801007,362.875714 C564.07056,365.939904 557.700475,367.529472 550,367.529472 C542.299525,367.529472 535.92944,365.939904 530.198993,362.875714 C525.945245,360.601146 523.115585,358.376031 517.198047,353.102313 C511.573313,348.089541 508.952455,346.028618 505.190736,344.017149 C500.340766,341.423769 495.031172,340.098831 488.441214,340.098831 C481.851256,340.098831 476.541662,341.423769 471.691692,344.017149 C467.929973,346.028618 465.309116,348.089541 459.684381,353.102313 C453.766843,358.376031 450.937183,360.601146 446.683435,362.875714 C440.952988,365.939904 434.582903,367.529472 426.882428,367.529472 C419.181953,367.529472 412.811868,365.939904 407.081421,362.875714 C402.827673,360.601146 399.998013,358.376031 394.080475,353.102313 C388.455741,348.089541 385.834883,346.028618 382.073164,344.017149 C377.223195,341.423769 371.9136,340.098831 365.323642,340.098831 C345.691329,340.098831 325.844807,348.942456 305.787416,366.817633 Z M305.787416,403.447263 L304.045119,405 L300,402.324846 L301.742297,400.772109 C322.724096,382.073099 343.916765,372.62963 365.323642,372.62963 C373.024117,372.62963 379.394202,374.219198 385.124649,377.283387 C389.378397,379.557955 392.208057,381.783071 398.125595,387.056789 C403.75033,392.069561 406.371187,394.130483 410.132906,396.141953 C414.982876,398.735333 420.29247,400.06027 426.882428,400.06027 C433.472386,400.06027 438.781981,398.735333 443.63195,396.141953 C447.393669,394.130483 450.014527,392.069561 455.639261,387.056789 C461.556799,381.783071 464.386459,379.557955 468.640207,377.283387 C474.370654,374.219198 480.740739,372.62963 488.441214,372.62963 C496.141689,372.62963 502.511774,374.219198 508.242221,377.283387 C512.495969,379.557955 515.325629,381.783071 521.243167,387.056789 C526.867901,392.069561 529.488759,394.130483 533.250478,396.141953 C538.100448,398.735333 543.410042,400.06027 550,400.06027 C556.589958,400.06027 561.899552,398.735333 566.749522,396.141953 C570.511241,394.130483 573.132099,392.069561 578.756833,387.056789 C584.674371,381.783071 587.504031,379.557955 591.757779,377.283387 C597.488226,374.219198 603.858311,372.62963 611.558786,372.62963 C619.259261,372.62963 625.629346,374.219198 631.359793,377.283387 C635.613541,379.557955 638.443201,381.783071 644.360739,387.056789 C649.985473,392.069561 652.606331,394.130483 656.36805,396.141953 C661.218019,398.735333 666.527614,400.06027 673.117572,400.06027 C679.70753,400.06027 685.017124,398.735333 689.867094,396.141953 C693.628813,394.130483 696.24967,392.069561 701.874405,387.056789 C707.791943,381.783071 710.621603,379.557955 714.875351,377.283387 C720.605798,374.219198 726.975883,372.62963 734.676358,372.62963 C756.083235,372.62963 777.275904,382.073099 798.257703,400.772109 L800,402.324846 L795.954881,405 L794.212584,403.447263 C774.155193,385.572086 754.308671,376.728461 734.676358,376.728461 C728.0864,376.728461 722.776805,378.053398 717.926836,380.646778 C714.165117,382.658248 711.544259,384.71917 705.919525,389.731942 C700.001987,395.005661 697.172327,397.230776 692.918579,399.505344 C687.188132,402.569533 680.818047,404.159102 673.117572,404.159102 C665.417097,404.159102 659.047012,402.569533 653.316565,399.505344 C649.062817,397.230776 646.233157,395.005661 640.315619,389.731942 C634.690884,384.71917 632.070027,382.658248 628.308308,380.646778 C623.458338,378.053398 618.148744,376.728461 611.558786,376.728461 C604.968828,376.728461 599.659234,378.053398 594.809264,380.646778 C591.047545,382.658248 588.426687,384.71917 582.801953,389.731942 C576.884415,395.005661 574.054755,397.230776 569.801007,399.505344 C564.07056,402.569533 557.700475,404.159102 550,404.159102 C542.299525,404.159102 535.92944,402.569533 530.198993,399.505344 C525.945245,397.230776 523.115585,395.005661 517.198047,389.731942 C511.573313,384.71917 508.952455,382.658248 505.190736,380.646778 C500.340766,378.053398 495.031172,376.728461 488.441214,376.728461 C481.851256,376.728461 476.541662,378.053398 471.691692,380.646778 C467.929973,382.658248 465.309116,384.71917 459.684381,389.731942 C453.766843,395.005661 450.937183,397.230776 446.683435,399.505344 C440.952988,402.569533 434.582903,404.159102 426.882428,404.159102 C419.181953,404.159102 412.811868,402.569533 407.081421,399.505344 C402.827673,397.230776 399.998013,395.005661 394.080475,389.731942 C388.455741,384.71917 385.834883,382.658248 382.073164,380.646778 C377.223195,378.053398 371.9136,376.728461 365.323642,376.728461 C345.691329,376.728461 325.844807,385.572086 305.787416,403.447263 Z M305.787416,292.817633 L304.045119,294.37037 L300,291.695217 L301.742297,290.14248 C322.724096,271.443469 343.916765,262 365.323642,262 C373.024117,262 379.394202,263.589568 385.124649,266.653758 C389.378397,268.928326 392.208057,271.153441 398.125595,276.427159 C403.75033,281.439931 406.371187,283.500854 410.132906,285.512323 C414.982876,288.105703 420.29247,289.430641 426.882428,289.430641 C433.472386,289.430641 438.781981,288.105703 443.63195,285.512323 C447.393669,283.500854 450.014527,281.439931 455.639261,276.427159 C461.556799,271.153441 464.386459,268.928326 468.640207,266.653758 C474.370654,263.589568 480.740739,262 488.441214,262 C496.141689,262 502.511774,263.589568 508.242221,266.653758 C512.495969,268.928326 515.325629,271.153441 521.243167,276.427159 C526.867901,281.439931 529.488759,283.500854 533.250478,285.512323 C538.100448,288.105703 543.410042,289.430641 550,289.430641 C556.589958,289.430641 561.899552,288.105703 566.749522,285.512323 C570.511241,283.500854 573.132099,281.439931 578.756833,276.427159 C584.674371,271.153441 587.504031,268.928326 591.757779,266.653758 C597.488226,263.589568 603.858311,262 611.558786,262 C619.259261,262 625.629346,263.589568 631.359793,266.653758 C635.613541,268.928326 638.443201,271.153441 644.360739,276.427159 C649.985473,281.439931 652.606331,283.500854 656.36805,285.512323 C661.218019,288.105703 666.527614,289.430641 673.117572,289.430641 C679.70753,289.430641 685.017124,288.105703 689.867094,285.512323 C693.628813,283.500854 696.24967,281.439931 701.874405,276.427159 C707.791943,271.153441 710.621603,268.928326 714.875351,266.653758 C720.605798,263.589568 726.975883,262 734.676358,262 C756.083235,262 777.275904,271.443469 798.257703,290.14248 L800,291.695217 L795.954881,294.37037 L794.212584,292.817633 C774.155193,274.942456 754.308671,266.098831 734.676358,266.098831 C728.0864,266.098831 722.776805,267.423769 717.926836,270.017149 C714.165117,272.028618 711.544259,274.089541 705.919525,279.102313 C700.001987,284.376031 697.172327,286.601146 692.918579,288.875714 C687.188132,291.939904 680.818047,293.529472 673.117572,293.529472 C665.417097,293.529472 659.047012,291.939904 653.316565,288.875714 C649.062817,286.601146 646.233157,284.376031 640.315619,279.102313 C634.690884,274.089541 632.070027,272.028618 628.308308,270.017149 C623.458338,267.423769 618.148744,266.098831 611.558786,266.098831 C604.968828,266.098831 599.659234,267.423769 594.809264,270.017149 C591.047545,272.028618 588.426687,274.089541 582.801953,279.102313 C576.884415,284.376031 574.054755,286.601146 569.801007,288.875714 C564.07056,291.939904 557.700475,293.529472 550,293.529472 C542.299525,293.529472 535.92944,291.939904 530.198993,288.875714 C525.945245,286.601146 523.115585,284.376031 517.198047,279.102313 C511.573313,274.089541 508.952455,272.028618 505.190736,270.017149 C500.340766,267.423769 495.031172,266.098831 488.441214,266.098831 C481.851256,266.098831 476.541662,267.423769 471.691692,270.017149 C467.929973,272.028618 465.309116,274.089541 459.684381,279.102313 C453.766843,284.376031 450.937183,286.601146 446.683435,288.875714 C440.952988,291.939904 434.582903,293.529472 426.882428,293.529472 C419.181953,293.529472 412.811868,291.939904 407.081421,288.875714 C402.827673,286.601146 399.998013,284.376031 394.080475,279.102313 C388.455741,274.089541 385.834883,272.028618 382.073164,270.017149 C377.223195,267.423769 371.9136,266.098831 365.323642,266.098831 C345.691329,266.098831 325.844807,274.942456 305.787416,292.817633 Z M305.787416,329.447263 L304.045119,331 L300,328.324846 L301.742297,326.772109 C322.724096,308.073099 343.916765,298.62963 365.323642,298.62963 C373.024117,298.62963 379.394202,300.219198 385.124649,303.283387 C389.378397,305.557955 392.208057,307.783071 398.125595,313.056789 C403.75033,318.069561 406.371187,320.130483 410.132906,322.141953 C414.982876,324.735333 420.29247,326.06027 426.882428,326.06027 C433.472386,326.06027 438.781981,324.735333 443.63195,322.141953 C447.393669,320.130483 450.014527,318.069561 455.639261,313.056789 C461.556799,307.783071 464.386459,305.557955 468.640207,303.283387 C474.370654,300.219198 480.740739,298.62963 488.441214,298.62963 C496.141689,298.62963 502.511774,300.219198 508.242221,303.283387 C512.495969,305.557955 515.325629,307.783071 521.243167,313.056789 C526.867901,318.069561 529.488759,320.130483 533.250478,322.141953 C538.100448,324.735333 543.410042,326.06027 550,326.06027 C556.589958,326.06027 561.899552,324.735333 566.749522,322.141953 C570.511241,320.130483 573.132099,318.069561 578.756833,313.056789 C584.674371,307.783071 587.504031,305.557955 591.757779,303.283387 C597.488226,300.219198 603.858311,298.62963 611.558786,298.62963 C619.259261,298.62963 625.629346,300.219198 631.359793,303.283387 C635.613541,305.557955 638.443201,307.783071 644.360739,313.056789 C649.985473,318.069561 652.606331,320.130483 656.36805,322.141953 C661.218019,324.735333 666.527614,326.06027 673.117572,326.06027 C679.70753,326.06027 685.017124,324.735333 689.867094,322.141953 C693.628813,320.130483 696.24967,318.069561 701.874405,313.056789 C707.791943,307.783071 710.621603,305.557955 714.875351,303.283387 C720.605798,300.219198 726.975883,298.62963 734.676358,298.62963 C756.083235,298.62963 777.275904,308.073099 798.257703,326.772109 L800,328.324846 L795.954881,331 L794.212584,329.447263 C774.155193,311.572086 754.308671,302.728461 734.676358,302.728461 C728.0864,302.728461 722.776805,304.053398 717.926836,306.646778 C714.165117,308.658248 711.544259,310.71917 705.919525,315.731942 C700.001987,321.005661 697.172327,323.230776 692.918579,325.505344 C687.188132,328.569533 680.818047,330.159102 673.117572,330.159102 C665.417097,330.159102 659.047012,328.569533 653.316565,325.505344 C649.062817,323.230776 646.233157,321.005661 640.315619,315.731942 C634.690884,310.71917 632.070027,308.658248 628.308308,306.646778 C623.458338,304.053398 618.148744,302.728461 611.558786,302.728461 C604.968828,302.728461 599.659234,304.053398 594.809264,306.646778 C591.047545,308.658248 588.426687,310.71917 582.801953,315.731942 C576.884415,321.005661 574.054755,323.230776 569.801007,325.505344 C564.07056,328.569533 557.700475,330.159102 550,330.159102 C542.299525,330.159102 535.92944,328.569533 530.198993,325.505344 C525.945245,323.230776 523.115585,321.005661 517.198047,315.731942 C511.573313,310.71917 508.952455,308.658248 505.190736,306.646778 C500.340766,304.053398 495.031172,302.728461 488.441214,302.728461 C481.851256,302.728461 476.541662,304.053398 471.691692,306.646778 C467.929973,308.658248 465.309116,310.71917 459.684381,315.731942 C453.766843,321.005661 450.937183,323.230776 446.683435,325.505344 C440.952988,328.569533 434.582903,330.159102 426.882428,330.159102 C419.181953,330.159102 412.811868,328.569533 407.081421,325.505344 C402.827673,323.230776 399.998013,321.005661 394.080475,315.731942 C388.455741,310.71917 385.834883,308.658248 382.073164,306.646778 C377.223195,304.053398 371.9136,302.728461 365.323642,302.728461 C345.691329,302.728461 325.844807,311.572086 305.787416,329.447263 Z M305.787416,218.817633 L304.045119,220.37037 L300,217.695217 L301.742297,216.14248 C322.724096,197.443469 343.916765,188 365.323642,188 C373.024117,188 379.394202,189.589568 385.124649,192.653758 C389.378397,194.928326 392.208057,197.153441 398.125595,202.427159 C403.75033,207.439931 406.371187,209.500854 410.132906,211.512323 C414.982876,214.105703 420.29247,215.430641 426.882428,215.430641 C433.472386,215.430641 438.781981,214.105703 443.63195,211.512323 C447.393669,209.500854 450.014527,207.439931 455.639261,202.427159 C461.556799,197.153441 464.386459,194.928326 468.640207,192.653758 C474.370654,189.589568 480.740739,188 488.441214,188 C496.141689,188 502.511774,189.589568 508.242221,192.653758 C512.495969,194.928326 515.325629,197.153441 521.243167,202.427159 C526.867901,207.439931 529.488759,209.500854 533.250478,211.512323 C538.100448,214.105703 543.410042,215.430641 550,215.430641 C556.589958,215.430641 561.899552,214.105703 566.749522,211.512323 C570.511241,209.500854 573.132099,207.439931 578.756833,202.427159 C584.674371,197.153441 587.504031,194.928326 591.757779,192.653758 C597.488226,189.589568 603.858311,188 611.558786,188 C619.259261,188 625.629346,189.589568 631.359793,192.653758 C635.613541,194.928326 638.443201,197.153441 644.360739,202.427159 C649.985473,207.439931 652.606331,209.500854 656.36805,211.512323 C661.218019,214.105703 666.527614,215.430641 673.117572,215.430641 C679.70753,215.430641 685.017124,214.105703 689.867094,211.512323 C693.628813,209.500854 696.24967,207.439931 701.874405,202.427159 C707.791943,197.153441 710.621603,194.928326 714.875351,192.653758 C720.605798,189.589568 726.975883,188 734.676358,188 C756.083235,188 777.275904,197.443469 798.257703,216.14248 L800,217.695217 L795.954881,220.37037 L794.212584,218.817633 C774.155193,200.942456 754.308671,192.098831 734.676358,192.098831 C728.0864,192.098831 722.776805,193.423769 717.926836,196.017149 C714.165117,198.028618 711.544259,200.089541 705.919525,205.102313 C700.001987,210.376031 697.172327,212.601146 692.918579,214.875714 C687.188132,217.939904 680.818047,219.529472 673.117572,219.529472 C665.417097,219.529472 659.047012,217.939904 653.316565,214.875714 C649.062817,212.601146 646.233157,210.376031 640.315619,205.102313 C634.690884,200.089541 632.070027,198.028618 628.308308,196.017149 C623.458338,193.423769 618.148744,192.098831 611.558786,192.098831 C604.968828,192.098831 599.659234,193.423769 594.809264,196.017149 C591.047545,198.028618 588.426687,200.089541 582.801953,205.102313 C576.884415,210.376031 574.054755,212.601146 569.801007,214.875714 C564.07056,217.939904 557.700475,219.529472 550,219.529472 C542.299525,219.529472 535.92944,217.939904 530.198993,214.875714 C525.945245,212.601146 523.115585,210.376031 517.198047,205.102313 C511.573313,200.089541 508.952455,198.028618 505.190736,196.017149 C500.340766,193.423769 495.031172,192.098831 488.441214,192.098831 C481.851256,192.098831 476.541662,193.423769 471.691692,196.017149 C467.929973,198.028618 465.309116,200.089541 459.684381,205.102313 C453.766843,210.376031 450.937183,212.601146 446.683435,214.875714 C440.952988,217.939904 434.582903,219.529472 426.882428,219.529472 C419.181953,219.529472 412.811868,217.939904 407.081421,214.875714 C402.827673,212.601146 399.998013,210.376031 394.080475,205.102313 C388.455741,200.089541 385.834883,198.028618 382.073164,196.017149 C377.223195,193.423769 371.9136,192.098831 365.323642,192.098831 C345.691329,192.098831 325.844807,200.942456 305.787416,218.817633 Z M305.787416,255.447263 L304.045119,257 L300,254.324846 L301.742297,252.772109 C322.724096,234.073099 343.916765,224.62963 365.323642,224.62963 C373.024117,224.62963 379.394202,226.219198 385.124649,229.283387 C389.378397,231.557955 392.208057,233.783071 398.125595,239.056789 C403.75033,244.069561 406.371187,246.130483 410.132906,248.141953 C414.982876,250.735333 420.29247,252.06027 426.882428,252.06027 C433.472386,252.06027 438.781981,250.735333 443.63195,248.141953 C447.393669,246.130483 450.014527,244.069561 455.639261,239.056789 C461.556799,233.783071 464.386459,231.557955 468.640207,229.283387 C474.370654,226.219198 480.740739,224.62963 488.441214,224.62963 C496.141689,224.62963 502.511774,226.219198 508.242221,229.283387 C512.495969,231.557955 515.325629,233.783071 521.243167,239.056789 C526.867901,244.069561 529.488759,246.130483 533.250478,248.141953 C538.100448,250.735333 543.410042,252.06027 550,252.06027 C556.589958,252.06027 561.899552,250.735333 566.749522,248.141953 C570.511241,246.130483 573.132099,244.069561 578.756833,239.056789 C584.674371,233.783071 587.504031,231.557955 591.757779,229.283387 C597.488226,226.219198 603.858311,224.62963 611.558786,224.62963 C619.259261,224.62963 625.629346,226.219198 631.359793,229.283387 C635.613541,231.557955 638.443201,233.783071 644.360739,239.056789 C649.985473,244.069561 652.606331,246.130483 656.36805,248.141953 C661.218019,250.735333 666.527614,252.06027 673.117572,252.06027 C679.70753,252.06027 685.017124,250.735333 689.867094,248.141953 C693.628813,246.130483 696.24967,244.069561 701.874405,239.056789 C707.791943,233.783071 710.621603,231.557955 714.875351,229.283387 C720.605798,226.219198 726.975883,224.62963 734.676358,224.62963 C756.083235,224.62963 777.275904,234.073099 798.257703,252.772109 L800,254.324846 L795.954881,257 L794.212584,255.447263 C774.155193,237.572086 754.308671,228.728461 734.676358,228.728461 C728.0864,228.728461 722.776805,230.053398 717.926836,232.646778 C714.165117,234.658248 711.544259,236.71917 705.919525,241.731942 C700.001987,247.005661 697.172327,249.230776 692.918579,251.505344 C687.188132,254.569533 680.818047,256.159102 673.117572,256.159102 C665.417097,256.159102 659.047012,254.569533 653.316565,251.505344 C649.062817,249.230776 646.233157,247.005661 640.315619,241.731942 C634.690884,236.71917 632.070027,234.658248 628.308308,232.646778 C623.458338,230.053398 618.148744,228.728461 611.558786,228.728461 C604.968828,228.728461 599.659234,230.053398 594.809264,232.646778 C591.047545,234.658248 588.426687,236.71917 582.801953,241.731942 C576.884415,247.005661 574.054755,249.230776 569.801007,251.505344 C564.07056,254.569533 557.700475,256.159102 550,256.159102 C542.299525,256.159102 535.92944,254.569533 530.198993,251.505344 C525.945245,249.230776 523.115585,247.005661 517.198047,241.731942 C511.573313,236.71917 508.952455,234.658248 505.190736,232.646778 C500.340766,230.053398 495.031172,228.728461 488.441214,228.728461 C481.851256,228.728461 476.541662,230.053398 471.691692,232.646778 C467.929973,234.658248 465.309116,236.71917 459.684381,241.731942 C453.766843,247.005661 450.937183,249.230776 446.683435,251.505344 C440.952988,254.569533 434.582903,256.159102 426.882428,256.159102 C419.181953,256.159102 412.811868,254.569533 407.081421,251.505344 C402.827673,249.230776 399.998013,247.005661 394.080475,241.731942 C388.455741,236.71917 385.834883,234.658248 382.073164,232.646778 C377.223195,230.053398 371.9136,228.728461 365.323642,228.728461 C345.691329,228.728461 325.844807,237.572086 305.787416,255.447263 Z M305.787416,144.817633 L304.045119,146.37037 L300,143.695217 L301.742297,142.14248 C322.724096,123.443469 343.916765,114 365.323642,114 C373.024117,114 379.394202,115.589568 385.124649,118.653758 C389.378397,120.928326 392.208057,123.153441 398.125595,128.427159 C403.75033,133.439931 406.371187,135.500854 410.132906,137.512323 C414.982876,140.105703 420.29247,141.430641 426.882428,141.430641 C433.472386,141.430641 438.781981,140.105703 443.63195,137.512323 C447.393669,135.500854 450.014527,133.439931 455.639261,128.427159 C461.556799,123.153441 464.386459,120.928326 468.640207,118.653758 C474.370654,115.589568 480.740739,114 488.441214,114 C496.141689,114 502.511774,115.589568 508.242221,118.653758 C512.495969,120.928326 515.325629,123.153441 521.243167,128.427159 C526.867901,133.439931 529.488759,135.500854 533.250478,137.512323 C538.100448,140.105703 543.410042,141.430641 550,141.430641 C556.589958,141.430641 561.899552,140.105703 566.749522,137.512323 C570.511241,135.500854 573.132099,133.439931 578.756833,128.427159 C584.674371,123.153441 587.504031,120.928326 591.757779,118.653758 C597.488226,115.589568 603.858311,114 611.558786,114 C619.259261,114 625.629346,115.589568 631.359793,118.653758 C635.613541,120.928326 638.443201,123.153441 644.360739,128.427159 C649.985473,133.439931 652.606331,135.500854 656.36805,137.512323 C661.218019,140.105703 666.527614,141.430641 673.117572,141.430641 C679.70753,141.430641 685.017124,140.105703 689.867094,137.512323 C693.628813,135.500854 696.24967,133.439931 701.874405,128.427159 C707.791943,123.153441 710.621603,120.928326 714.875351,118.653758 C720.605798,115.589568 726.975883,114 734.676358,114 C756.083235,114 777.275904,123.443469 798.257703,142.14248 L800,143.695217 L795.954881,146.37037 L794.212584,144.817633 C774.155193,126.942456 754.308671,118.098831 734.676358,118.098831 C728.0864,118.098831 722.776805,119.423769 717.926836,122.017149 C714.165117,124.028618 711.544259,126.089541 705.919525,131.102313 C700.001987,136.376031 697.172327,138.601146 692.918579,140.875714 C687.188132,143.939904 680.818047,145.529472 673.117572,145.529472 C665.417097,145.529472 659.047012,143.939904 653.316565,140.875714 C649.062817,138.601146 646.233157,136.376031 640.315619,131.102313 C634.690884,126.089541 632.070027,124.028618 628.308308,122.017149 C623.458338,119.423769 618.148744,118.098831 611.558786,118.098831 C604.968828,118.098831 599.659234,119.423769 594.809264,122.017149 C591.047545,124.028618 588.426687,126.089541 582.801953,131.102313 C576.884415,136.376031 574.054755,138.601146 569.801007,140.875714 C564.07056,143.939904 557.700475,145.529472 550,145.529472 C542.299525,145.529472 535.92944,143.939904 530.198993,140.875714 C525.945245,138.601146 523.115585,136.376031 517.198047,131.102313 C511.573313,126.089541 508.952455,124.028618 505.190736,122.017149 C500.340766,119.423769 495.031172,118.098831 488.441214,118.098831 C481.851256,118.098831 476.541662,119.423769 471.691692,122.017149 C467.929973,124.028618 465.309116,126.089541 459.684381,131.102313 C453.766843,136.376031 450.937183,138.601146 446.683435,140.875714 C440.952988,143.939904 434.582903,145.529472 426.882428,145.529472 C419.181953,145.529472 412.811868,143.939904 407.081421,140.875714 C402.827673,138.601146 399.998013,136.376031 394.080475,131.102313 C388.455741,126.089541 385.834883,124.028618 382.073164,122.017149 C377.223195,119.423769 371.9136,118.098831 365.323642,118.098831 C345.691329,118.098831 325.844807,126.942456 305.787416,144.817633 Z M305.787416,181.447263 L304.045119,183 L300,180.324846 L301.742297,178.772109 C322.724096,160.073099 343.916765,150.62963 365.323642,150.62963 C373.024117,150.62963 379.394202,152.219198 385.124649,155.283387 C389.378397,157.557955 392.208057,159.783071 398.125595,165.056789 C403.75033,170.069561 406.371187,172.130483 410.132906,174.141953 C414.982876,176.735333 420.29247,178.06027 426.882428,178.06027 C433.472386,178.06027 438.781981,176.735333 443.63195,174.141953 C447.393669,172.130483 450.014527,170.069561 455.639261,165.056789 C461.556799,159.783071 464.386459,157.557955 468.640207,155.283387 C474.370654,152.219198 480.740739,150.62963 488.441214,150.62963 C496.141689,150.62963 502.511774,152.219198 508.242221,155.283387 C512.495969,157.557955 515.325629,159.783071 521.243167,165.056789 C526.867901,170.069561 529.488759,172.130483 533.250478,174.141953 C538.100448,176.735333 543.410042,178.06027 550,178.06027 C556.589958,178.06027 561.899552,176.735333 566.749522,174.141953 C570.511241,172.130483 573.132099,170.069561 578.756833,165.056789 C584.674371,159.783071 587.504031,157.557955 591.757779,155.283387 C597.488226,152.219198 603.858311,150.62963 611.558786,150.62963 C619.259261,150.62963 625.629346,152.219198 631.359793,155.283387 C635.613541,157.557955 638.443201,159.783071 644.360739,165.056789 C649.985473,170.069561 652.606331,172.130483 656.36805,174.141953 C661.218019,176.735333 666.527614,178.06027 673.117572,178.06027 C679.70753,178.06027 685.017124,176.735333 689.867094,174.141953 C693.628813,172.130483 696.24967,170.069561 701.874405,165.056789 C707.791943,159.783071 710.621603,157.557955 714.875351,155.283387 C720.605798,152.219198 726.975883,150.62963 734.676358,150.62963 C756.083235,150.62963 777.275904,160.073099 798.257703,178.772109 L800,180.324846 L795.954881,183 L794.212584,181.447263 C774.155193,163.572086 754.308671,154.728461 734.676358,154.728461 C728.0864,154.728461 722.776805,156.053398 717.926836,158.646778 C714.165117,160.658248 711.544259,162.71917 705.919525,167.731942 C700.001987,173.005661 697.172327,175.230776 692.918579,177.505344 C687.188132,180.569533 680.818047,182.159102 673.117572,182.159102 C665.417097,182.159102 659.047012,180.569533 653.316565,177.505344 C649.062817,175.230776 646.233157,173.005661 640.315619,167.731942 C634.690884,162.71917 632.070027,160.658248 628.308308,158.646778 C623.458338,156.053398 618.148744,154.728461 611.558786,154.728461 C604.968828,154.728461 599.659234,156.053398 594.809264,158.646778 C591.047545,160.658248 588.426687,162.71917 582.801953,167.731942 C576.884415,173.005661 574.054755,175.230776 569.801007,177.505344 C564.07056,180.569533 557.700475,182.159102 550,182.159102 C542.299525,182.159102 535.92944,180.569533 530.198993,177.505344 C525.945245,175.230776 523.115585,173.005661 517.198047,167.731942 C511.573313,162.71917 508.952455,160.658248 505.190736,158.646778 C500.340766,156.053398 495.031172,154.728461 488.441214,154.728461 C481.851256,154.728461 476.541662,156.053398 471.691692,158.646778 C467.929973,160.658248 465.309116,162.71917 459.684381,167.731942 C453.766843,173.005661 450.937183,175.230776 446.683435,177.505344 C440.952988,180.569533 434.582903,182.159102 426.882428,182.159102 C419.181953,182.159102 412.811868,180.569533 407.081421,177.505344 C402.827673,175.230776 399.998013,173.005661 394.080475,167.731942 C388.455741,162.71917 385.834883,160.658248 382.073164,158.646778 C377.223195,156.053398 371.9136,154.728461 365.323642,154.728461 C345.691329,154.728461 325.844807,163.572086 305.787416,181.447263 Z M305.787416,70.8176331 L304.045119,72.3703704 L300,69.6952168 L301.742297,68.1424796 C322.724096,49.4434691 343.916765,40 365.323642,40 C373.024117,40 379.394202,41.5895683 385.124649,44.6537578 C389.378397,46.9283257 392.208057,49.153441 398.125595,54.4271592 C403.75033,59.4399313 406.371187,61.5008535 410.132906,63.5123233 C414.982876,66.1057034 420.29247,67.4306407 426.882428,67.4306407 C433.472386,67.4306407 438.781981,66.1057034 443.63195,63.5123233 C447.393669,61.5008535 450.014527,59.4399313 455.639261,54.4271592 C461.556799,49.153441 464.386459,46.9283257 468.640207,44.6537578 C474.370654,41.5895683 480.740739,40 488.441214,40 C496.141689,40 502.511774,41.5895683 508.242221,44.6537578 C512.495969,46.9283257 515.325629,49.153441 521.243167,54.4271592 C526.867901,59.4399313 529.488759,61.5008535 533.250478,63.5123233 C538.100448,66.1057034 543.410042,67.4306407 550,67.4306407 C556.589958,67.4306407 561.899552,66.1057034 566.749522,63.5123233 C570.511241,61.5008535 573.132099,59.4399313 578.756833,54.4271592 C584.674371,49.153441 587.504031,46.9283257 591.757779,44.6537578 C597.488226,41.5895683 603.858311,40 611.558786,40 C619.259261,40 625.629346,41.5895683 631.359793,44.6537578 C635.613541,46.9283257 638.443201,49.153441 644.360739,54.4271592 C649.985473,59.4399313 652.606331,61.5008535 656.36805,63.5123233 C661.218019,66.1057034 666.527614,67.4306407 673.117572,67.4306407 C679.70753,67.4306407 685.017124,66.1057034 689.867094,63.5123233 C693.628813,61.5008535 696.24967,59.4399313 701.874405,54.4271592 C707.791943,49.153441 710.621603,46.9283257 714.875351,44.6537578 C720.605798,41.5895683 726.975883,40 734.676358,40 C756.083235,40 777.275904,49.4434691 798.257703,68.1424796 L800,69.6952168 L795.954881,72.3703704 L794.212584,70.8176331 C774.155193,52.942456 754.308671,44.0988314 734.676358,44.0988314 C728.0864,44.0988314 722.776805,45.4237686 717.926836,48.0171487 C714.165117,50.0286185 711.544259,52.0895407 705.919525,57.1023128 C700.001987,62.376031 697.172327,64.6011463 692.918579,66.8757142 C687.188132,69.9399037 680.818047,71.529472 673.117572,71.529472 C665.417097,71.529472 659.047012,69.9399037 653.316565,66.8757142 C649.062817,64.6011463 646.233157,62.376031 640.315619,57.1023128 C634.690884,52.0895407 632.070027,50.0286185 628.308308,48.0171487 C623.458338,45.4237686 618.148744,44.0988314 611.558786,44.0988314 C604.968828,44.0988314 599.659234,45.4237686 594.809264,48.0171487 C591.047545,50.0286185 588.426687,52.0895407 582.801953,57.1023128 C576.884415,62.376031 574.054755,64.6011463 569.801007,66.8757142 C564.07056,69.9399037 557.700475,71.529472 550,71.529472 C542.299525,71.529472 535.92944,69.9399037 530.198993,66.8757142 C525.945245,64.6011463 523.115585,62.376031 517.198047,57.1023128 C511.573313,52.0895407 508.952455,50.0286185 505.190736,48.0171487 C500.340766,45.4237686 495.031172,44.0988314 488.441214,44.0988314 C481.851256,44.0988314 476.541662,45.4237686 471.691692,48.0171487 C467.929973,50.0286185 465.309116,52.0895407 459.684381,57.1023128 C453.766843,62.376031 450.937183,64.6011463 446.683435,66.8757142 C440.952988,69.9399037 434.582903,71.529472 426.882428,71.529472 C419.181953,71.529472 412.811868,69.9399037 407.081421,66.8757142 C402.827673,64.6011463 399.998013,62.376031 394.080475,57.1023128 C388.455741,52.0895407 385.834883,50.0286185 382.073164,48.0171487 C377.223195,45.4237686 371.9136,44.0988314 365.323642,44.0988314 C345.691329,44.0988314 325.844807,52.942456 305.787416,70.8176331 Z M305.787416,107.447263 L304.045119,109 L300,106.324846 L301.742297,104.772109 C322.724096,86.0730987 343.916765,76.6296296 365.323642,76.6296296 C373.024117,76.6296296 379.394202,78.219198 385.124649,81.2833875 C389.378397,83.5579553 392.208057,85.7830707 398.125595,91.0567889 C403.75033,96.0695609 406.371187,98.1304832 410.132906,100.141953 C414.982876,102.735333 420.29247,104.06027 426.882428,104.06027 C433.472386,104.06027 438.781981,102.735333 443.63195,100.141953 C447.393669,98.1304832 450.014527,96.0695609 455.639261,91.0567889 C461.556799,85.7830707 464.386459,83.5579553 468.640207,81.2833875 C474.370654,78.219198 480.740739,76.6296296 488.441214,76.6296296 C496.141689,76.6296296 502.511774,78.219198 508.242221,81.2833875 C512.495969,83.5579553 515.325629,85.7830707 521.243167,91.0567889 C526.867901,96.0695609 529.488759,98.1304832 533.250478,100.141953 C538.100448,102.735333 543.410042,104.06027 550,104.06027 C556.589958,104.06027 561.899552,102.735333 566.749522,100.141953 C570.511241,98.1304832 573.132099,96.0695609 578.756833,91.0567889 C584.674371,85.7830707 587.504031,83.5579553 591.757779,81.2833875 C597.488226,78.219198 603.858311,76.6296296 611.558786,76.6296296 C619.259261,76.6296296 625.629346,78.219198 631.359793,81.2833875 C635.613541,83.5579553 638.443201,85.7830707 644.360739,91.0567889 C649.985473,96.0695609 652.606331,98.1304832 656.36805,100.141953 C661.218019,102.735333 666.527614,104.06027 673.117572,104.06027 C679.70753,104.06027 685.017124,102.735333 689.867094,100.141953 C693.628813,98.1304832 696.24967,96.0695609 701.874405,91.0567889 C707.791943,85.7830707 710.621603,83.5579553 714.875351,81.2833875 C720.605798,78.219198 726.975883,76.6296296 734.676358,76.6296296 C756.083235,76.6296296 777.275904,86.0730987 798.257703,104.772109 L800,106.324846 L795.954881,109 L794.212584,107.447263 C774.155193,89.5720857 754.308671,80.728461 734.676358,80.728461 C728.0864,80.728461 722.776805,82.0533982 717.926836,84.6467784 C714.165117,86.6582481 711.544259,88.7191704 705.919525,93.7319424 C700.001987,99.0056606 697.172327,101.230776 692.918579,103.505344 C687.188132,106.569533 680.818047,108.159102 673.117572,108.159102 C665.417097,108.159102 659.047012,106.569533 653.316565,103.505344 C649.062817,101.230776 646.233157,99.0056606 640.315619,93.7319424 C634.690884,88.7191704 632.070027,86.6582481 628.308308,84.6467784 C623.458338,82.0533982 618.148744,80.728461 611.558786,80.728461 C604.968828,80.728461 599.659234,82.0533982 594.809264,84.6467784 C591.047545,86.6582481 588.426687,88.7191704 582.801953,93.7319424 C576.884415,99.0056606 574.054755,101.230776 569.801007,103.505344 C564.07056,106.569533 557.700475,108.159102 550,108.159102 C542.299525,108.159102 535.92944,106.569533 530.198993,103.505344 C525.945245,101.230776 523.115585,99.0056606 517.198047,93.7319424 C511.573313,88.7191704 508.952455,86.6582481 505.190736,84.6467784 C500.340766,82.0533982 495.031172,80.728461 488.441214,80.728461 C481.851256,80.728461 476.541662,82.0533982 471.691692,84.6467784 C467.929973,86.6582481 465.309116,88.7191704 459.684381,93.7319424 C453.766843,99.0056606 450.937183,101.230776 446.683435,103.505344 C440.952988,106.569533 434.582903,108.159102 426.882428,108.159102 C419.181953,108.159102 412.811868,106.569533 407.081421,103.505344 C402.827673,101.230776 399.998013,99.0056606 394.080475,93.7319424 C388.455741,88.7191704 385.834883,86.6582481 382.073164,84.6467784 C377.223195,82.0533982 371.9136,80.728461 365.323642,80.728461 C345.691329,80.728461 325.844807,89.5720857 305.787416,107.447263 Z M305.787416,33.4472627 L304.045119,35 L300,32.3248464 L301.742297,30.7721092 C322.724096,12.0730987 343.916765,2.62962963 365.323642,2.62962963 C373.024117,2.62962963 379.394202,4.21919797 385.124649,7.28338746 C389.378397,9.55795531 392.208057,11.7830707 398.125595,17.0567889 C403.75033,22.0695609 406.371187,24.1304832 410.132906,26.1419529 C414.982876,28.735333 420.29247,30.0602703 426.882428,30.0602703 C433.472386,30.0602703 438.781981,28.735333 443.63195,26.1419529 C447.393669,24.1304832 450.014527,22.0695609 455.639261,17.0567889 C461.556799,11.7830707 464.386459,9.55795531 468.640207,7.28338746 C474.370654,4.21919797 480.740739,2.62962963 488.441214,2.62962963 C496.141689,2.62962963 502.511774,4.21919797 508.242221,7.28338746 C512.495969,9.55795531 515.325629,11.7830707 521.243167,17.0567889 C526.867901,22.0695609 529.488759,24.1304832 533.250478,26.1419529 C538.100448,28.735333 543.410042,30.0602703 550,30.0602703 C556.589958,30.0602703 561.899552,28.735333 566.749522,26.1419529 C570.511241,24.1304832 573.132099,22.0695609 578.756833,17.0567889 C584.674371,11.7830707 587.504031,9.55795531 591.757779,7.28338746 C597.488226,4.21919797 603.858311,2.62962963 611.558786,2.62962963 C619.259261,2.62962963 625.629346,4.21919797 631.359793,7.28338746 C635.613541,9.55795531 638.443201,11.7830707 644.360739,17.0567889 C649.985473,22.0695609 652.606331,24.1304832 656.36805,26.1419529 C661.218019,28.735333 666.527614,30.0602703 673.117572,30.0602703 C679.70753,30.0602703 685.017124,28.735333 689.867094,26.1419529 C693.628813,24.1304832 696.24967,22.0695609 701.874405,17.0567889 C707.791943,11.7830707 710.621603,9.55795531 714.875351,7.28338746 C720.605798,4.21919797 726.975883,2.62962963 734.676358,2.62962963 C756.083235,2.62962963 777.275904,12.0730987 798.257703,30.7721092 L800,32.3248464 L795.954881,35 L794.212584,33.4472627 C774.155193,15.5720857 754.308671,6.72846099 734.676358,6.72846099 C728.0864,6.72846099 722.776805,8.05339822 717.926836,10.6467784 C714.165117,12.6582481 711.544259,14.7191704 705.919525,19.7319424 C700.001987,25.0056606 697.172327,27.230776 692.918579,29.5053438 C687.188132,32.5695333 680.818047,34.1591016 673.117572,34.1591016 C665.417097,34.1591016 659.047012,32.5695333 653.316565,29.5053438 C649.062817,27.230776 646.233157,25.0056606 640.315619,19.7319424 C634.690884,14.7191704 632.070027,12.6582481 628.308308,10.6467784 C623.458338,8.05339822 618.148744,6.72846099 611.558786,6.72846099 C604.968828,6.72846099 599.659234,8.05339822 594.809264,10.6467784 C591.047545,12.6582481 588.426687,14.7191704 582.801953,19.7319424 C576.884415,25.0056606 574.054755,27.230776 569.801007,29.5053438 C564.07056,32.5695333 557.700475,34.1591016 550,34.1591016 C542.299525,34.1591016 535.92944,32.5695333 530.198993,29.5053438 C525.945245,27.230776 523.115585,25.0056606 517.198047,19.7319424 C511.573313,14.7191704 508.952455,12.6582481 505.190736,10.6467784 C500.340766,8.05339822 495.031172,6.72846099 488.441214,6.72846099 C481.851256,6.72846099 476.541662,8.05339822 471.691692,10.6467784 C467.929973,12.6582481 465.309116,14.7191704 459.684381,19.7319424 C453.766843,25.0056606 450.937183,27.230776 446.683435,29.5053438 C440.952988,32.5695333 434.582903,34.1591016 426.882428,34.1591016 C419.181953,34.1591016 412.811868,32.5695333 407.081421,29.5053438 C402.827673,27.230776 399.998013,25.0056606 394.080475,19.7319424 C388.455741,14.7191704 385.834883,12.6582481 382.073164,10.6467784 C377.223195,8.05339822 371.9136,6.72846099 365.323642,6.72846099 C345.691329,6.72846099 325.844807,15.5720857 305.787416,33.4472627 Z" id="Combined-Shape"></path>
            </g>
        </g>
    </g>
</svg>